<svg width="182" height="230" viewBox="0 0 182 230" fill="none" xmlns="http://www.w3.org/2000/svg">
<path d="M126.102 46.4636C135.595 52.3198 143.484 59.5747 149.769 68.2284C156.632 77.684 160.885 87.9603 162.526 99.0571C136.248 99.8404 110.193 99.6446 84.3629 98.4696C32.7206 96.1011 8.05574 90.0211 10.3684 80.2298C13.0726 68.8345 24.1695 58.2505 43.6589 48.4778C53.3943 43.5915 62.8593 39.8428 72.0538 37.2318C79.5885 34.3783 88.2515 33.8095 98.0429 35.5253C107.685 37.2038 117.038 40.8499 126.102 46.4636Z" fill="#6F4E25"/>
<path d="M92.2512 34.6583L99.301 35.4136C93.3702 37.5397 87.7845 40.6916 82.5438 44.8692C78.6086 48.0211 74.5336 52.0682 70.3186 57.0105C68.4349 54.8657 66.1223 52.4692 63.3807 49.8209L56.0232 42.883C67.4745 38.1831 76.7902 35.4695 83.9705 34.7422C86.6935 34.4811 89.4537 34.4531 92.2512 34.6583Z" fill="#4A311C"/>
<path d="M151.867 71.2781C157.5 79.9318 161.052 89.1912 162.526 99.0571C156.427 99.2436 148.771 99.3653 139.558 99.4212C144.724 91.4949 148.827 82.1139 151.867 71.2781Z" fill="#4A311C"/>
<path d="M71.2147 33.735C72.8 38.2856 73.6859 41.5028 73.8724 43.3864L62.2067 75.1664L25.615 71.4177C24.7944 70.653 22.6776 67.4079 19.2646 61.6823C15.6652 55.6396 13.7349 51.8443 13.4738 50.2963C12.9516 47.4056 21.2322 41.7359 38.3158 33.2874C44.0414 30.4525 49.9162 28.2984 55.9402 26.8251C60.0806 25.818 63.3537 25.2864 65.7595 25.2305C67.4008 25.1932 69.2191 28.028 71.2147 33.735Z" fill="#6F4E25"/>
<path d="M71.2147 33.735C72.8 38.2856 73.6859 41.5028 73.8724 43.3864L65.7592 65.4589C62.6073 60.9829 56.9563 54.2129 48.8062 45.1489C41.7378 37.2785 38.2412 33.3247 38.3158 33.2874C44.0414 30.4525 49.9162 28.2984 55.9402 26.8251C60.0806 25.818 63.3537 25.2864 65.7595 25.2305C67.4008 25.1932 69.2191 28.028 71.2147 33.735Z" fill="#4A311C"/>
<path d="M150.72 53.3458C156.334 57.9338 160.912 62.2699 164.456 66.3543C168.223 70.6812 169.799 73.5719 169.184 75.0267C168.624 76.3508 165.715 79.3721 160.455 84.0906C155.625 88.4361 152.669 90.9166 151.587 91.5321L112.226 67.3335L119.807 48.618C120.273 47.2565 121.225 45.4754 122.661 43.2747C124.526 40.4026 126.008 39.1064 127.109 39.3862C129.011 39.8711 131.93 41.1766 135.865 43.3027C141.068 46.1375 146.02 49.4852 150.72 53.3458Z" fill="#6F4E25"/>
<path d="M164.876 66.8577C168.345 70.9234 169.78 73.6465 169.184 75.0267C168.904 75.6794 167.636 77.1526 165.379 79.4465L159.197 85.4332L152.846 84.0625C149.881 83.4843 147.027 83.1952 144.286 83.1952C146.356 79.9687 148.268 74.5042 150.021 66.8017C151.457 60.4234 152.138 56.311 152.063 54.4646C157.36 58.922 161.631 63.053 164.876 66.8577Z" fill="#4A311C"/>
<path d="M64.3595 35.2456C65.4785 37.2598 66.3458 39.3393 66.9612 41.4841L67.8285 43.9459C68.4812 45.9601 68.9568 47.9184 69.2552 49.8207C70.1691 55.9193 69.134 60.3301 66.1499 63.053C63.1473 65.7759 56.713 67.7529 46.847 68.9838C41.9047 69.6179 37.2608 69.9722 32.9153 70.0468C31.1436 68.0886 28.7936 64.7875 25.8656 60.1436C22.6577 55.0707 21.1377 51.9655 21.3056 50.8278C21.4734 49.5596 27.3669 46.1653 38.986 40.6448C50.6237 35.1244 58.0278 32.2149 61.1983 31.9165C62.0376 31.8233 63.0913 32.933 64.3595 35.2456Z" fill="#0D131A"/>
<path d="M128.899 46.9951C130.633 47.6293 136.471 51.9561 146.411 59.9757C156.576 68.1631 161.611 72.807 161.518 73.9074C161.425 74.9891 159.289 77.6001 155.112 81.7404C151.251 85.5637 148.304 88.1747 146.271 89.5735L119.443 63.5845C120.823 59.6866 122.185 56.3389 123.528 53.5414C125.822 48.7296 127.612 46.5475 128.899 46.9951Z" fill="#0D131A"/>
<path d="M130.326 58.493C135.305 58.2133 140.052 60.2555 144.565 64.6196C146.299 66.2981 147.754 68.1165 148.929 70.0748C150.011 71.8839 150.608 73.3852 150.72 74.5788C150.981 77.2831 150.486 79.633 149.237 81.6286C147.689 84.1277 145.106 85.713 141.488 86.3844L124.283 77.9359L121.094 66.8577C121.485 64.9553 122.194 63.3421 123.22 62.0179C124.898 59.8545 127.267 58.6796 130.326 58.493Z" fill="#DCDBD6"/>
<path d="M150.72 74.5788C150.981 77.2831 150.486 79.633 149.237 81.6286C147.689 84.1277 145.106 85.713 141.488 86.3844L135.669 83.5307L140.76 61.71L145.628 66.9134C148.892 70.6434 150.589 73.1987 150.72 74.5788Z" fill="#B4B4B0"/>
<path d="M130.298 78.8588C127.239 76.6208 125.458 73.9818 124.955 70.9418C124.507 68.0697 125.337 65.7291 127.445 63.92C128.918 62.6518 130.447 61.9151 132.033 61.71L146.412 74.3828C146.822 76.8073 146.076 78.7936 144.174 80.3415C142.421 81.7403 140.379 82.3278 138.047 82.104C135.492 81.8615 132.909 80.7798 130.298 78.8588Z" fill="#DCDBD6"/>
<path d="M146.412 74.3828C146.822 76.8073 146.076 78.7936 144.174 80.3415C142.421 81.7403 140.379 82.3278 138.047 82.104L135.922 81.6564L136.901 72.4805L137.46 66.9973L146.412 74.3828Z" fill="#B4B4B0"/>
<path d="M180.178 45.5686C179.861 48.1424 179.059 50.5855 177.772 52.8982C176.578 55.0616 175.142 56.7867 173.464 58.0736C170.61 60.2557 166.321 63.221 160.595 66.9697C155.317 70.42 151.596 72.742 149.433 73.9356C147.512 75.0173 145.311 75.4556 142.831 75.2504C140.369 75.0639 137.851 74.2713 135.277 72.8725C132.872 71.567 131.202 69.4782 130.27 66.606C129.449 64.051 129.393 61.7011 130.102 59.5563C130.811 57.4115 132.769 52.7676 135.977 45.6246C139.297 38.1832 141.423 33.819 142.355 32.5322C143.81 30.4807 145.796 28.7089 148.314 27.2169C150.869 25.7249 153.611 24.7177 156.539 24.1955C163.383 22.9833 169.1 24.5406 173.687 28.8674C178.779 33.6605 180.942 39.2276 180.178 45.5686Z" fill="#DCDBD6"/>
<path d="M155.588 62.0741C160.586 63.305 165.389 62.8108 169.995 60.5914C166.713 62.9227 162.834 65.5337 158.358 68.4245L149.433 73.9356C147.512 75.0173 145.311 75.4556 142.831 75.2504C140.369 75.0639 137.851 74.2713 135.277 72.8725C135.166 72.8166 137.003 70.5879 140.789 66.1864L146.86 59.1367L147.531 58.4653C147.811 58.372 148.212 58.5585 148.734 59.0248C150.095 60.2557 152.38 61.2721 155.588 62.0741Z" fill="#B4B4B0"/>
<path d="M44.5261 43.918C50.1771 41.4376 55.9866 41.2884 61.9547 43.4704L65.2837 59.1925L40.5256 71.0541C37.0194 69.4874 34.7907 67.2214 33.8395 64.2561C33.1681 62.1113 33.1681 59.5469 33.8395 56.5629C35.145 50.7067 38.7072 46.4918 44.5261 43.918Z" fill="#DCDBD6"/>
<path d="M47.6019 42.8269C52.4323 41.5214 57.2161 41.7359 61.9532 43.4704L65.2823 59.1925C61.3098 58.577 57.1322 57.7471 52.7494 56.7027C43.9838 54.6325 38.5473 52.5623 36.4398 50.4922C39.0322 46.7062 42.7529 44.1511 47.6019 42.8269Z" fill="#B4B4B0"/>
<path d="M59.0458 49.6529C60.3327 51.9655 60.3887 54.5672 59.2137 57.4579C57.9641 60.4979 55.838 62.708 52.8353 64.0881C50.3176 65.2257 47.7345 65.6174 45.0862 65.263C42.6244 64.946 40.4703 63.6032 38.6239 61.2346C36.647 58.6982 36.1621 56.2177 37.1692 53.7932L55.5769 46.3518C56.957 46.874 58.1133 47.9743 59.0458 49.6529Z" fill="#DCDBD6"/>
<path d="M55.5769 46.3518C56.957 46.874 58.1133 47.9743 59.0458 49.6529C60.3327 51.9655 60.3887 54.5672 59.2137 57.4579C57.9641 60.5166 55.8373 62.7173 52.8346 64.0601L48.7502 58.6889L46.8199 56.311L55.5769 46.3518Z" fill="#B4B4B0"/>
<path d="M55.6312 53.2895C54.0833 55.8073 51.9292 57.4485 49.169 58.2132C46.1103 59.0524 43.3128 59.3135 40.7764 58.9965C38.1467 58.6421 35.9833 57.691 34.2861 56.143C32.0108 54.0728 29.0547 51.1821 25.4179 47.4707C20.9419 42.92 17.5382 39.2273 15.207 36.3925C13.7709 34.6394 12.6519 32.4013 11.8499 29.6784C10.992 26.7503 10.6657 23.7849 10.8708 20.7823C11.3744 13.3408 14.8246 7.75512 21.2217 4.02508C27.1711 0.5375 33.2976 -0.0499802 39.6014 2.26264C45.6068 4.46336 50.0921 8.59438 53.0575 14.6557C53.8595 16.2969 54.8573 21.146 56.0509 29.2028C57.2631 37.3343 57.8133 43.0506 57.7014 46.3517C57.6082 48.8881 56.9181 51.2007 55.6312 53.2895Z" fill="#DCDBD6"/>
<path d="M56.7782 34.4065C57.4682 40.0016 57.776 43.9831 57.7014 46.3517C57.6082 48.8881 56.9181 51.2007 55.6312 53.2895C54.0833 55.8073 51.9292 57.4485 49.169 58.2132L48.0219 58.717C47.7421 58.8289 47.537 58.773 47.4064 58.5492C43.0237 50.7161 40.4779 46.0163 39.7692 44.4497C39.2656 43.3493 39.0139 42.7152 39.0139 42.5473C38.9952 42.2116 39.3216 41.9505 39.993 41.764C44.6369 40.3466 48.3296 37.7356 51.0712 33.931C53.962 29.8839 55.1183 25.3425 54.5401 20.307C55.3607 24.4473 56.1068 29.1472 56.7782 34.4065Z" fill="#B4B4B0"/>
<path d="M100.084 196.103C101.371 195.861 102.788 196.821 104.336 198.985C105.884 201.092 106.742 203.209 106.91 205.335C106.07 206.398 103.208 206.566 98.3213 205.839C93.6401 205.111 90.9731 204.347 90.3204 203.545C89.7982 202.873 90.8519 201.549 93.4816 199.572C96.0739 197.595 98.2747 196.439 100.084 196.103Z" fill="#DBDCDC"/>
<path d="M108.506 52.5624C111.77 54.875 115.64 58.6516 120.116 63.8923C124.033 68.4616 127.362 72.0518 130.103 74.6628C134.337 78.7099 138.356 81.6846 142.161 83.5869C152.418 88.7157 159.533 93.6674 163.506 98.4418C168.485 104.447 169.325 110.881 166.023 117.745L11.0404 115.339C9.90277 114.779 8.61591 113.567 7.17985 111.702C5.66918 109.725 4.36367 107.487 3.26331 104.988C0.484435 98.591 0.0181803 92.968 1.86455 88.1189C3.44981 83.9599 6.62967 80.1646 11.4041 76.733C16.7567 72.9097 22.7341 70.6717 29.3363 70.0189L35.5468 69.5154C37.8034 69.3102 39.7151 68.9932 41.2817 68.5642C45.422 67.4266 49.5624 64.8342 53.7027 60.7871C59.3724 55.2293 65.07 51.2382 70.7956 48.8137C76.6145 46.3332 82.797 45.3168 89.3432 45.7644C96.4676 46.2679 102.855 48.5339 108.506 52.5624Z" fill="#EEEEEF"/>
<path d="M1.86455 88.1189L2.31215 87.084C3.05816 96.9127 7.15187 103.962 14.5933 108.233C17.8384 110.098 22.0161 111.665 27.1262 112.933C30.9682 113.884 36.2928 114.854 43.1001 115.843L11.0404 115.339C9.90277 114.779 8.61591 113.567 7.17985 111.702C5.66918 109.725 4.36367 107.487 3.26331 104.988C0.484435 98.591 0.0181803 92.968 1.86455 88.1189Z" fill="#C8C9CA"/>
<path d="M89.3422 45.7645C96.4666 46.2681 102.854 48.5341 108.505 52.5625C111.769 54.8752 115.64 58.6516 120.116 63.8923C122.317 66.4661 124.582 68.9747 126.913 71.4179C130.251 74.9427 133.021 77.5818 135.222 79.3349C128.881 81.1626 122.847 85.9743 117.122 93.7701C112.478 100.074 108.412 107.748 104.924 116.794L90.8249 116.57C90.3773 103.552 85.9292 91.644 77.4807 80.8455C73.7134 76.0338 69.5544 72.0893 65.0037 69.012C60.4344 65.8974 55.9397 63.9764 51.5197 63.2491C56.3874 58.083 62.4673 53.7934 69.7595 50.3805C77.1823 46.9115 83.7099 45.3729 89.3422 45.7645Z" fill="#C8C9CA"/>
<path d="M152.567 89.3778C159.169 93.5555 163.635 97.7704 165.967 102.023C168.671 106.946 168.69 112.187 166.023 117.745L150.86 112.206C152.837 110.583 154.394 108.42 155.532 105.715C157.789 100.288 156.8 94.8423 152.567 89.3778Z" fill="#C8C9CA"/>
<path d="M112.394 102.079C105.045 105.846 96.4291 107.329 86.5445 106.527C76.6599 105.743 68.3978 102.908 61.7584 98.0221C55.1189 93.1358 52.0416 87.6247 52.5265 81.4888C53.0114 75.3715 56.928 70.4199 64.2761 66.6339C71.6057 62.8666 80.2127 61.3745 90.0973 62.1579C99.9819 62.9598 108.244 65.804 114.883 70.6903C121.523 75.5767 124.6 81.0878 124.115 87.2237C123.63 93.3596 119.723 98.3112 112.394 102.079Z" fill="#0D131A"/>
<path d="M97.8749 192.663C99.6466 190.742 102.37 189.501 106.044 188.942C109.718 188.364 117.14 189.501 128.312 192.355C133.888 193.791 139.101 195.274 143.95 196.803C144.622 198.929 143.857 201.363 141.656 204.104C139.586 206.697 136.872 208.823 133.515 210.483C128.722 212.851 123.398 213.905 117.541 213.644C111.443 213.383 106.016 211.723 101.26 208.664C98.7794 207.061 97.1195 204.608 96.2803 201.307C95.5902 198.528 95.6089 196.551 96.3362 195.376C96.4854 194.537 96.9983 193.632 97.8749 192.663Z" fill="#3396CD"/>
<path d="M97.8749 192.663C99.6466 190.742 102.37 189.501 106.044 188.942C106.957 188.793 108.263 188.764 109.961 188.858C112.59 190.928 114.791 193.585 116.563 196.831C111.378 195.637 107.126 195.702 103.806 197.026C100.971 198.183 98.7052 200.337 97.0081 203.489C96.3367 201.903 95.9543 200.262 95.8611 198.565C95.7865 197.054 95.9446 195.992 96.3362 195.376C96.4854 194.537 96.9983 193.632 97.8749 192.663Z" fill="#2880AE"/>
<path d="M125.122 213.001C121.168 213.691 117.568 213.793 114.323 213.308C119.732 209.634 120.552 204.291 116.785 197.279L130.129 196.691C135.24 196.523 139.688 196.514 143.474 196.663L143.95 196.803C144.622 198.929 143.857 201.363 141.656 204.104C139.586 206.697 136.872 208.823 133.515 210.483C131.296 211.565 128.497 212.404 125.122 213.001Z" fill="#2880AE"/>
<path d="M12.5508 162.337C8.89536 156.705 6.80654 149.301 6.28433 140.125C5.94863 134.567 6.12581 129.793 6.81587 125.802L19.1809 128.627L23.4052 163.82L12.5508 162.337Z" fill="#C8C9CA"/>
<path d="M151.503 163.456C153.741 168.641 154.413 174.283 153.518 180.381C152.604 186.536 150.925 191.059 148.482 193.949C147.195 195.479 145.228 196.812 142.579 197.95C138.271 199.815 133.692 200.747 128.843 200.747C120.059 200.766 112.217 197.549 105.316 191.096C107.871 186.191 110.827 180.997 114.184 175.514C120.898 164.547 126.279 157.61 130.326 154.7C134.392 151.791 138.187 150.924 141.712 152.098C143.484 152.677 144.845 153.544 145.796 154.7C148.351 157.666 150.254 160.584 151.503 163.456Z" fill="#3396CD"/>
<path d="M145.796 154.7C148.351 157.666 150.254 160.584 151.503 163.456C153.741 168.641 154.413 174.283 153.518 180.381C152.585 186.685 151.139 191.068 149.181 193.53C148.379 194.537 147.363 195.404 146.132 196.132L142.579 197.95C139.875 199.274 137.236 200.179 134.662 200.664L125.374 200.971C127.78 199.442 128.88 197.605 128.675 195.46C128.489 193.502 127.304 191.73 125.122 190.145C122.903 188.541 120.301 187.618 117.317 187.375C113.979 187.114 110.827 187.814 107.862 189.473C112.394 181.323 116.058 174.917 118.856 170.254C124.003 161.694 127.827 156.509 130.326 154.7C134.392 151.791 138.187 150.924 141.712 152.098C143.484 152.677 144.845 153.544 145.796 154.7Z" fill="#2880AE"/>
<path d="M102.63 208.385C104.607 206.874 106.985 206.231 109.764 206.454C113.158 206.715 116.319 208.31 119.248 211.238C120.367 212.357 119.331 214.129 116.142 216.553C113.196 218.791 111.088 219.948 109.82 220.022C108.925 220.078 107.451 218.521 105.4 215.351C103.311 212.124 102.388 209.802 102.63 208.385Z" fill="white"/>
<path d="M119.248 211.238C120.161 212.152 119.266 213.775 116.562 216.106C114.324 218.045 112.058 219.584 109.764 220.722C111.088 219.025 112.17 216.908 113.009 214.371C113.811 211.854 114.166 209.588 114.072 207.573C115.881 208.375 117.606 209.597 119.248 211.238Z" fill="#DBDCDC"/>
<path d="M127.754 207.881C131.968 206.333 135.699 206.165 138.944 207.377C140.771 208.067 142.478 210.669 144.063 215.183C144.716 217.066 145.089 218.67 145.182 219.994C145.275 221.449 144.986 222.242 144.315 222.372C141.834 222.876 137.638 221.747 131.726 218.987C125.627 216.171 122.466 213.663 122.242 211.462C122.205 211.107 122.709 210.576 123.753 209.867C124.872 209.103 126.206 208.44 127.754 207.881Z" fill="white"/>
<path d="M138.944 207.377C140.51 207.974 142.058 210.147 143.587 213.896C145.061 217.57 145.536 220.153 145.014 221.645C143.914 218.717 142.384 215.835 140.426 213C138.281 209.923 136.202 207.797 134.188 206.622C135.959 206.585 137.545 206.837 138.944 207.377Z" fill="#DBDCDC"/>
<path d="M108.422 95.0568C113.588 93.024 117.439 90.4596 119.975 87.3636C121.355 85.6851 123.286 85.2375 125.766 86.0208C128.041 86.7482 129.711 88.0537 130.774 89.9374C131.632 91.4853 132.154 93.9751 132.34 97.4068C132.471 100.092 132.396 102.638 132.117 105.044C131.967 106.275 132.583 115.488 133.963 132.684C135.045 150.121 134.784 160.603 133.18 164.128C130.867 169.182 127.585 174.134 123.332 178.983C118.912 184.018 114.697 187.487 110.688 189.389C104.048 192.523 97.4086 194.714 90.7691 195.964C80.1758 197.959 70.1047 197.484 60.5558 194.537C54.9235 193.213 49.0207 190.695 42.8475 186.984C30.5011 179.561 22.9478 169.919 20.1875 158.057C17.446 146.196 20.2994 130.632 28.748 111.366C32.9816 101.724 37.4856 93.2664 42.26 85.9928C42.4092 84.8738 43.4536 83.2513 45.3932 81.1251C47.538 78.7566 49.3284 77.6749 50.7645 77.88C52.0887 78.0479 53.963 79.3254 56.3875 81.7126L63.1575 88.6225C65.5448 90.8792 69.1815 92.9867 74.0679 94.9449C79.98 97.3135 85.6683 98.4512 91.1328 98.3579C97.2874 98.2647 103.05 97.1643 108.422 95.0568Z" fill="#F0E9A5"/>
<path d="M45.7569 80.7055C46.4469 80.407 47.137 80.2299 47.8271 80.1739L50.6805 80.3977C48.9461 81.9643 47.6499 83.6615 46.792 85.4892C46.046 87.1304 45.5611 89.0794 45.3373 91.3361C44.125 89.3591 43.1552 87.3729 42.4278 85.3773C42.6703 84.7992 43.0899 84.0811 43.6867 83.2232C44.3208 82.328 45.0109 81.4888 45.7569 80.7055Z" fill="#C9C48B"/>
<path d="M34.2037 156.77C29.9701 156.267 25.2516 156.453 20.0482 157.33C19.3582 154.085 19.0971 150.532 19.2649 146.671C21.5776 147.679 23.9834 148.275 26.4826 148.462C28.9444 148.648 31.3782 148.415 33.7841 147.762C33.8214 150.765 33.9613 153.768 34.2037 156.77Z" fill="#C9C48B"/>
<path d="M102.939 100.121C102.883 99.6543 102.463 99.1321 101.68 98.5539C101.083 98.125 100.459 97.7706 99.8057 97.4909C104.226 96.6516 108.236 95.3274 111.835 93.5184C115.36 91.728 118.073 89.6762 119.975 87.3636C121.355 85.6851 123.286 85.2375 125.766 86.0208C128.041 86.7482 129.711 88.0537 130.774 89.9374C131.632 91.4853 132.154 93.9751 132.34 97.4068C132.471 100.092 132.396 102.638 132.117 105.044C131.967 106.275 132.583 115.488 133.963 132.684C135.045 150.121 134.784 160.603 133.18 164.128C130.867 169.182 127.585 174.134 123.332 178.983C118.912 184.018 114.697 187.487 110.688 189.389C103.619 192.728 96.7937 195.059 90.2102 196.383C79.2626 198.547 69.3774 197.931 60.5558 194.537C57.8889 193.903 54.7189 192.784 51.0449 191.18C53.9356 190.471 56.4441 188.783 58.5702 186.117C59.4095 185.053 60.5378 183.16 61.9552 180.438C71.5041 177.994 79.7475 172.259 86.6854 163.233C86.8532 163.028 86.9931 162.599 87.105 161.946L87.2169 161.051C87.9256 161.069 88.3452 160.976 88.4758 160.771C94.2573 152.453 98.4256 142.606 100.981 131.229C101.055 130.931 101.009 130.474 100.841 129.858L100.589 128.991C101.223 128.711 101.559 128.478 101.596 128.292C103.461 118.668 103.909 109.278 102.939 100.121Z" fill="#C9C48B"/>
<path d="M22.7897 221.225C15.3856 221.356 9.93974 218.484 6.45216 212.609C2.34912 205.69 1.66839 195.348 4.40996 181.584L60.5563 175.57C62.3467 180.997 62.412 188.373 60.7522 197.698C59.1109 206.874 56.761 212.842 53.7024 215.602C50.8489 218.195 45.9812 219.873 39.0993 220.638L22.7897 221.225Z" fill="#3396CD"/>
<path d="M39.0982 220.638L22.7887 221.225C30.0995 214.81 30.1648 207.629 22.9845 199.684L60.5553 175.57C62.3457 180.997 62.411 188.373 60.7511 197.698C59.1099 206.874 56.76 212.842 53.7013 215.602C50.8479 218.195 45.9802 219.873 39.0982 220.638Z" fill="#2880AE"/>
<path d="M59.4371 216.274C59.8101 220.395 59.4091 222.829 58.2341 223.575C57.0219 224.359 54.7465 224.368 51.4082 223.603C47.9952 222.82 45.3375 221.636 43.4352 220.05C42.8944 219.603 42.7825 218.698 43.0995 217.337C43.4352 215.882 44.1346 214.502 45.1977 213.196C48.1071 209.653 52.0889 208.487 57.1431 209.699C58.2994 209.979 59.0641 212.171 59.4371 216.274Z" fill="white"/>
<path d="M7.7393 214.875C8.1123 212.823 9.75352 211.583 12.6629 211.154C14.6399 210.837 18.1741 210.874 23.2656 211.266C27.667 211.602 31.6582 212.572 35.239 214.175C39.0063 215.873 40.834 217.654 40.7221 219.519C40.6102 221.477 37.0294 223.575 29.9796 225.813C22.8739 228.088 16.6914 229.068 11.432 228.751C9.54836 228.639 8.28948 226.988 7.65537 223.799C7.11452 221.039 7.14249 218.064 7.7393 214.875Z" fill="white"/>
<path d="M59.4371 216.274C59.8101 220.395 59.4091 222.829 58.2341 223.575C57.0219 224.359 54.7465 224.368 51.4082 223.603C47.9952 222.82 45.3375 221.636 43.4352 220.05C42.8944 219.603 42.7825 218.698 43.0995 217.337C43.4352 215.882 44.1346 214.502 45.1977 213.196C48.1071 209.653 52.0889 208.487 57.1431 209.699C58.2994 209.979 59.0641 212.171 59.4371 216.274Z" fill="#DBDCDC"/>
<path d="M30.5661 212.525C33.5688 213.345 35.9933 214.362 37.8396 215.574C39.8352 216.88 40.7957 218.194 40.7211 219.519C40.6278 221.402 37.2522 223.444 30.5941 225.645C23.9359 227.846 17.9213 228.9 12.55 228.806C17.4364 227.426 21.7166 225.3 25.3907 222.428C29.7175 219.034 31.4426 215.733 30.5661 212.525Z" fill="#DBDCDC"/>
<path d="M29.4746 152.993L36.0488 152.434C43.8818 152.695 50.083 155.39 54.6523 160.519C58.6061 164.976 60.7229 170.357 61.0027 176.661C61.2265 181.342 59.4547 186.181 55.6874 191.18C51.8082 196.346 47.1363 199.805 41.6718 201.559C39.5084 202.249 35.9835 202.416 31.0971 202.062C27.2179 201.764 23.3107 201.223 19.3755 200.44C12.7174 199.115 8.23202 195.301 5.91939 188.998C4.50198 185.1 3.96113 180.316 4.29683 174.646C4.61388 169.704 6.48822 165.2 9.91986 161.134C14.5824 155.577 21.1006 152.863 29.4746 152.993Z" fill="#3396CD"/>
<path d="M31.0971 202.062C27.2179 201.764 23.3107 201.223 19.3755 200.44C14.6197 199.507 10.9556 197.26 8.38192 193.698C11.627 195.581 15.1426 196.458 18.9286 196.327C23.4419 196.159 27.6476 194.5 31.5454 191.348C37.1218 186.853 40.9731 181.398 43.0992 174.982C45.8595 166.646 44.2928 159.185 38.3994 152.602C45.4865 153.348 51.0908 156.211 55.2125 161.19C58.812 165.555 60.7416 170.711 61.0027 176.661C61.2265 181.342 59.4547 186.181 55.6874 191.18C51.8082 196.346 47.1363 199.805 41.6718 201.559C39.5084 202.249 35.9835 202.416 31.0971 202.062Z" fill="#2880AE"/>
<path d="M5.36052 102.051C5.82678 98.4326 7.18824 95.0663 9.44491 91.9517C11.7762 88.7439 14.7789 86.2074 18.4529 84.3424C22.3881 82.3282 26.7336 81.3025 31.4894 81.2652C38.5205 81.1906 42.8754 84.1932 44.5539 90.2732C45.1693 92.4739 45.3558 94.8705 45.1134 97.4628C44.9082 99.6449 44.4886 101.37 43.8545 102.638C38.7816 106.555 33.4477 109.912 27.8526 112.709C16.6439 118.286 9.69669 118.258 7.01107 112.625C5.44445 109.306 4.89427 105.781 5.36052 102.051Z" fill="#3396CD"/>
<path d="M27.2372 81.6009L31.4894 81.2652C38.5205 81.1906 42.8754 84.1932 44.5539 90.2732C45.1693 92.4739 45.3558 94.8705 45.1134 97.4628C44.9082 99.6449 44.4886 101.37 43.8545 102.638C41.6165 104.261 38.9495 105.753 35.8535 107.114C29.6244 109.819 24.3184 110.499 19.9356 109.156C25.0831 104.046 28.5054 98.8336 30.2025 93.5183C32.0489 87.7181 31.0604 83.7456 27.2372 81.6009Z" fill="#2880AE"/>
<path d="M18.3693 100.428C24.3001 97.4442 29.5501 96.4184 34.1194 97.3509C39.4906 98.4513 43.1368 101.221 45.0577 105.66C45.8597 107.506 46.2234 109.408 46.1488 111.367C46.0742 113.269 45.5986 114.929 44.722 116.346L12.4945 130.697C8.03712 128.832 5.51002 125.653 4.91321 121.158C4.40966 117.465 5.18364 113.688 7.23516 109.828C9.10018 106.359 12.8116 103.226 18.3693 100.428Z" fill="#3396CD"/>
<path d="M30.5377 97.0711L34.1194 97.3509C39.4906 98.4513 43.1368 101.221 45.0577 105.66C45.8597 107.506 46.2234 109.408 46.1488 111.367C46.0742 113.269 45.5986 114.929 44.722 116.346L29.6705 121.717C30.0808 121.363 30.7149 120.449 31.5728 118.976C32.7291 116.999 33.6057 114.975 34.2025 112.905C35.9929 106.601 34.7713 101.323 30.5377 97.0711Z" fill="#2880AE"/>
<path d="M16.0754 150.14L12.7183 142.251L24.9995 146.531L23.7686 150.504C22.7055 153.227 21.5865 154.765 20.4115 155.12C19.2366 155.474 17.7912 153.814 16.0754 150.14Z" fill="white"/>
<path d="M20.9143 145.104L24.9995 146.531L23.7686 150.504C22.7055 153.227 21.5865 154.765 20.4115 155.12C20.3742 155.138 20.5133 154.038 20.8304 151.818C21.2034 149.095 21.2313 146.857 20.9143 145.104Z" fill="#DBDCDC"/>
<path d="M51.6034 142.335C51.5848 144.125 51.4263 145.729 51.1279 147.147C50.8481 148.527 50.5404 149.273 50.2047 149.385C49.6265 149.571 47.8641 148.713 44.9173 146.811C42.1385 145.02 40.5998 143.901 40.3014 143.454L48.6101 132.068C50.6057 134.157 51.6034 137.579 51.6034 142.335Z" fill="white"/>
<path d="M44.2455 138.055L48.6101 132.068C50.3259 133.877 51.3886 136.441 51.7989 139.761C52.2092 143.249 51.7616 146.587 50.4561 149.776C50.2322 147.706 49.4862 145.524 48.218 143.23C47.0617 141.123 45.7376 139.397 44.2455 138.055Z" fill="#DBDCDC"/>
<path d="M39.4625 143.538C39.7236 144.918 39.3693 147.529 38.3995 151.371C37.3364 155.474 36.2734 157.432 35.2103 157.246C33.8675 157.003 32.2636 155.866 30.3985 153.833C28.2724 151.539 26.6032 148.881 25.391 145.86L39.4625 143.538Z" fill="white"/>
<path d="M39.4625 143.538C39.7236 144.918 39.3693 147.529 38.3995 151.371C37.3364 155.474 36.2734 157.432 35.2103 157.246L34.8739 153.973C34.5942 151.007 33.8668 147.902 32.6919 144.657L39.4625 143.538Z" fill="#DBDCDC"/>
<path d="M45.9806 118.22C47.9389 119.861 49.1884 121.615 49.7293 123.48C50.8856 127.396 49.9997 131.872 47.0716 136.908C43.957 142.26 39.882 145.552 34.8464 146.783C29.1954 148.163 23.7589 147.939 18.5369 146.112C12.9418 144.135 9.83654 140.936 9.22109 136.516C8.58698 132.021 9.21176 128.012 11.0954 124.487C12.8485 121.204 15.5808 118.528 19.2922 116.458C25.5773 112.952 32.0769 112.252 38.791 114.36C41.5885 115.255 43.985 116.542 45.9806 118.22Z" fill="#3396CD"/>
<path d="M49.7293 123.48C50.8856 127.396 49.9997 131.872 47.0716 136.908C43.957 142.26 39.882 145.552 34.8464 146.783L33.5867 147.062C37.9508 142.885 40.394 137.476 40.9162 130.837C41.4571 124.03 39.7413 118.295 35.7688 113.632C39.2564 114.248 42.315 115.506 44.9447 117.409C47.4811 119.255 49.0765 121.279 49.7293 123.48Z" fill="#2880AE"/>
<path d="M156.064 103.198C160.894 105.809 164.139 110.21 165.799 116.402C167.198 121.624 167.17 125.988 165.715 129.494C164.54 132.366 162.19 135.052 158.665 137.551C156.036 139.416 150.319 136.264 141.517 128.096C138.756 125.54 135.866 122.64 132.844 119.395L129.096 115.283C128.629 112.504 129.459 109.697 131.585 106.862C133.861 103.804 136.845 101.939 140.537 101.267C146.487 100.186 151.662 100.829 156.064 103.198Z" fill="#3396CD"/>
<path d="M154.972 103.058C157.452 104.587 159.616 106.405 161.462 108.513C163.625 111.012 165.072 113.642 165.799 116.402C167.198 121.624 167.17 125.988 165.715 129.494C164.54 132.366 162.19 135.052 158.665 137.551C157.378 138.465 155.121 136.134 151.894 130.557L147.446 121.941L149.405 121.242C150.934 120.57 152.24 119.666 153.321 118.528C156.772 114.91 157.322 109.753 154.972 103.058Z" fill="#2880AE"/>
<path d="M149.154 117.325C153.052 120.813 155.728 125.037 157.183 129.998C158.582 134.717 158.609 138.615 157.267 141.692C155.719 145.273 152.399 147.604 147.307 148.686C142.794 149.674 137.544 146.578 131.557 139.398C129.692 137.16 127.865 134.642 126.074 131.845L123.948 128.348C123.165 125.793 123.482 122.93 124.899 119.759C126.727 115.675 130 113.26 134.719 112.514C139.847 111.693 144.659 113.297 149.154 117.325Z" fill="#3396CD"/>
<path d="M141.572 136.88C143.922 136.152 146.001 134.791 147.811 132.795C151.429 128.804 151.886 123.647 149.181 117.325C151.065 119.022 152.725 121.027 154.161 123.34C155.504 125.522 156.511 127.742 157.183 129.998C158.582 134.717 158.609 138.615 157.267 141.692C155.719 145.273 152.399 147.604 147.307 148.686C145.909 148.984 144.537 147.109 143.195 143.062L141.572 136.88Z" fill="#2880AE"/>
<path d="M119.64 147.902L117.066 148.573C115.182 148.984 113.839 149.096 113.037 148.909C112.142 148.723 112.552 146.802 114.268 143.146C115.928 139.621 117.318 137.365 118.437 136.376L119.64 147.902Z" fill="white"/>
<path d="M113.036 148.909L115.274 147.287C117.102 145.944 118.398 144.638 119.163 143.37L119.638 147.902L117.065 148.573C115.181 148.984 113.838 149.096 113.036 148.909Z" fill="#DBDCDC"/>
<path d="M130.718 161.89L124.787 162.617C124.097 162.617 124.079 161.628 124.731 159.652C125.328 157.768 125.944 156.5 126.578 155.847L139.698 159.232C137.292 160.351 134.299 161.237 130.718 161.89Z" fill="#DBDCDC"/>
<path d="M119.807 147.65L127.417 156.658C125.141 157.423 122.754 157.926 120.255 158.169C117.756 158.411 116.339 158.271 116.003 157.749C115.275 156.686 115.686 154.681 117.234 151.734L119.807 147.65Z" fill="white"/>
<path d="M116.086 157.833C119.052 156.64 121.756 154.98 124.199 152.854L127.417 156.658C125.216 157.385 122.894 157.88 120.451 158.141C118.026 158.383 116.571 158.281 116.086 157.833Z" fill="#DBDCDC"/>
<path d="M146.385 139.062C148.306 143.184 149.061 146.942 148.651 150.336C148.203 153.954 146.469 156.546 143.447 158.113C139.922 159.941 136.929 160.724 134.467 160.463C131.297 160.127 127.716 158.15 123.725 154.532C119.473 150.69 117.44 145.879 117.626 140.097C117.701 137.84 118.111 135.742 118.857 133.803C119.566 132.012 120.396 130.744 121.347 129.998C125.357 126.846 129.87 126.165 134.887 127.956C139.941 129.746 143.774 133.448 146.385 139.062Z" fill="#3396CD"/>
<path d="M146.383 139.062C148.304 143.183 149.059 146.941 148.649 150.336C148.202 153.954 146.467 156.546 143.446 158.113C139.921 159.941 136.927 160.724 134.466 160.463C131.295 160.127 127.714 158.15 123.723 154.532L122.8 153.637C125.523 155.166 128.302 155.838 131.137 155.651C133.804 155.464 136.265 154.551 138.522 152.909C140.741 151.305 142.495 149.207 143.781 146.615C145.124 143.929 145.796 141.029 145.796 137.915L146.383 139.062Z" fill="#2880AE"/>
<path d="M108.113 93.0984C102.015 95.5975 94.9089 96.4461 86.7961 95.6441C82.1522 95.1779 77.6948 93.9936 73.4239 92.0913C68.2205 89.7786 64.1921 86.7387 61.3386 82.9713C59.3244 80.3417 58.6716 77.2737 59.3803 73.7675C60.089 70.1307 61.9727 67.9113 65.0313 67.1093C67.661 66.4193 77.1912 66.7923 93.622 68.2284L117.513 70.5783C120.926 81.6565 117.793 89.1632 108.113 93.0984Z" fill="#F0E9A5"/>
<path d="M112.086 71.5576C114.156 70.9608 115.965 70.6342 117.513 70.5783C120.926 81.6565 117.793 89.1632 108.113 93.0984C102.015 95.5975 94.9089 96.4461 86.7961 95.6441C82.749 95.2152 78.8792 94.2735 75.1865 92.8188L81.7607 93.7979C84.2971 94.0031 86.7776 93.8352 89.2021 93.2944C94.6666 92.0821 98.723 90.0772 101.371 87.2797C104.337 84.1464 104.551 80.8733 102.015 77.4604C104.607 74.7188 107.964 72.7512 112.086 71.5576Z" fill="#C9C48B"/>
<path d="M93.455 43.1349C94.8724 41.4377 97.8844 41.3445 102.491 42.8552C106.184 44.0674 108.823 45.3263 110.408 46.6318C113.112 46.3521 115.611 46.408 117.905 46.7997C119.92 47.1354 121.262 47.6296 121.934 48.2824C122.531 48.8605 122.419 50.5857 121.598 53.4578C120.796 56.2553 119.724 58.8011 118.381 61.095C119.351 63.4823 119.873 66.2238 119.948 69.3198C120.022 72.5649 119.537 74.7283 118.493 75.81L115.667 73.8797C114.362 73.2083 113.01 72.9192 111.611 73.0125C112.432 75.2878 112.217 76.8731 110.968 77.7683C110.11 78.3837 108.636 78.6915 106.547 78.6915C105.447 78.6915 103.013 78.048 99.2459 76.7612C95.0682 75.3251 92.0935 74.4765 90.3218 74.2154L81.2018 73.7958L71.8581 74.0196C66.636 74.0383 65.2466 71.9028 67.6898 67.6133C65.0228 67.3522 62.9713 67.9303 61.5352 69.3477C60.6586 70.2056 60.1551 71.0915 60.0245 72.0054C59.3531 69.6555 59.2506 66.9419 59.7168 63.8646C60.2017 60.5635 61.2088 58.0644 62.7381 56.3672C62.0294 54.3716 61.4886 52.2362 61.1156 49.9609C60.3882 45.3916 60.8545 42.3796 62.5143 40.9249C63.0365 40.4586 64.5099 40.4493 66.9344 40.8969C69.4709 41.3818 71.7275 42.1465 73.7044 43.1909C76.9682 41.6056 80.8475 40.757 85.3422 40.6451C89.9861 40.5519 92.6903 41.3818 93.455 43.1349Z" fill="#3396CD"/>
<path d="M63.1852 48.3663C62.3646 43.741 62.1413 41.2606 62.5143 40.9249C63.0365 40.4586 64.5099 40.4493 66.9344 40.8969C69.4709 41.3818 71.7275 42.1465 73.7044 43.1909C74.2453 42.9298 75.774 42.4915 78.2918 41.876C73.536 44.0021 69.2651 47.9187 65.4791 53.6256C64.7518 54.7073 63.9871 52.9542 63.1852 48.3663Z" fill="#2880AE"/>
<path d="M87.9158 40.8127C89.8181 40.7754 91.1423 40.9246 91.8883 41.2603C92.5224 41.5587 93.0447 42.1838 93.455 43.1349C94.8724 41.4377 97.8844 41.3445 102.491 42.8552C106.184 44.0674 108.823 45.3263 110.408 46.6318C113.112 46.3521 115.611 46.408 117.905 46.7997C119.92 47.1354 121.262 47.6296 121.934 48.2824C122.531 48.8605 122.419 50.5857 121.598 53.4578C120.796 56.2553 119.724 58.8011 118.381 61.095C119.351 63.4823 119.873 66.2238 119.948 69.3198C120.022 72.5649 119.537 74.7283 118.493 75.81L115.667 73.8797C114.362 73.2083 113.01 72.9192 111.611 73.0125C112.432 75.2878 112.217 76.8731 110.968 77.7683C110.11 78.3837 108.636 78.6915 106.547 78.6915C105.466 78.6915 103.172 78.0385 99.6654 76.7329C95.8048 75.2969 92.9793 74.439 91.1889 74.1592C91.5805 72.7978 91.6831 71.4736 91.4966 70.1867L91.077 68.6481L91.8883 68.5642L93.2031 68.76C94.2102 69.2822 95.0588 68.4989 95.7489 66.4101C96.4203 64.3772 96.4296 63.0064 95.7768 62.2977C94.9935 61.4398 93.6414 60.8057 91.7204 60.3954C89.3705 59.8918 87.2817 60.1343 85.454 61.1228C84.5028 61.645 83.9992 61.7569 83.9433 61.4585C83.906 61.2533 84.1484 60.6938 84.6706 59.7799C86.2746 57.0011 87.1231 55.1827 87.2164 54.3248C88.2981 55.1267 89.6316 55.6303 91.2169 55.8354C93.0446 56.0779 94.5273 55.7702 95.6649 54.9122C95.3852 56.4602 95.4411 57.2995 95.8328 57.43C96.1312 57.5419 96.8212 57.1969 97.9029 56.3949C101.465 53.8026 104.356 52.3292 106.575 51.9748C107.843 51.7697 108.086 51.0144 107.303 49.7088C106.557 48.4593 105.26 47.2843 103.414 46.184C101.381 44.9531 99.4789 44.3376 97.7071 44.3376C95.5624 44.3376 93.9771 45.2794 92.9513 47.1631C92.8208 45.6151 92.4105 44.3469 91.7204 43.3585C90.8998 42.2208 89.6316 41.3722 87.9158 40.8127Z" fill="#2880AE"/>
<path d="M70.9074 54.8842C71.411 54.0636 71.9052 53.4015 72.3901 52.898C74.423 53.6626 76.633 55.0241 79.0203 56.9824L81.9856 59.696L81.2583 60.7031L75.2156 60.0317C71.9145 59.7146 69.891 59.6867 69.145 59.9478C69.2942 58.2506 69.8817 56.5627 70.9074 54.8842Z" fill="white"/>
<path d="M112.533 62.9134L105.176 62.9974L99.161 63.2212L98.7973 62.298L98.6015 61.9623L102.098 59.2207C104.84 57.337 107.283 56.2646 109.428 56.0035L110.743 58.1576C111.657 59.8921 112.253 61.4774 112.533 62.9134Z" fill="white"/>
<path d="M152.315 32.8676C155.355 30.6856 158.759 29.8556 162.526 30.3778C166.312 30.9187 169.371 32.6345 171.702 35.5253C174.033 38.4161 174.956 41.6519 174.471 45.2327C173.987 48.8135 172.233 51.6857 169.212 53.8491C166.172 56.0312 162.759 56.8611 158.973 56.3389C155.206 55.8167 152.157 54.1102 149.825 51.2194C147.494 48.31 146.571 45.0649 147.056 41.484C147.541 37.9032 149.294 35.0311 152.315 32.8676Z" fill="#0D131A"/>
<path d="M44.1346 13.3129C46.7456 16.2969 47.8646 19.7006 47.4916 23.5238C47.1373 27.3658 45.4121 30.5083 42.3162 32.9515C39.2016 35.4133 35.6208 36.4577 31.5737 36.0847C27.5266 35.7117 24.1975 34.0332 21.5865 31.0492C18.9755 28.0652 17.8472 24.6522 18.2015 20.8102C18.5559 16.9683 20.2903 13.8257 23.4049 11.3826C26.5195 8.9394 30.1003 7.90432 34.1474 8.27732C38.1945 8.65032 41.5236 10.3288 44.1346 13.3129Z" fill="#0D131A"/>
<path d="M81.1738 59.0804C80.9313 59.6772 80.5396 60.1994 79.9988 60.647L77.3691 60.1155L74.7394 59.7518C74.4037 59.1177 74.2359 58.437 74.2359 57.7096C74.2359 57.2434 74.3851 56.7025 74.6835 56.087C74.9446 55.5462 75.2523 55.0893 75.6067 54.7163C76.4273 54.8841 77.3878 55.4716 78.4881 56.4787L81.1738 59.0804Z" fill="#0D131A"/>
<path d="M107.693 60.5635C107.693 61.5333 107.339 62.3912 106.63 63.1372L101.091 63.0812C100.643 62.7455 100.354 62.3912 100.224 62.0182C100.093 61.7011 100.028 61.2162 100.028 60.5635L102.154 59.1088C103.721 58.1763 104.942 57.5981 105.819 57.3743C106.397 57.71 106.854 58.1483 107.19 58.6891C107.525 59.2673 107.693 59.8921 107.693 60.5635Z" fill="#0D131A"/>
<path d="M19.9357 63.4448L20.775 64.5078C18.8167 66.7086 16.9704 68.9652 15.2359 71.2779C13.2963 73.8702 12.1493 75.6793 11.7949 76.7051L10.8438 76.3694C11.2914 75.0265 12.4104 73.0403 14.2008 70.4106C16.1964 67.4639 18.108 65.1419 19.9357 63.4448Z" fill="#0D131A"/>
<path d="M123.024 43.4145C122.446 43.9553 122.073 44.347 121.905 44.5894C113.382 39.9269 104.775 37.0082 96.0838 35.8332C87.4674 34.6582 79.5131 35.283 72.2209 37.7075L72.3048 36.5605C79.7835 33.6884 88.1015 32.9144 97.2588 34.2386C106.006 35.5255 114.594 38.5841 123.024 43.4145Z" fill="#0D131A"/>
<path d="M159.924 84.594C161.006 87.4661 162.078 91.8209 163.141 97.6584L161.435 95.84C160.801 92.5762 159.849 89.2285 158.581 85.7969L159.924 84.594Z" fill="#0D131A"/>
<path d="M19.9359 41.876L20.859 43.4706C16.0286 46.6224 13.7347 48.8698 13.9771 50.2126C14.2382 51.7046 16.1126 55.388 19.6001 61.2628C22.9199 66.8392 24.9807 70.0004 25.7827 70.7465L24.244 70.9423C23.3675 70.1217 21.2693 66.9978 17.9496 61.5706C14.4061 55.7704 12.4944 52.0776 12.2147 50.4924C11.879 48.5341 14.4527 45.662 19.9359 41.876Z" fill="#0D131A"/>
<path d="M55.7435 27.3844V25.7619C60.9282 24.7361 64.4624 24.2046 66.3461 24.1673C68.323 24.13 70.2533 27.2912 72.137 33.6509C73.0881 36.8401 73.8435 40.0666 74.403 43.3303L73.3679 43.4422C73.1814 41.5586 72.2955 38.3601 70.7102 33.8467C68.7893 28.4195 67.1387 25.7152 65.7586 25.7339C63.3154 25.7712 59.9771 26.3214 55.7435 27.3844Z" fill="#0D131A"/>
<path d="M20.8582 50.6877C20.9328 50.035 22.3409 48.888 25.0825 47.2468L25.698 48.086C23.3294 49.4848 22.0518 50.408 21.8653 50.8556V50.9395C21.8653 52.0772 23.3574 55.0239 26.3414 59.7797C29.2135 64.349 31.5541 67.6314 33.3632 69.627L32.6078 70.3264C30.892 68.4614 28.5514 65.1883 25.5861 60.5071C22.2663 55.2477 20.6904 51.9746 20.8582 50.6877Z" fill="#0D131A"/>
<path d="M63.6054 34.7979C62.5983 33.1194 61.8336 32.3081 61.3114 32.3641C60.3602 32.4387 58.7097 32.8769 56.3598 33.6789V32.6998C58.7097 31.8605 60.3323 31.4036 61.2275 31.329C62.2905 31.2171 63.5121 32.4107 64.8922 34.9098C65.918 36.7935 66.7573 38.7797 67.41 40.8685L66.1511 40.337C65.4611 38.2855 64.6125 36.4391 63.6054 34.7979Z" fill="#0D131A"/>
<path d="M137.179 43.0788L136.899 43.7782L136.452 44.3937C131.92 41.8199 128.768 40.3186 126.996 39.8896C126.269 39.7218 125.187 40.6263 123.751 42.6032C122.613 44.1885 121.616 45.8763 120.758 47.6668L119.779 47.387L122.632 41.5961C124.087 39.1157 125.374 38.0153 126.493 38.295C127.22 38.4815 128.572 39.0038 130.549 39.8617C132.657 40.8128 134.867 41.8852 137.179 43.0788Z" fill="#0D131A"/>
<path d="M164.205 64.7596C166.331 67.2587 167.935 69.4315 169.016 71.2778C170.247 73.404 170.676 74.9146 170.303 75.8098C169.818 76.9475 167.524 79.2601 163.421 82.7477C161.183 84.65 158.013 87.2144 153.91 90.4409L152.986 89.7975C155.803 87.5221 158.824 84.9018 162.05 81.9364C166.023 78.2437 168.242 75.8658 168.709 74.8027C169.007 74.1313 168.625 72.947 167.562 71.2499C166.536 69.6273 164.979 67.6784 162.89 65.403L164.205 64.7596Z" fill="#0D131A"/>
<path d="M161.966 73.3478C161.873 74.3549 160.297 76.4531 157.239 79.6423C154.702 82.2906 152.007 84.8364 149.154 87.2795L148.091 86.8319C150.664 84.6871 153.369 82.1507 156.203 79.2226C159.243 76.0521 160.819 74.0659 160.931 73.2639C160.801 72.7044 159.411 71.259 156.763 68.9277L157.798 68.4242C160.633 71.0166 162.022 72.6578 161.966 73.3478Z" fill="#0D131A"/>
<path d="M134.159 49.7929L133.852 50.8C130.961 48.7112 129.226 47.5735 128.648 47.387L128.089 47.4709C126.97 48.0118 125.496 50.1659 123.669 53.9332C122.307 56.7494 121.039 59.8267 119.864 63.1651L118.885 62.8294C119.985 59.7521 121.123 56.9359 122.298 54.3808C124.405 49.8488 126.186 47.2285 127.641 46.5198L129.012 46.4079C129.515 46.5944 131.231 47.7227 134.159 49.7929Z" fill="#0D131A"/>
<path d="M121.123 64.8993C121.738 63.1276 122.661 61.6729 123.892 60.5352C125.571 58.9872 127.697 58.1387 130.271 57.9895L129.767 59.0805C127.454 59.3229 125.589 60.1902 124.172 61.6822C123.128 62.8012 122.354 64.2186 121.85 65.9344L121.123 64.8993Z" fill="#0D131A"/>
<path d="M151.224 74.5511C151.392 76.3415 151.215 78.048 150.693 79.6706C149.853 82.2816 148.194 84.2305 145.713 85.5174L144.986 84.7341C147.28 83.6151 148.837 81.9086 149.658 79.6146C150.198 78.0853 150.385 76.4254 150.217 74.635L149.993 73.6559L150.889 73.0964C151.075 73.6186 151.187 74.1035 151.224 74.5511Z" fill="#0D131A"/>
<path d="M125.374 69.7674L124.367 68.6204C124.032 66.8486 124.544 65.282 125.906 63.9205C127.044 62.7829 128.377 62.0835 129.906 61.8224V62.9414C128.135 63.5942 126.866 64.7225 126.102 66.3264C125.58 67.4081 125.337 68.5551 125.374 69.7674Z" fill="#0D131A"/>
<path d="M147.028 75.0265C147.177 77.4324 146.655 79.2508 145.461 80.4817C144.902 81.0972 144.1 81.5821 143.055 81.9364L140.118 82.5798L139.223 81.6007C140.23 81.5634 141.2 81.3396 142.132 80.9293C143.083 80.5376 143.876 80.0061 144.51 79.3347C145.592 78.1411 146.086 76.761 145.993 75.1944L147.028 75.0265Z" fill="#0D131A"/>
<path d="M180.038 36.7005C181.026 39.2928 181.464 41.792 181.352 44.1978C181.203 47.1259 180.55 49.8022 179.394 52.2267C178.145 54.8751 176.326 57.1224 173.939 58.9688C171.253 61.0576 166.917 63.967 160.93 67.6971L149.684 74.4111C147.614 75.5674 145.32 76.099 142.802 76.0057C140.117 75.9125 137.496 75.1292 134.941 73.6558C132.536 72.257 130.838 69.991 129.85 66.8578C128.973 64.0416 128.899 61.5518 129.626 59.3884C130.409 57.0571 132.33 52.3573 135.389 45.2889C138.634 37.7728 140.704 33.3807 141.6 32.1125C143.297 29.4828 145.525 27.366 148.286 25.7621C151.009 24.1582 154.03 23.1977 157.35 22.8807C160.334 22.5823 163.411 22.9553 166.581 23.9997C169.696 25.0255 172.298 26.5081 174.387 28.4478C176.942 30.7977 178.825 33.5486 180.038 36.7005ZM177.772 51.8351C178.965 49.4106 179.627 46.8741 179.758 44.2258C179.888 41.8386 179.553 39.526 178.751 37.2879C177.688 34.3412 175.879 31.6649 173.323 29.259C171.403 27.45 168.941 26.1072 165.938 25.2306C162.973 24.3727 160.035 24.1209 157.126 24.4753C153.825 24.8856 150.962 25.9207 148.537 27.5805C146.542 28.942 144.658 30.8723 142.886 33.3714C141.954 34.6769 139.828 38.9105 136.508 46.0722C133.263 53.1033 131.295 57.6539 130.605 59.7241C129.952 61.701 129.999 63.9111 130.745 66.3542C131.622 69.1518 133.207 71.1753 135.501 72.4249C138.019 73.7863 140.471 74.5603 142.858 74.7468C145.246 74.9333 147.353 74.5137 149.181 73.4879C151.307 72.313 155 70.0097 160.259 66.578C165.985 62.8107 170.283 59.836 173.156 57.6539C175.039 56.2179 176.578 54.2783 177.772 51.8351Z" fill="#0D131A"/>
<path d="M152.258 33.3992C150.934 34.3877 149.862 35.5813 149.041 36.9801C148.221 38.3788 147.708 39.8708 147.503 41.4561C147.279 43.0414 147.372 44.6173 147.782 46.1839C148.211 47.7319 148.92 49.168 149.908 50.4921C151.009 51.9282 152.333 53.0938 153.881 53.989C155.448 54.9029 157.154 55.481 159 55.7235L164.372 55.4437C166.125 54.9775 167.71 54.2035 169.127 53.1218C170.452 52.1147 171.524 50.9211 172.345 49.541C173.165 48.1422 173.687 46.6502 173.911 45.0649C174.377 41.6333 173.482 38.5187 171.226 35.7212C168.988 32.9423 166.05 31.3011 162.413 30.7975C160.567 30.5551 158.777 30.6577 157.042 31.1053C155.289 31.5342 153.694 32.2989 152.258 33.3992ZM148.174 36.4485C149.051 34.9565 150.207 33.6603 151.643 32.56C153.191 31.4037 154.897 30.5831 156.762 30.0982C158.646 29.6132 160.576 29.5013 162.553 29.7625C166.47 30.3033 169.64 32.0844 172.065 35.1057C174.489 38.1271 175.441 41.4934 174.918 45.2048C174.676 46.9393 174.116 48.5618 173.24 50.0725C172.345 51.5645 171.188 52.8514 169.771 53.9331C168.223 55.108 166.507 55.938 164.623 56.4229C162.74 56.9078 160.819 57.0104 158.861 56.7306C156.884 56.4695 155.056 55.8541 153.377 54.8842C151.699 53.9144 150.272 52.6555 149.097 51.1076C148.015 49.6715 147.251 48.1142 146.803 46.4357C146.337 44.7572 146.225 43.0507 146.468 41.3162C146.71 39.5818 147.279 37.9592 148.174 36.4485Z" fill="#0D131A"/>
<path d="M37.2807 69.7671C33.7745 67.6596 32.096 64.6943 32.2452 60.871C32.2825 59.6774 32.5063 58.4558 32.9166 57.2062L33.532 55.5557L34.3433 56.6747C33.7838 59.1925 33.6906 61.3559 34.0636 63.165C34.6044 65.7387 36.0964 67.8182 38.5396 69.4034L37.2807 69.7671Z" fill="#0D131A"/>
<path d="M61.1988 42.6591V43.7502C59.9306 43.3585 58.7649 43.0694 57.7019 42.8829L57.6459 41.8199L61.1988 42.6591Z" fill="#0D131A"/>
<path d="M58.905 50.5204C58.5507 49.7184 58.0191 48.9444 57.3104 48.1984L57.5063 46.9955C58.5507 47.8721 59.334 48.9071 59.8562 50.1007C60.4903 51.5741 60.6954 53.1594 60.4716 54.8565C59.6883 55.7704 59.1195 56.274 58.7652 56.3672C59.4179 53.7562 59.4645 51.8072 58.905 50.5204Z" fill="#0D131A"/>
<path d="M37.5038 60.6751C37.0749 59.9105 36.7299 59.0619 36.4688 58.1294L37.0562 58.2133L37.6157 58.3532C37.7463 58.7635 37.9608 59.2484 38.2592 59.8079C39.0238 61.0948 40.0403 62.2044 41.3085 63.137C42.5953 64.0508 43.8729 64.5917 45.1411 64.7595C46.2974 64.9087 47.463 64.8994 48.638 64.7315L47.3511 65.7107C46.6424 66.1583 46.1202 66.3541 45.7845 66.2982C42.1477 65.8133 39.3875 63.9389 37.5038 60.6751Z" fill="#0D131A"/>
<path d="M48.4426 6.62685C51.2402 9.34977 53.1238 12.11 54.0937 14.9075C54.8024 17.015 55.6882 21.9573 56.7513 29.7344C57.833 37.754 58.3179 43.3024 58.206 46.3797C58.1128 49.1399 57.3668 51.6484 55.968 53.905C54.3641 56.5161 52.182 58.2039 49.4218 58.9686C46.2513 59.8451 43.3045 60.0596 40.5816 59.612C37.9146 59.1644 35.7046 58.1386 33.9515 56.5347C31.1912 54.0356 28.0673 51.0516 24.5797 47.5826C19.9545 42.976 16.5415 39.302 14.3408 36.5604C12.3266 34.0799 10.9744 31.4129 10.2844 28.5595C9.55703 25.5568 9.52905 22.1997 10.2005 18.4884C10.704 15.6908 11.6552 13.0891 13.0539 10.6833C14.919 7.47543 17.4367 4.93901 20.6073 3.07399C23.3115 1.50737 26.3981 0.537564 29.8671 0.16456C33.2428 -0.208443 36.4226 0.0526593 39.4066 0.947868C42.5212 1.88038 45.5332 3.77337 48.4426 6.62685ZM52.9467 15.9146C51.9955 12.8933 50.0652 10.0865 47.1558 7.49408C44.4142 5.03226 41.4488 3.31644 38.2597 2.34663C35.4248 1.48872 32.5807 1.24627 29.7272 1.61927C26.8737 1.97363 24.1228 2.92479 21.4745 4.47275C18.4345 6.24452 16.0566 8.52916 14.3408 11.3267C13.0353 13.4528 12.1587 15.7934 11.7111 18.3485C11.0957 21.7615 11.2262 25.2024 12.1028 28.6714C12.8861 31.7113 14.0517 34.1732 15.5997 36.0568C17.8937 38.8357 21.2227 42.4632 25.5869 46.9392C29.2796 50.7065 32.2916 53.6533 34.6229 55.7794C36.2268 57.2341 38.269 58.1293 40.7495 58.465C43.2299 58.8007 45.9901 58.5489 49.0301 57.7097C51.5666 57.0196 53.5808 55.509 55.0728 53.1777C56.3969 51.1262 57.0963 48.8415 57.1709 46.3238L57.1989 45.5964C57.1989 41.885 56.714 36.7096 55.7442 30.0701C54.8117 23.5612 53.8792 18.8427 52.9467 15.9146Z" fill="#0D131A"/>
<path d="M44.4416 12.8654C47.1459 15.9613 48.3115 19.4955 47.9385 23.468C47.7707 25.333 47.2485 27.0861 46.3719 28.7273C45.4953 30.3686 44.3204 31.7953 42.847 33.0076C41.2804 34.3131 39.518 35.2736 37.5597 35.889C35.6014 36.4858 33.5686 36.6816 31.4611 36.4765C27.2834 36.0848 23.8425 34.3504 21.1382 31.2731C18.4339 28.1772 17.259 24.643 17.6133 20.6705C17.7998 18.8055 18.3314 17.0523 19.2079 15.4111C20.0658 13.7699 21.2315 12.3338 22.7048 11.1029C24.2901 9.79742 26.0619 8.84626 28.0201 8.24945C29.997 7.6713 32.0299 7.47547 34.1187 7.66197C38.2964 8.03497 41.7373 9.76944 44.4416 12.8654ZM46.9034 23.3841C47.2578 19.6913 46.1761 16.4089 43.6583 13.5368C41.1405 10.6646 37.9327 9.05141 34.0348 8.69705C32.0579 8.51055 30.1556 8.68773 28.3279 9.22859C26.5001 9.78809 24.8496 10.6833 23.3762 11.9142C22.0148 13.0519 20.9237 14.376 20.1031 15.8867C19.3012 17.3974 18.8163 19.0199 18.6484 20.7544C18.3127 24.4471 19.4037 27.7296 21.9215 30.6017C24.4393 33.4738 27.6471 35.0871 31.545 35.4414C33.5033 35.6279 35.3963 35.4414 37.224 34.8819C39.0517 34.3224 40.7116 33.4365 42.2036 32.2243C43.565 31.0866 44.6468 29.7624 45.4487 28.2518C46.2693 26.7225 46.7542 25.0999 46.9034 23.3841Z" fill="#0D131A"/>
<path d="M95.4689 198.006L95.4409 198.817C93.147 200.309 91.655 201.596 90.9649 202.678L90.7411 203.209C90.9462 203.452 91.6736 203.759 92.9232 204.132C94.1914 204.505 95.6368 204.841 97.2593 205.139L98.1545 206.678C92.6527 205.801 89.6407 205.027 89.1185 204.356C88.8574 204.058 88.8201 203.666 89.0066 203.181C89.2304 202.547 90.051 201.587 91.4684 200.3C92.8486 199.05 94.2007 198.015 95.5249 197.194L95.4689 198.006Z" fill="#0D131A"/>
<path d="M61.4788 53.4297L62.0103 54.7725C59.5672 56.6002 57.1333 58.6983 54.7088 61.0669C50.9601 64.741 47.1741 67.2401 43.3508 68.5643C40.9263 69.4222 37.4294 70.019 32.8601 70.3547L29.3912 70.6345C22.9942 71.2499 17.194 73.5066 11.9906 77.4045C7.34667 80.8548 4.23209 84.678 2.64682 88.8743C1.54646 91.8024 1.32266 95.0755 1.97541 98.6936C2.53492 101.79 3.68191 104.876 5.41637 107.953C5.56557 108.905 5.82668 110.061 6.19968 111.422C3.58866 107.823 1.81689 104.391 0.884379 101.127C-0.421133 96.6328 -0.281257 92.222 1.30401 87.8952C3.13173 82.8783 6.47943 78.738 11.3471 75.4742C16.3454 72.1171 22.3228 70.1029 29.2793 69.4315L32.7762 69.1518C37.1963 68.8161 40.4787 68.2659 42.6235 67.5012C46.1111 66.2703 49.6639 63.8924 53.2821 60.3675C56.005 57.7006 58.7372 55.3879 61.4788 53.4297Z" fill="#0D131A"/>
<path d="M129.963 75.3904C127.147 72.7234 123.706 69.0214 119.64 64.2842L119.276 63.8366L118.661 61.2909L120.563 63.5009C124.573 68.1821 127.967 71.8376 130.746 74.4672C134.831 78.3465 138.728 81.2093 142.44 83.0556C152.884 88.2777 160.018 92.9962 163.841 97.2111C169.511 103.459 170.415 110.387 166.555 117.997L165.799 116.598C168.448 110.052 167.161 103.832 161.939 97.9385C157.91 93.4065 151.224 88.7999 141.88 84.1187C138.094 82.235 134.122 79.3256 129.963 75.3904Z" fill="#0D131A"/>
<path d="M101.484 208.301L102.659 209C102.734 209.616 102.911 210.24 103.191 210.874C102.146 210.371 101.158 209.821 100.225 209.224C97.6328 207.564 95.9729 205.139 95.2456 201.95C94.6487 199.302 94.7513 197.334 95.5533 196.048L96.7003 195.6C96.0475 196.644 96.0382 198.491 96.6723 201.139C97.4369 204.347 99.0409 206.734 101.484 208.301Z" fill="#0D131A"/>
<path d="M123.807 213.98L118.939 214.232L119.667 212.777L122.716 212.581L123.807 213.98Z" fill="#0D131A"/>
<path d="M144.845 196.663C145.591 198.36 145.433 200.234 144.37 202.286C143.419 204.076 141.861 205.848 139.698 207.601L138.243 206.902C140.201 205.298 141.666 203.629 142.635 201.894C143.68 200.029 143.978 198.379 143.531 196.943L144.845 196.663Z" fill="#0D131A"/>
<path d="M6.17208 125.858L7.23514 127.06C6.76888 131.201 6.70361 135.612 7.03931 140.293C7.61747 147.753 9.23071 154.057 11.879 159.204L10.732 160.407C7.39366 154.961 5.53797 148.303 5.16497 140.433C4.92251 135.472 5.25822 130.613 6.17208 125.858Z" fill="#0D131A"/>
<path d="M146.942 155.092C149.516 158.169 151.455 161.246 152.761 164.324C154.98 169.546 155.661 175.066 154.803 180.885C153.908 186.983 152.117 191.487 149.432 194.397C148.108 195.833 145.991 197.166 143.081 198.397L142.83 198.509C137.943 200.598 133.02 201.643 128.059 201.643C119.517 201.605 111.861 198.425 105.091 192.103L106.686 191.264C112.747 196.523 119.853 199.321 128.003 199.656C133.561 199.88 138.344 199.125 142.354 197.39L142.606 197.278C145.03 196.253 146.895 194.938 148.201 193.334C150.495 190.518 152.071 186.172 152.929 180.297C154.272 171.177 152.015 163.093 146.159 156.043L146.942 155.092Z" fill="#0D131A"/>
<path d="M104.338 216.218C102.361 212.935 101.559 210.595 101.932 209.196C102.175 208.301 103.135 207.433 104.814 206.594C106.753 205.624 108.824 205.251 111.024 205.475C114.195 205.792 116.694 207.004 118.522 209.112C120.051 210.865 120.601 212.329 120.172 213.504C119.65 214.884 117.962 216.525 115.109 218.428C112.479 220.162 110.661 221.067 109.653 221.141C108.143 221.253 106.371 219.612 104.338 216.218ZM103.667 209.112C103.238 209.448 103.555 210.669 104.618 212.777C105.625 214.828 106.725 216.535 107.919 217.896C108.852 218.959 109.476 219.491 109.793 219.491C110.539 219.453 112.097 218.651 114.465 217.085C117.058 215.35 118.578 213.886 119.025 212.693C119.286 211.984 118.717 211.033 117.319 209.839C115.752 208.496 113.812 207.573 111.5 207.07C108.796 206.492 106.185 207.172 103.667 209.112Z" fill="#0D131A"/>
<path d="M121.738 212.022C121.794 211.089 122.428 210.119 123.64 209.112C124.852 208.124 126.354 207.312 128.144 206.678C132.527 205.13 136.285 205.233 139.418 206.986C140.947 207.825 142.523 210.054 144.146 213.672C145.75 217.197 146.468 219.92 146.3 221.841C146.207 222.979 145.778 223.631 145.013 223.799C143.241 224.154 140.061 223.454 135.473 221.701C130.923 219.967 127.277 218.083 124.535 216.05C122.596 214.595 121.663 213.252 121.738 212.022ZM127.696 207.909C126.298 208.469 125.141 209.168 124.227 210.007C123.369 210.772 122.941 211.462 122.941 212.077C122.941 213.663 125.897 215.808 131.809 218.512C137.721 221.216 141.852 222.335 144.202 221.869C144.444 221.832 144.593 221.487 144.649 220.834C144.799 219.025 144.183 216.554 142.803 213.42C141.404 210.194 140.061 208.338 138.775 207.853C135.007 206.436 131.314 206.454 127.696 207.909Z" fill="#0D131A"/>
<path d="M108.309 95.6444C102.956 97.6959 97.2308 98.7683 91.1322 98.8616C85.5558 98.9548 79.7462 97.7799 73.7036 95.3367C68.7986 93.3411 65.1618 91.2243 62.7932 88.9863L58.7088 84.846C56.7692 82.7944 55.3238 81.3584 54.3727 80.5378C52.862 79.2323 51.6404 78.5142 50.7079 78.3837C49.9433 78.2718 48.9548 78.6728 47.7425 79.5866C46.6049 80.4632 45.4579 81.7966 44.3016 83.5871C43.2945 85.1537 42.7536 86.2354 42.679 86.8322L41.7558 85.909C41.8491 85.1071 42.3806 83.9414 43.3504 82.4121C44.4135 80.7149 45.5325 79.4094 46.7075 78.4956C47.3602 78.0107 48.0969 77.6656 48.9175 77.4605L50.8478 77.3486C51.9482 77.4978 53.2816 78.2438 54.8483 79.5866C55.7994 80.3886 57.3381 81.9085 59.4642 84.1466L63.4926 88.231C65.8239 90.413 69.3674 92.4646 74.1232 94.3855C80.0167 96.7727 85.6863 97.9197 91.1322 97.8265C97.0629 97.7332 102.639 96.6888 107.861 94.6933C113.083 92.7163 116.991 90.1613 119.583 87.028C120.18 86.3007 120.889 85.7412 121.709 85.3495C122.604 84.9206 123.518 84.7434 124.451 84.818C125.831 84.9485 127.155 85.4148 128.423 86.2168C129.729 87.0374 130.708 88.0351 131.361 89.2101C132.181 90.6462 132.703 93.0707 132.927 96.4837C133.095 99.2066 133.058 101.902 132.815 104.569L131.976 105.604C131.64 105.958 131.5 105.883 131.556 105.38L131.584 104.988C131.883 102.526 131.957 99.9619 131.808 97.2949C131.64 94.0312 131.146 91.6626 130.326 90.1892C129.747 89.1635 128.861 88.2683 127.668 87.5036C126.493 86.7389 125.318 86.31 124.143 86.2168C122.576 86.0489 121.317 86.5338 120.366 87.6715C117.718 90.9352 113.699 93.5929 108.309 95.6444Z" fill="#0D131A"/>
<path d="M61.7583 195.572L61.6464 194.649L61.4786 193.726C71.0088 196.99 81.369 197.447 92.5591 195.097C99.1986 193.717 105.167 191.656 110.463 188.914C115.014 186.564 119.434 182.843 123.724 177.752C125.906 175.812 128.097 172.968 130.298 169.22C132.424 165.564 133.45 163.009 133.375 161.554L134.494 161.219C134.774 163.158 133.823 166.03 131.641 169.835C129.552 173.49 127.36 176.297 125.066 178.256C122.94 181.967 119.425 185.389 114.52 188.522C109.783 191.562 104.346 193.978 98.2101 195.768C91.9063 197.614 85.6585 198.556 79.4667 198.594C72.8272 198.65 66.9244 197.642 61.7583 195.572Z" fill="#0D131A"/>
<path d="M115.78 93.5741L123.305 87.8672C125.487 86.5617 127.389 86.4498 129.012 87.5315L129.236 88.2868C127.781 87.317 126.121 87.3916 124.256 88.5106L116.003 94.7211C112.46 97.3321 107.723 99.3277 101.792 100.708C95.3203 102.2 89.3149 102.461 83.7758 101.491C76.8566 100.279 70.6088 97.7425 65.0324 93.8819C61.8059 91.6625 58.3463 88.5386 54.6536 84.5102L53.1989 82.7477C51.8188 81.293 50.3361 80.5283 48.7508 80.4537C47.5945 80.3791 46.4475 80.6682 45.3098 81.321L45.9813 80.3418C47.3054 79.8196 48.4151 79.5865 49.3103 79.6425C50.7277 79.7357 52.0705 80.4444 53.3387 81.7686L54.8214 83.587C58.4396 87.5408 61.8898 90.6461 65.1723 92.9027C70.7487 96.726 76.9592 99.2251 83.8038 100.4C89.0818 101.314 94.8447 101.09 101.093 99.7287C107.21 98.3859 112.105 96.3344 115.78 93.5741Z" fill="#0D131A"/>
<path d="M69.591 185.081C74.3282 186.144 79.429 186.806 84.8935 187.067C99.9442 187.795 112.319 185.37 122.017 179.794L122.464 180.549L119.835 181.948C110.062 187.04 97.9859 189.11 83.6067 188.159C78.3473 187.823 73.4796 187.114 69.0036 186.032C65.0497 185.081 62.5692 184.167 61.5621 183.291L61.7859 182.312C62.8117 183.207 65.4134 184.13 69.591 185.081Z" fill="#0D131A"/>
<path d="M85.677 186.228C80.026 185.874 74.7667 185.109 69.899 183.934C65.5721 182.89 62.8679 181.892 61.7861 180.941L62.3457 180.269C63.2222 181.034 65.9545 181.892 70.5424 182.843C75.8018 183.925 81.3502 184.615 87.1877 184.913C103.637 185.715 116.161 183.085 124.758 177.024L123.528 179.262C113.755 184.895 101.138 187.217 85.677 186.228Z" fill="#0D131A"/>
<path d="M49.0567 149.245C52.6189 152.079 57.1229 154.625 62.5687 156.882C68.4808 159.344 74.7473 161.115 81.3681 162.197C97.4446 164.864 112.234 163.176 125.737 157.134L125.317 157.721L124.954 158.336C110.817 164.64 95.2905 166.076 78.3748 162.645C71.5301 161.265 65.1425 159.166 59.2117 156.35C53.7286 153.758 49.4297 150.96 46.3151 147.958L47.6859 148.685L49.0567 149.245Z" fill="#0D131A"/>
<path d="M60.5843 154.252C55.9963 152.182 52.5554 150.196 50.2614 148.294L50.8209 147.622C52.9843 149.413 56.3227 151.278 60.8361 153.217C66.1887 155.53 71.9423 157.358 78.0968 158.7C92.3082 161.759 105.298 161.489 117.066 157.889L118.409 158.365C111.415 160.845 104.03 162.085 96.2528 162.085C90.5831 162.085 84.5684 161.405 78.2087 160.043C72.0728 158.719 66.198 156.789 60.5843 154.252Z" fill="#0D131A"/>
<path d="M44.6378 116.877L45.2253 116.262C48.0788 118.873 51.93 121.391 56.7791 123.815C62.4487 126.631 68.3981 128.711 74.6273 130.054C89.8272 133.355 106.127 131.35 123.528 124.039V125.074C114.296 129.009 105.792 131.462 98.0146 132.432C90.2002 133.42 82.2366 133.038 74.1237 131.285C67.9132 129.923 61.9452 127.741 56.2196 124.738C51.557 122.295 47.6964 119.675 44.6378 116.877Z" fill="#0D131A"/>
<path d="M45.6999 113.856L46.3154 113.269C48.6653 115.693 52.2554 118.118 57.0858 120.542C62.8114 123.433 68.938 125.578 75.4656 126.977C92.9595 130.763 109.222 128.534 124.254 120.291L124.143 121.493C115.19 126.193 105.819 128.926 96.0274 129.69C88.53 130.268 81.0606 129.681 73.6192 127.928C67.2036 126.417 61.2262 124.132 55.6871 121.074C51.3416 118.668 48.0125 116.262 45.6999 113.856Z" fill="#0D131A"/>
<path d="M3.79279 181.444L4.99573 181.696C3.57831 188.858 3.10273 195.143 3.56899 200.551C4.05389 205.96 5.48063 210.315 7.8492 213.616L7.1778 214.763C4.24972 211.443 2.46863 206.986 1.83452 201.391C1.16311 195.516 1.81587 188.867 3.79279 181.444Z" fill="#0D131A"/>
<path d="M39.7977 221.169L40.3292 219.882L41.644 219.463C42.2222 219.202 42.6512 219.043 42.9309 218.987L43.6023 219.743L44.3297 220.442L39.7977 221.169Z" fill="#0D131A"/>
<path d="M60.9194 180.074C61.2924 179.234 61.5349 178.321 61.6468 177.332C62.9336 182.312 63.1854 188.131 62.4021 194.789C61.6747 201.074 60.248 206.426 58.1219 210.846L56.7231 209.671C58.4203 205.699 59.6792 200.934 60.4998 195.376C61.3577 189.557 61.4976 184.456 60.9194 180.074Z" fill="#0D131A"/>
<path d="M43.0996 220.442C42.5587 219.995 42.2323 219.351 42.1204 218.512C41.9899 217.542 42.195 216.516 42.7359 215.435C43.8735 213.178 45.6453 211.425 48.0512 210.175C50.8674 208.721 53.9353 208.394 57.255 209.196C57.8891 209.345 58.486 210.091 59.0455 211.434C59.4558 212.441 59.7635 213.532 59.9686 214.707C60.323 216.833 60.4629 218.698 60.3883 220.302C60.3137 222.447 59.8661 223.781 59.0455 224.303C57.7026 225.161 55.1942 225.142 51.5201 224.247C47.8833 223.352 45.0765 222.083 43.0996 220.442ZM48.8625 210.903C46.8669 211.91 45.3562 213.43 44.3305 215.463C43.7523 216.638 43.4632 217.682 43.4632 218.596C43.4632 219.137 43.5658 219.491 43.771 219.659C45.5614 221.17 48.1351 222.251 51.4921 222.904C54.7 223.538 56.8727 223.492 58.0104 222.764C58.5326 222.428 58.859 221.459 58.9895 219.855C59.1014 218.269 58.9988 216.47 58.6818 214.456C58.458 213.131 58.1689 212.068 57.8145 211.266C57.5161 210.614 57.2457 210.259 57.0033 210.203C53.9446 209.476 51.231 209.709 48.8625 210.903Z" fill="#0D131A"/>
<path d="M6.78806 214.931C7.21702 212.581 9.12866 211.089 12.523 210.455C14.9475 210.007 18.5657 209.97 23.3774 210.343C27.8907 210.698 32.0497 211.807 35.8544 213.672C39.8455 215.63 41.7758 217.654 41.6452 219.743C41.6266 220.396 41.1976 221.095 40.3584 221.841C38.1763 223.799 34.0173 225.636 27.8814 227.352C21.5031 229.124 16.0292 229.87 11.4599 229.59C10.9191 229.553 10.3596 229.366 9.78142 229.031C9.14731 228.676 8.69038 228.257 8.41063 227.772C7.42217 226.093 6.78806 224.079 6.50831 221.729C6.26586 219.51 6.35911 217.244 6.78806 214.931ZM12.8027 211.63C10.0985 212.04 8.57848 213.15 8.24278 214.959C7.85112 217.104 7.81382 219.267 8.13088 221.449C8.46658 223.65 9.10069 225.338 10.0332 226.513C10.5927 227.203 11.2361 227.576 11.9635 227.632C16.4395 227.893 21.6336 227.278 27.5457 225.785C33.3459 224.312 37.2531 222.671 39.2673 220.862C39.8828 220.321 40.1999 219.864 40.2185 219.491C40.3118 217.887 38.5959 216.283 35.0711 214.679C31.5462 213.075 27.6017 212.106 23.2375 211.77C18.202 211.397 14.7237 211.35 12.8027 211.63Z" fill="#0D131A"/>
<path d="M22.6501 153.049C24.7202 152.639 26.9955 152.415 29.476 152.378L29.448 153.581C26.6692 153.637 24.0675 154 21.6429 154.672L22.6501 153.049Z" fill="#0D131A"/>
<path d="M18.481 154.196L19.572 155.371C14.7416 157.199 10.9743 160.342 8.27001 164.799C6.21849 168.137 5.09948 171.429 4.91298 174.674C4.52132 180.848 5.2207 185.967 7.01112 190.033C9.37969 195.385 13.548 198.658 19.5161 199.852C23.1715 200.579 26.9015 201.102 30.7062 201.419C35.7231 201.829 39.3226 201.68 41.5046 200.971C46.9132 199.218 51.4825 195.796 55.2125 190.704C58.7001 185.911 60.3506 181.286 60.1641 176.828C59.903 170.842 58.0007 165.713 54.4572 161.442C50.4287 156.574 44.9456 153.814 38.0077 153.161L38.0916 151.958C45.6823 152.63 51.6503 155.521 55.9958 160.631C59.7632 165.088 61.7867 170.478 62.0664 176.8C62.2716 181.5 60.4998 186.443 56.7511 191.627C52.7787 197.148 47.9669 200.822 42.3159 202.65C40.0592 203.377 36.1893 203.48 30.7062 202.957C26.7337 202.584 22.7519 201.997 18.7607 201.195C13.1284 200.076 8.96007 197.372 6.25579 193.082C3.49556 188.681 2.34858 182.75 2.81483 175.29C3.03863 171.653 4.16697 168.063 6.19984 164.519C9.05332 159.558 13.147 156.117 18.481 154.196Z" fill="#0D131A"/>
<path d="M31.4901 80.6493C34.269 80.6307 36.7122 81.1249 38.8197 82.132C40.9085 83.1578 42.559 84.6311 43.7713 86.5521C45.3938 89.1818 46.1865 92.2404 46.1492 95.728C46.1119 98.8053 45.5244 101.202 44.3867 102.918L43.3237 102.386C44.1629 100.67 44.5826 98.4229 44.5826 95.6441C44.5826 92.343 43.8645 89.5548 42.4285 87.2795C41.3654 85.5636 39.8361 84.2768 37.8405 83.4189C35.9009 82.5796 33.6256 82.1693 31.0146 82.188C26.1842 82.2253 21.8387 83.279 17.9781 85.3492C14.1175 87.4193 11.0402 90.3567 8.74625 94.1614C7.17963 96.7538 6.21915 99.4674 5.86479 102.302C5.51044 105.118 5.79019 107.804 6.70405 110.359C6.387 110.695 6.10725 111.096 5.86479 111.562C4.67118 108.671 4.16763 105.706 4.35413 102.666C4.54063 99.4394 5.48247 96.4087 7.17963 93.5739C9.56686 89.6201 12.9612 86.4868 17.3626 84.1742C21.7081 81.8802 26.4173 80.7053 31.4901 80.6493Z" fill="#0D131A"/>
<path d="M6.36691 109.576C8.25058 106.032 11.9526 102.853 17.4731 100.036C23.5344 96.9405 29.1201 95.8495 34.2303 96.7633C36.9346 97.2482 39.3311 98.274 41.4199 99.8406C43.4901 101.389 45.0194 103.282 46.0079 105.52C46.8098 107.347 47.1175 109.296 46.931 111.366C46.7632 113.325 46.1944 115.096 45.2246 116.682L44.1895 116.038C45.0287 114.677 45.4763 113.073 45.5323 111.227C45.5882 109.38 45.2432 107.599 44.4972 105.883C43.602 103.832 42.2498 102.125 40.4408 100.764C38.6504 99.4023 36.5056 98.4605 34.0065 97.9383C29.4745 97.0244 24.2991 98.0502 18.4802 101.016C13.1089 103.757 9.53744 106.788 7.76567 110.108C6.70261 112.122 5.98458 114.229 5.61158 116.43C5.18262 119.06 5.34115 121.419 6.08716 123.508C6.75856 125.373 7.86825 126.939 9.41621 128.208C9.17376 128.487 9.00591 128.86 8.91266 129.327C7.8496 128.506 7.00101 127.741 6.36691 127.033C5.56495 126.119 4.98679 125.158 4.63244 124.151C3.88643 122.062 3.67196 119.722 3.98901 117.129C4.28741 114.5 5.08005 111.982 6.36691 109.576Z" fill="#0D131A"/>
<path d="M17.0537 153.525C16.3636 152.276 15.2073 149.627 13.5848 145.58L12.6336 143.286C13.0253 143.734 13.5568 144.107 14.2282 144.405L14.5359 145.188C17.2029 151.828 19.1052 154.971 20.2429 154.616C21.0448 154.374 21.8561 153.404 22.6767 151.707C23.2735 150.457 23.7957 149.002 24.2433 147.343L25.5302 147.371C25.008 149.273 24.4112 150.961 23.7398 152.434C22.6767 154.784 21.6043 156.118 20.5226 156.435C19.4596 156.77 18.3033 155.8 17.0537 153.525Z" fill="#0D131A"/>
<path d="M49.0023 133.383C49.1701 132.506 49.3287 131.938 49.4779 131.677C51.3242 134.12 52.294 137.244 52.3873 141.048C52.4432 143.473 52.1542 145.981 51.5201 148.574C51.203 149.86 50.8113 150.56 50.3451 150.672C49.2634 151.045 45.869 148.835 40.1621 144.042L41.3091 143.314C42.4654 144.265 43.9947 145.375 45.897 146.643C48.1164 148.154 49.4779 148.9 49.9814 148.881C50.1493 148.732 50.3358 148.238 50.5409 147.399C50.7834 146.392 50.9419 145.198 51.0165 143.818L51.0724 142.335C51.0724 138.456 50.3824 135.472 49.0023 133.383Z" fill="#0D131A"/>
<path d="M38.9579 145.076L40.3847 144.433C40.3101 146.317 39.8811 148.713 39.0978 151.623C38.2399 154.868 37.3633 156.938 36.4681 157.833C36.0392 158.262 35.5916 158.439 35.1253 158.365C33.8385 158.122 32.2625 156.966 30.3975 154.896C28.5325 152.788 26.9472 150.382 25.6417 147.678L26.9565 147.986C28.1688 150.354 29.6328 152.397 31.3487 154.112C32.9153 155.66 34.2301 156.537 35.2932 156.742C35.4051 156.761 35.5543 156.677 35.7408 156.49C36.4495 155.763 37.1489 154.066 37.8389 151.399C38.4544 149.012 38.8274 146.904 38.9579 145.076Z" fill="#0D131A"/>
<path d="M46.9032 118.052C48.6563 119.768 49.794 121.521 50.3162 123.312C50.8571 125.195 50.8944 127.368 50.4281 129.83C49.9432 132.31 49.02 134.735 47.6586 137.103C46.1293 139.752 44.2549 141.971 42.0355 143.761C39.8348 145.552 37.4849 146.755 34.9858 147.37C31.2184 148.303 27.4511 148.555 23.6838 148.126C19.8232 147.678 16.5967 146.578 14.0043 144.825C12.531 143.836 11.3 142.568 10.3116 141.02C9.32312 139.491 8.72631 137.943 8.52116 136.376C7.88706 131.919 8.45589 127.918 10.2277 124.375C11.9808 120.794 14.8342 117.903 18.7881 115.702C22.257 113.781 25.8658 112.653 29.6145 112.317C33.4565 112 37.1212 112.55 40.6088 113.968C42.996 114.938 45.0942 116.299 46.9032 118.052ZM46.3158 136.796C47.6399 134.502 48.5631 132.18 49.0853 129.83C49.6262 127.405 49.6448 125.344 49.1413 123.647C48.675 122.081 47.6586 120.57 46.092 119.115C44.5253 117.661 42.6137 116.476 40.357 115.562C37 114.201 33.5124 113.641 29.8943 113.884C26.2761 114.126 22.8445 115.152 19.5994 116.961C15.8507 119.05 13.1371 121.773 11.4586 125.13C9.78005 128.487 9.22987 132.254 9.80802 136.432C10.1997 139.248 11.7663 141.589 14.5079 143.454C17.007 145.151 19.9351 146.242 23.2921 146.727C26.6864 147.212 30.146 147.025 33.6709 146.167C36.1514 145.552 38.4827 144.47 40.6647 142.922C43.0333 141.225 44.917 139.183 46.3158 136.796Z" fill="#0D131A"/>
<path d="M132.369 104.876C135.427 102.135 139.353 100.568 144.146 100.176C149.163 99.7661 153.677 100.829 157.686 103.366C162.274 106.256 165.352 110.639 166.918 116.514C168.28 121.568 168.047 126.147 166.219 130.25C164.634 133.775 162.209 136.386 158.945 138.083L158.386 137.02C161.071 135.621 163.114 133.504 164.512 130.669C166.433 126.846 166.694 122.333 165.296 117.129C163.86 111.758 161.146 107.655 157.155 104.82C153.649 102.321 149.667 101.118 145.209 101.212C140.957 101.286 137.348 102.47 134.383 104.764C131.231 107.208 129.637 110.313 129.599 114.08C129.599 114.341 129.236 114.78 128.508 115.395C127.837 111.311 129.124 107.804 132.369 104.876Z" fill="#0D131A"/>
<path d="M158.161 129.746C158.926 132.338 159.234 134.838 159.085 137.243C158.954 139.537 158.413 141.524 157.462 143.202C156.604 144.713 155.485 145.953 154.105 146.923C152.557 148.005 150.776 148.667 148.762 148.909V147.65C152.399 146.438 154.898 144.601 156.259 142.139C157.975 139.136 158.087 135.145 156.595 130.166C155.215 125.429 152.669 121.354 148.958 117.941C144.593 113.912 139.884 112.299 134.83 113.101C130.951 113.716 128.088 115.525 126.242 118.528C125.253 120.113 124.628 121.913 124.367 123.927C124.143 125.643 124.199 127.06 124.535 128.179L123.388 128.515C122.959 127.154 122.782 125.634 122.857 123.955C122.95 121.643 123.547 119.6 124.647 117.829C125.617 116.262 127.016 114.957 128.843 113.912C130.559 112.924 132.489 112.262 134.634 111.926C140.043 111.068 145.116 112.737 149.853 116.933C153.937 120.533 156.707 124.804 158.161 129.746Z" fill="#0D131A"/>
<path d="M118.241 135.146L118.716 136.684C117.187 138.064 115.732 140.321 114.352 143.454C113.047 146.438 112.637 148.117 113.121 148.49L116.674 148.294L119.528 147.511L119.78 148.322L116.646 149.161C114.483 149.665 112.972 149.823 112.114 149.637C111.76 149.581 111.527 149.348 111.415 148.937C111.154 147.856 112.002 145.459 113.961 141.748C115.807 138.242 117.234 136.041 118.241 135.146Z" fill="#0D131A"/>
<path d="M134.579 160.603L135.894 160.771L137.181 160.938C133.861 161.908 130.979 162.598 128.536 163.009C125.944 163.419 124.443 163.4 124.032 162.953C123.678 162.561 123.725 161.591 124.172 160.043C124.564 158.663 125.049 157.47 125.627 156.462L126.354 156.91C125.757 157.954 125.291 159.018 124.955 160.099C124.582 161.256 124.527 161.955 124.788 162.197L128.257 162.03C130.215 161.694 132.322 161.218 134.579 160.603Z" fill="#0D131A"/>
<path d="M118.968 148.07L119.5 148.853C118.381 150.513 117.504 152.061 116.87 153.497C116.012 155.437 115.835 156.78 116.339 157.526C116.581 157.824 117.644 157.908 119.528 157.777C121.579 157.628 123.668 157.264 125.794 156.686C125.906 156.947 126.158 157.171 126.55 157.358C124.125 158.066 121.794 158.57 119.556 158.868C116.889 159.204 115.36 159.073 114.968 158.477C113.905 156.91 115.238 153.441 118.968 148.07Z" fill="#0D131A"/>
<path d="M133.376 126.865C136.267 127.63 138.878 129.028 141.209 131.061C143.633 133.15 145.545 135.733 146.944 138.81C149.07 143.473 149.788 147.697 149.098 151.483C148.445 155.027 146.711 157.6 143.895 159.204C140.332 161.237 137.097 162.048 134.187 161.638C130.923 161.172 127.268 159.102 123.221 155.428C121.225 153.619 119.677 151.39 118.577 148.742C117.533 146.205 117.01 143.529 117.01 140.713V139.957C117.085 134.418 118.81 130.502 122.186 128.208C125.207 126.138 128.937 125.69 133.376 126.865ZM140.454 131.984C138.234 130.045 135.782 128.73 133.096 128.04C130.168 127.294 127.212 127.816 124.228 129.606C120.61 131.77 118.642 135.211 118.325 139.929C118.195 142.037 118.484 144.144 119.192 146.252C120.162 149.161 121.85 151.707 124.256 153.889C128.247 157.507 131.781 159.475 134.859 159.792C137.115 160.034 139.885 159.298 143.167 157.582C145.909 156.164 147.522 153.796 148.007 150.476C148.492 147.156 147.774 143.436 145.853 139.314C144.473 136.386 142.673 133.943 140.454 131.984Z" fill="#0D131A"/>
<path d="M93.9299 43.9181L93.3704 46.6596C93.1653 47.6481 92.9974 48.105 92.8669 48.0304C92.5498 47.8439 92.5498 46.6503 92.8669 44.4496C92.9974 43.6476 92.8669 43.0322 92.4752 42.6032C92.2328 42.3235 91.7759 42.053 91.1044 41.7919C89.2767 41.1205 86.302 41.0739 82.1803 41.6521C78.3943 42.1929 75.5782 42.9296 73.7318 43.8621C73.0231 44.2165 72.6035 44.3284 72.4729 44.1978C72.3424 44.0486 72.5662 43.7595 73.1443 43.3306C71.8575 42.5473 69.8899 41.9132 67.2415 41.4283L62.7935 41.2324C61.8237 42.0903 61.3388 43.7782 61.3388 46.296C61.3388 48.3475 61.5253 50.2778 61.8983 52.0868C62.1967 53.5602 62.5697 54.7631 63.0173 55.6956C63.67 55.2294 64.0337 55.0709 64.1083 55.2201C64.1829 55.3693 64.0337 55.7329 63.6607 56.3111C63.1385 57.1317 62.5324 58.3906 61.8423 60.0878C60.9285 62.3071 60.3689 64.1628 60.1638 65.6548C59.9773 66.9044 59.8934 67.9022 59.912 68.6482L60.0799 70.9422L59.8281 71.7255C59.6975 72.0612 59.5856 72.201 59.4924 72.1451C59.3432 71.7907 59.1847 71.1753 59.0168 70.2987C58.8117 69.3289 58.7091 68.5736 58.7091 68.0327C58.7091 65.9626 59.0261 63.8364 59.6602 61.6544C60.3317 59.3231 61.1989 57.5327 62.2619 56.2831C61.7584 54.9963 61.3201 53.7467 60.9471 52.5344C60.2384 50.2032 59.884 48.1516 59.884 46.3799C59.884 43.4145 60.4995 41.3816 61.7304 40.2813C62.4205 39.6845 64.0524 39.6192 66.6261 40.0854C69.3677 40.5704 71.7269 41.4469 73.7038 42.7151C76.3522 41.4842 79.4481 40.6636 82.9916 40.2533C86.6097 39.8243 89.4352 39.9922 91.4681 40.7569C92.2514 41.0366 92.9508 41.6054 93.5663 42.4633C94.9837 40.8594 97.9491 40.8128 102.462 42.3235C106.025 43.5171 108.71 44.8039 110.519 46.1841L118.073 46.4079C120.124 46.7622 121.514 47.2844 122.241 47.9745C122.539 48.2729 122.689 48.8324 122.689 49.653C122.689 51.0331 122.316 52.8142 121.57 54.9963C120.861 57.1037 120.012 59.0154 119.024 60.7312C120.441 64.4239 120.879 68.1446 120.339 71.8933C119.947 74.523 119.443 76.1456 118.828 76.761C118.585 77.0221 118.278 76.9848 117.905 76.6491C117.532 76.3134 117.476 75.8565 117.737 75.2783C118.203 74.3085 118.558 72.6207 118.8 70.2148C119.098 67.1002 118.912 64.2934 118.24 61.7943C117.756 62.0181 117.504 61.9714 117.485 61.6544C117.466 61.356 117.606 61.0482 117.905 60.7312C118.24 60.3395 118.968 58.689 120.087 55.7796C121.28 52.6463 121.877 50.5855 121.877 49.597C121.877 49.0935 121.793 48.7578 121.625 48.5899C121.122 48.0864 119.677 47.7134 117.289 47.4709C114.883 47.2098 112.599 47.2005 110.435 47.4429C109.783 47.5175 109.251 47.4429 108.841 47.2191C108.393 46.9767 108.598 46.7249 109.456 46.4638C109.232 46.2214 108.375 45.7924 106.882 45.1769C105.204 44.4682 103.516 43.8808 101.819 43.4145C97.0445 42.0903 94.4149 42.2582 93.9299 43.9181Z" fill="#0D131A"/>
<path d="M70.2637 45.8482L65.6478 52.0028C65.368 50.8651 65.1162 49.6901 64.8924 48.4779C64.4448 46.072 64.3982 44.7199 64.7525 44.4215C65.3867 43.8806 67.2237 44.3562 70.2637 45.8482Z" fill="#0D131A"/>
<path d="M64.9479 44.6455C64.8547 44.7388 64.8081 44.9719 64.8081 45.3449C64.8081 46.4639 65.1344 48.4501 65.7872 51.3036L69.8156 45.9883C67.074 44.6455 65.4515 44.1979 64.9479 44.6455ZM70.4031 45.5967C70.8134 45.8578 70.8414 46.0909 70.487 46.296C70.2632 46.4452 69.5545 47.3032 68.3609 48.8698L66.1229 51.8631C65.8431 52.2548 65.638 52.404 65.5074 52.3107L65.3676 52.059C64.1739 47.3778 63.9035 44.7574 64.5563 44.1979C65.3023 43.5451 67.2512 44.0114 70.4031 45.5967Z" fill="#0D131A"/>
<path d="M118.381 49.9607C118.381 50.5761 117.877 52.4691 116.87 55.6397L112.394 49.9607L115.779 49.5131C117.495 49.4012 118.362 49.5504 118.381 49.9607Z" fill="#0D131A"/>
<path d="M112.786 49.513C115.9 49.0095 117.784 49.0001 118.437 49.485L118.688 49.9606C118.688 50.4269 118.483 51.434 118.073 52.9819C117.663 54.5113 117.355 55.4251 117.15 55.7235C116.982 55.9846 116.823 56.0872 116.674 56.0313L116.227 55.6116C114.026 52.497 112.767 50.7906 112.45 50.4922C111.872 49.9513 111.984 49.6249 112.786 49.513ZM118.073 49.9886L115.947 49.7928L112.925 50.1565L116.73 54.9962C117.625 52.1427 118.073 50.4735 118.073 49.9886Z" fill="#0D131A"/>
<path d="M87.1597 53.1218C87.2156 52.6182 87.3089 52.4597 87.4394 52.6462C87.57 52.8327 87.6259 53.2337 87.6073 53.8492C87.57 54.819 87.3462 55.9007 86.9359 57.0943C86.5256 58.3625 86.0966 59.1272 85.649 59.3883C85.2201 59.6494 84.9683 59.6867 84.8937 59.5002C84.8191 59.3323 84.9217 59.0526 85.2014 58.6609C85.4625 58.2693 85.8448 57.374 86.3484 55.9753C86.8333 54.5765 87.1037 53.6254 87.1597 53.1218Z" fill="#0D131A"/>
<path d="M95.1895 55.0523C95.1335 54.1198 95.1988 53.579 95.3853 53.4298C95.5718 53.2806 95.721 53.7002 95.8329 54.6886C96.0567 56.7402 96.439 58.3627 96.9799 59.5563C97.2969 60.2464 97.4275 60.694 97.3715 60.8992C97.2969 61.1043 97.0079 60.9831 96.5043 60.5355C96.038 60.1252 95.7023 59.3232 95.4972 58.1296L95.1895 55.0523Z" fill="#0D131A"/>
<path d="M86.9913 60.0878C88.1663 59.6215 89.2014 59.4164 90.0966 59.4723C92.3719 59.6215 94.1903 60.3582 95.5518 61.6824C95.9994 62.1113 96.1765 62.4004 96.0833 62.5496C96.0087 62.6801 95.7849 62.5962 95.4119 62.2978C95.0575 61.9994 94.3675 61.6823 93.3417 61.3466C92.2227 60.9736 91.2063 60.7498 90.2924 60.6752L87.6907 60.8151C86.9074 60.9457 86.2453 61.1228 85.7045 61.3466L84.8652 61.5704C84.7533 61.5331 84.8186 61.4026 85.061 61.1788C85.3781 60.8617 86.0215 60.4981 86.9913 60.0878Z" fill="#0D131A"/>
<path d="M78.5721 65.7108C77.9939 65.4497 77.6862 65.1233 77.6489 64.7317C77.6116 64.3214 77.9566 64.1162 78.684 64.1162C79.43 64.1162 80.2786 64.6104 81.2297 65.5989C82.0876 66.4755 82.6564 67.3054 82.9362 68.0887C83.1413 68.7042 83.1134 69.0212 82.8523 69.0399C82.6285 69.0399 82.3953 68.8534 82.1529 68.4804C81.4628 67.3987 80.2692 66.4755 78.5721 65.7108Z" fill="#0D131A"/>
<path d="M90.5458 67.7248C92.7465 68.0232 94.481 68.8065 95.7492 70.0747C96.2155 70.541 96.4393 70.8953 96.4206 71.1378C96.402 71.3616 96.1222 71.2776 95.5814 70.886C93.9588 69.6364 92.0192 68.937 89.7625 68.7878C87.655 68.6386 85.7061 68.965 83.9157 69.767L83.0205 69.8229C82.9645 69.6178 83.1977 69.3567 83.7199 69.0396C85.8273 67.8274 88.1026 67.3891 90.5458 67.7248Z" fill="#0D131A"/>
<path d="M96.7002 69.6551C97.2224 68.8905 98.0337 68.2097 99.1341 67.6129C100.346 66.9602 101.363 66.727 102.183 66.9135C102.407 66.9695 102.566 67.2213 102.659 67.6689C102.734 68.1351 102.603 68.3682 102.267 68.3682C101.671 68.3682 100.915 68.5081 100.001 68.7879C98.7891 69.1422 97.8939 69.6365 97.3157 70.2706C96.9427 70.6809 96.6909 70.7741 96.5604 70.5503C96.4112 70.3265 96.4578 70.0281 96.7002 69.6551Z" fill="#0D131A"/>
<path d="M81.2857 60.5354L81.6214 59.808L78.4042 56.9546C76.2594 55.2388 74.2825 54.0265 72.4734 53.3178C71.9512 53.9332 71.4663 54.6326 71.0187 55.4159C70.2914 56.7214 69.8345 58.0549 69.6479 59.4164L75.4109 59.7241L79.2994 60.2836L81.2857 60.5354ZM70.2075 55.0802C70.4126 54.7072 70.9628 54.0545 71.858 53.122C71.2239 52.8049 70.8509 52.4878 70.739 52.1708C70.6271 51.8164 71.1586 51.8444 72.3336 52.2547C74.2359 52.9261 76.2221 54.0638 78.2923 55.6677C80.0641 57.0478 81.3136 58.2694 82.041 59.3325C82.4327 59.9293 82.5632 60.237 82.4326 60.2556L82.0969 60.1158L81.7892 60.6473L82.041 60.9271C82.0597 61.1136 81.7146 61.1788 81.0059 61.1229L75.4388 60.5914L69.2563 60.2836C68.1932 60.3582 67.6524 60.2836 67.6337 60.0598C67.5964 59.836 68.0347 59.6215 68.9486 59.4164C69.1164 57.626 69.536 56.1806 70.2075 55.0802Z" fill="#0D131A"/>
<path d="M109.401 55.6676C110.762 55.4438 111.443 55.4904 111.443 55.8074C111.424 56.1059 110.977 56.3203 110.1 56.4509C110.697 56.8425 111.257 57.5699 111.779 58.633C112.431 59.9012 112.73 61.1694 112.674 62.4376C113.345 62.5495 113.69 62.7173 113.709 62.9411C113.728 63.1463 113.345 63.2489 112.562 63.2489L105.792 63.3328L99.2458 63.5566C98.7049 63.6312 98.4812 63.5659 98.5744 63.3608L98.8821 63.053C98.6956 62.8106 98.5744 62.5775 98.5184 62.3537L98.0149 62.3816C97.903 62.2884 98.0149 62.0646 98.3506 61.7102C99.3577 60.6658 100.859 59.5468 102.855 58.3532C105.316 56.8798 107.499 55.9846 109.401 55.6676ZM111.975 62.4656C111.844 61.4398 111.48 60.3208 110.884 59.1085C110.38 58.0641 109.848 57.2435 109.289 56.6467C107.405 56.9265 105.27 57.7937 102.883 59.2484C101.353 60.1809 100.066 61.1134 99.022 62.0459L99.3857 62.8572L106.212 62.5495L111.975 62.4656Z" fill="#0D131A"/>
<path d="M75.4949 54.5206L75.9985 54.9122C75.0287 55.5836 74.5438 56.5161 74.5438 57.7097C74.5438 58.6049 74.8328 59.3603 75.411 59.9757L74.5158 59.8359C74.1241 59.1645 73.9283 58.4557 73.9283 57.7097C73.9283 56.3856 74.4505 55.3225 75.4949 54.5206Z" fill="#0D131A"/>
<path d="M80.921 58.8289L81.3966 59.3324C81.1541 59.8733 80.8278 60.3209 80.4174 60.6752L79.6901 60.4794C80.2869 60.0691 80.6972 59.5189 80.921 58.8289Z" fill="#0D131A"/>
<path d="M100.337 60.5634C100.337 61.6638 100.785 62.5497 101.68 63.2211L100.84 63.277C100.169 62.587 99.8054 61.7384 99.7494 60.7313L100.393 60.1158L100.337 60.5634Z" fill="#0D131A"/>
<path d="M108.001 60.5633C108.001 61.5145 107.684 62.3631 107.05 63.1091H106.183C106.854 62.5496 107.19 61.6917 107.19 60.5354C107.19 59.1179 106.621 58.1202 105.483 57.542L106.211 57.2622C106.752 57.6353 107.181 58.1015 107.498 58.661C107.833 59.2578 108.001 59.8919 108.001 60.5633Z" fill="#0D131A"/>
<path d="M103.917 60.3956C103.917 60.9365 103.833 61.3841 103.665 61.7385C103.497 62.1115 103.283 62.298 103.022 62.298C102.779 62.298 102.574 62.1115 102.406 61.7385C102.238 61.3655 102.154 60.9179 102.154 60.3956C102.154 59.8734 102.238 59.4352 102.406 59.0808C102.574 58.7078 102.779 58.5213 103.022 58.5213C103.264 58.5213 103.479 58.7078 103.665 59.0808C103.833 59.4352 103.917 59.8734 103.917 60.3956Z" fill="#0D131A"/>
<path d="M79.7476 58.2136C79.7476 58.6798 79.6544 59.0901 79.4679 59.4445C79.3 59.7802 79.0855 59.948 78.8244 59.948C78.582 59.948 78.3675 59.7802 78.181 59.4445C78.0132 59.1088 77.9292 58.6985 77.9292 58.2136C77.9292 57.7287 78.0132 57.3184 78.181 56.9827C78.3675 56.647 78.582 56.4791 78.8244 56.4791C79.0855 56.4791 79.3 56.647 79.4679 56.9827C79.6544 57.3184 79.7476 57.7287 79.7476 58.2136Z" fill="#0D131A"/>
<path d="M106.38 59.2482C106.38 59.845 106.1 60.1434 105.54 60.1434C105.298 60.1434 105.102 60.0688 104.953 59.9196C104.785 59.7517 104.701 59.5279 104.701 59.2482C104.701 58.9684 104.785 58.7446 104.953 58.5768C105.102 58.3903 105.288 58.297 105.512 58.297C105.755 58.297 105.96 58.3903 106.128 58.5768C106.296 58.7446 106.38 58.9684 106.38 59.2482Z" fill="white"/>
<path d="M77.5377 56.9263C77.5377 57.1687 77.4445 57.3832 77.258 57.5697C77.0901 57.7376 76.8757 57.8215 76.6146 57.8215C76.3535 57.8215 76.139 57.7376 75.9711 57.5697C75.7846 57.3832 75.6914 57.1687 75.6914 56.9263C75.6914 56.6838 75.7846 56.4787 75.9711 56.3108C76.1576 56.1243 76.3721 56.0311 76.6146 56.0311C76.857 56.0311 77.0715 56.1243 77.258 56.3108C77.4445 56.4787 77.5377 56.6838 77.5377 56.9263Z" fill="white"/>
<path d="M111.134 72.2571C111.004 71.6416 111.051 71.3525 111.274 71.3898C111.498 71.4458 111.787 71.8468 112.142 72.5928L112.533 74.2153L112.673 75.698C112.598 77.2087 112.058 78.2531 111.05 78.8313C110.193 79.2975 108.859 79.5027 107.05 79.4467C105.95 79.4094 104.719 79.1483 103.357 78.6634L99.3009 77.0968C97.8089 76.5932 96.1397 76.1083 94.2933 75.6421L89.6215 74.6629L83.4669 74.2433L76.8368 74.3272L71.5494 74.579C68.9384 74.5977 67.2039 73.8983 66.346 72.4809C66.0663 71.9773 65.9264 71.4085 65.9264 70.7744C65.9264 70.2149 66.0476 69.6181 66.2901 68.984C66.6071 68.182 67.0361 67.5759 67.5769 67.1656C68.1178 66.7366 68.4348 66.5594 68.5281 66.634C68.584 66.7086 68.4722 66.9418 68.1924 67.3334C67.894 67.7624 67.6515 68.4431 67.465 69.3756C67.2599 70.4387 67.2972 71.2033 67.5769 71.6696C68.3416 72.9565 69.7683 73.5906 71.8572 73.5719L76.8088 73.488L83.8306 73.3481L90.3768 73.7957C92.708 74.1314 95.6361 74.9054 99.161 76.1177L103.357 77.5724C104.793 78.02 105.856 78.2438 106.546 78.2438C107.498 78.2624 108.384 78.1412 109.204 77.8801C110.137 77.5817 110.808 77.1434 111.218 76.5653C111.685 75.8939 111.657 74.4578 111.134 72.2571Z" fill="#0D131A"/>
<path d="M111.89 72.5647C117 72.6579 119.574 74.868 119.611 79.1948C119.611 80.7987 119.257 82.5332 118.548 84.3982C117.933 86.0021 117.224 87.289 116.422 88.2588C113.55 91.7651 108.775 94.1523 102.099 95.4205C97.0444 96.3716 91.9249 96.5861 86.7402 96.0639C76.9675 95.0941 69.4421 92.222 64.1641 87.4475C59.1286 82.9155 57.4035 77.9359 58.9887 72.5087C59.5109 70.6997 60.4341 69.3382 61.7583 68.4244C63.3062 67.3426 65.2925 66.923 67.717 67.1655C67.9035 67.5012 67.6984 67.725 67.1015 67.8369C65.7401 67.7436 64.4532 68.1353 63.241 69.0118C62.0287 69.8884 61.1055 71.11 60.4714 72.6766C59.6881 74.6162 59.6695 76.7517 60.4155 79.0829C61.1988 81.4888 62.6815 83.7641 64.8635 85.9089C70.0669 91.0004 77.499 94.0217 87.1598 94.9729L90.7966 95.1687L98.5737 94.805C106.388 93.8912 111.927 91.4293 115.191 87.4196C116.273 86.0954 117.065 84.4449 117.569 82.4679C118.035 80.6216 118.147 78.9897 117.905 77.5723C117.718 76.3973 117.112 75.4368 116.086 74.6908C115.079 73.9635 113.811 73.5345 112.282 73.4039L112.086 73.0403L111.89 72.5647Z" fill="#0D131A"/>
</svg>
