<?xml version="1.0" encoding="UTF-8"?>
<!DOCTYPE svg PUBLIC "-//W3C//DTD SVG 1.1//EN" "http://www.w3.org/Graphics/SVG/1.1/DTD/svg11.dtd">
<!-- Creator: CorelDRAW 2019 (64-Bit) -->
<svg xmlns="http://www.w3.org/2000/svg" xml:space="preserve" width="194.307mm" height="71.2446mm" version="1.1" style="shape-rendering:geometricPrecision; text-rendering:geometricPrecision; image-rendering:optimizeQuality; fill-rule:evenodd; clip-rule:evenodd"
viewBox="0 0 194.3428 71.2576"
 xmlns:xlink="http://www.w3.org/1999/xlink"
 xmlns:xodm="http://www.corel.com/coreldraw/odm/2003">
 <defs>
  <style type="text/css">
   <![CDATA[
    .fil23 {fill:#000003}
    .fil3 {fill:#1C204E}
    .fil19 {fill:#1C214F}
    .fil7 {fill:#202A5D}
    .fil6 {fill:#291B67}
    .fil1 {fill:#3265B0}
    .fil17 {fill:#374BA5}
    .fil20 {fill:#3A58A7}
    .fil18 {fill:#3B59AA}
    .fil15 {fill:#61664F}
    .fil16 {fill:#B08B01}
    .fil14 {fill:#F4BE00}
    .fil21 {fill:url(#id0)}
    .fil22 {fill:url(#id1)}
    .fil4 {fill:url(#id2)}
    .fil5 {fill:url(#id3)}
    .fil0 {fill:url(#id4)}
    .fil10 {fill:url(#id5)}
    .fil12 {fill:url(#id6)}
    .fil8 {fill:url(#id7)}
    .fil11 {fill:url(#id8)}
    .fil2 {fill:url(#id9)}
    .fil9 {fill:url(#id10)}
    .fil13 {fill:url(#id11)}
   ]]>
  </style>
  <linearGradient id="id0" gradientUnits="userSpaceOnUse" x1="50.6719" y1="40.4382" x2="62.1614" y2="40.4382">
   <stop offset="0" style="stop-opacity:1; stop-color:#394CA5"/>
   <stop offset="0.929412" style="stop-opacity:1; stop-color:#3D69B2"/>
   <stop offset="1" style="stop-opacity:1; stop-color:#3D6AB3"/>
  </linearGradient>
  <linearGradient id="id1" gradientUnits="userSpaceOnUse" xlink:href="#id0" x1="2.6873" y1="34.5303" x2="194.362" y2="34.5303">
  </linearGradient>
  <linearGradient id="id2" gradientUnits="userSpaceOnUse" x1="58.0386" y1="27.4264" x2="56.945" y2="18.2391">
   <stop offset="0" style="stop-opacity:1; stop-color:#3166AE"/>
   <stop offset="1" style="stop-opacity:1; stop-color:#1D224E"/>
  </linearGradient>
  <linearGradient id="id3" gradientUnits="userSpaceOnUse" x1="157.9561" y1="25.694" x2="157.5194" y2="17.4014">
   <stop offset="0" style="stop-opacity:1; stop-color:#285094"/>
   <stop offset="1" style="stop-opacity:1; stop-color:#1D224E"/>
  </linearGradient>
  <linearGradient id="id4" gradientUnits="userSpaceOnUse" xlink:href="#id2" x1="9.4745" y1="38.6542" x2="2.2497" y2="25.1896">
  </linearGradient>
  <linearGradient id="id5" gradientUnits="userSpaceOnUse" x1="59.4484" y1="29.4839" x2="66.0103" y2="42.389">
   <stop offset="0" style="stop-opacity:1; stop-color:#2A5298"/>
   <stop offset="1" style="stop-opacity:1; stop-color:#1D224E"/>
  </linearGradient>
  <linearGradient id="id6" gradientUnits="userSpaceOnUse" xlink:href="#id5" x1="125.4411" y1="-12.7353" x2="133.0356" y2="4.8704">
  </linearGradient>
  <linearGradient id="id7" gradientUnits="userSpaceOnUse" xlink:href="#id3" x1="127.2427" y1="13.7249" x2="117.6193" y2="29.0346">
  </linearGradient>
  <linearGradient id="id8" gradientUnits="userSpaceOnUse" xlink:href="#id5" x1="17.0752" y1="34.0132" x2="24.6689" y2="51.6166">
  </linearGradient>
  <linearGradient id="id9" gradientUnits="userSpaceOnUse" xlink:href="#id2" x1="97.4029" y1="10.7948" x2="106.5741" y2="0.9681">
  </linearGradient>
  <linearGradient id="id10" gradientUnits="userSpaceOnUse" xlink:href="#id5" x1="42.1656" y1="38.4665" x2="48.7282" y2="50.9436">
  </linearGradient>
  <linearGradient id="id11" gradientUnits="userSpaceOnUse" xlink:href="#id5" x1="90.0821" y1="2.5194" x2="97.6767" y2="20.125">
  </linearGradient>
 </defs>
 <g id="Layer_x0020_1">
  <metadata id="CorelCorpID_0Corel-Layer"/>
  <g id="_734310592">
   <polygon class="fil0" points="5.4066,35.4812 5.4066,35.4811 5.4065,35.4811 -0,26.3541 -0,26.3537 2.6959,23.6156 12.1364,37.6937 8.6738,40.9962 "/>
   <polygon class="fil1" points="128.787,14.8463 128.4512,16.7767 132.6,15.4376 132.0829,13.0735 "/>
   <polygon class="fil2" points="107.8341,0 107.8491,0 104.6691,3.9704 104.6688,3.9704 104.6688,3.9708 104.4999,4.1817 104.4997,4.1817 104.4997,4.1818 97.3618,13.0941 97.3614,13.0941 97.3614,13.0945 97.1926,13.3053 97.1925,13.3053 97.1925,13.3054 95.1502,15.8554 91.5332,16.8957 91.5324,16.8957 91.5324,16.8959 91.2655,16.9726 97.7416,9.546 102.3456,4.2662 104.6143,1.6646 "/>
   <polygon class="fil3" points="176.0282,22.5951 179.3047,20.8489 178.3687,29.0539 "/>
   <polygon class="fil3" points="155.6626,27.8564 158.575,28.4528 162.292,26.6483 159.0662,25.4445 "/>
   <polygon class="fil4" points="55.2473,19.1441 55.7131,28.6526 59.7783,27.0103 58.5614,17.3662 "/>
   <polygon class="fil5" points="158.8144,16.307 155.5426,18.0725 155.6626,27.8564 158.956,26.1686 159.9891,21.4326 "/>
   <polygon class="fil6" points="158.3646,28.4802 154.762,60.4827 160.5216,59.3469 161.6497,26.7544 "/>
   <polygon class="fil7" points="165.4177,62.0168 165.52,66.3564 176.5756,69.8797 179.866,68.1357 169.0177,59.7317 158.0296,58.7669 154.762,60.4827 "/>
   <polygon class="fil7" points="124.4052,54.3838 127.1224,52.9202 128.8536,56.1198 131.4143,54.7125 131.9244,58.9304 147.9971,61.7809 151.2083,60.0146 129.0454,46.5104 113.3239,49.2049 110.2571,52.1193 "/>
   <polygon class="fil8" points="119.2869,15.0092 116.0695,16.78 110.2571,52.1193 113.5128,50.4282 119.0921,30.5855 "/>
   <polygon class="fil3" points="93.6119,19.746 91.0485,21.1112 91.2638,21.9661 97.3643,18.0907 94.6988,15.2298 91.2655,16.9726 "/>
   <polygon class="fil7" points="100.6197,61.4902 74.4095,48.507 77.7001,46.0191 103.8814,59.7287 "/>
   <polygon class="fil3" points="76.8728,13.1693 72.9007,20.7015 77.0976,19.4308 80.1262,11.4046 "/>
   <path class="fil9" d="M40.8474 44.2857l-3.3512 2.3004c0,0 0.7111,3.7389 1.6276,6.3397 0.9219,2.6104 3.1163,4.7072 3.1163,4.7072 1.4092,1.3778 3.1363,2.38 5.0636,2.9427 3.7065,1.0665 7.8903,0.3718 11.481,-1.9184 0.9392,-0.5943 2.2137,-1.5455 2.9969,-2.2966 -3.5294,2.1423 -20.9342,-12.0749 -20.9342,-12.0749z"/>
   <polygon class="fil10" points="58.7802,27.8775 61.8379,61.6151 74.333,59.7663 77.6764,58.0143 62.1699,25.855 58.9794,26.9297 55.7131,28.6526 "/>
   <polygon class="fil11" points="11.9371,39.5954 25.8977,71.2576 39.1606,66.9792 42.3993,64.8025 14.8702,35.9987 11.4255,38.0629 8.6738,40.9962 "/>
   <path class="fil12" d="M150.2968 54.5337l0.1876 1.5545c1.1425,-0.1289 2.3425,-0.2764 3.3697,-0.6425 1.1976,-0.4094 3.7983,-1.568 4.7871,-2.4206 -0.371,0.1346 -6.4647,1.714 -8.3444,1.5087z"/>
   <path class="fil13" d="M103.3725 46.4488l0.4974 2.503c2.6843,-0.3994 4.9889,-1.393 7.2547,-2.7543 1.4217,-0.8469 2.982,-2.1247 3.475,-2.4647 -0.3477,0.2222 -11.2271,2.7161 -11.2271,2.7161z"/>
   <path class="fil14" d="M102.3807 25.5443c-1.3985,0 -2.7516,0.601 -3.7133,1.6486 -1.458,1.5923 -1.7419,3.9418 -0.7046,5.8444l0.2752 0.5156 0.4422 0.8247 0.6222 -0.6968 0.4004 -0.4437 4.9467 -5.6471 0.3881 -0.4473 0.6244 -0.7172 -0.8901 -0.3295 -0.5549 -0.2048c-0.5822,-0.2276 -1.2048,-0.3468 -1.8362,-0.3468zm-14.7254 3.7266l0 0 -1.2798 1.2461 -3.3724 3.2768 -0.7341 0.7133 0.956 0.3696 3.6161 1.3953 1.1108 0.4278 -0.2293 -1.1668c-0.2985,-1.5075 -0.3763,-3.0164 -0.236,-4.484l0.1689 -1.778zm-54.9131 -0.2199l0 0c-0.369,0 -0.7504,0.0338 -1.1352,0.103l-0.4875 0.0938 -0.7197 0.1386 0.2169 0.701 0.1416 0.4557 2.0483 6.7025 0.2044 0.6441 0.3046 0.9665 0.7575 -0.6736 0.5027 -0.4478c1.9858,-1.7845 2.6818,-3.5962 2.2627,-5.8812 -0.2641,-1.3712 -1.3259,-2.054 -1.9361,-2.3397 -0.6376,-0.3073 -1.3672,-0.463 -2.1603,-0.463zm-3.2153 39.2046l0 0 -1.0362 -2.3033 -13.2369 -29.5417 -0.2716 -0.606 -0.6017 0.2779 -0.4017 0.1846 -2.3565 1.1567c-0.3474,-0.5826 -0.9244,-1.5592 -1.3253,-2.2363l-5.3283 -9.0045 -1.3933 -2.3502 2.3049 -1.4607c2.1805,-1.3905 4.6431,-2.6749 7.3217,-3.8192 5.3336,-2.2716 10.7777,-3.4733 15.7419,-3.4733 1.6332,0 3.2135,0.1318 4.698,0.3903 2.4747,0.2818 4.7633,1.094 6.6536,2.3531 2.8173,1.5756 5.0349,4.0191 6.2881,6.91 1.0282,2.3759 1.2286,5.1584 0.5753,8.0448l-0.3835 1.6958 1.4087 -1.0214c0.9491,-0.6888 1.9801,-1.2774 3.0652,-1.7497 1.875,-0.7926 3.8155,-1.1972 5.7589,-1.1972 1.8404,0 3.5797,0.3641 5.1717,1.0802l1.0261 0.4604 -0.1031 -1.1202 -0.446 -4.8406 -0.0724 -0.767 -0.7471 0.1938 -2.2429 0.5812 -0.3928 -8.2417 16.4261 -5.2482 -0.1326 6.406 1.2371 0.3172 3.5874 -6.8753 10.7445 9.5296 0.4481 0.3987 0.4368 -0.4109c1.472,-1.3835 3.2169,-2.4935 5.1855,-3.2994l0.822 -0.3362 -0.5636 -0.6873 -1.9369 -2.3611 12.3353 -14.2194 6.4606 9.6399 -9.8891 5.3158 -2.1964 1.1814 2.4933 0.0528c4.6888,0.0989 8.84,2.0824 11.688,5.584l1.03 1.2701 0.664 0.8156 -1.1025 1.1696 -0.7349 0.7805 -2.4711 2.6356 -0.4596 0.4898 0.4972 0.4485 2.3159 2.0853 0.896 0.8056 0.1917 -1.1886 0.8882 -5.5009 0.2273 -1.4124 0.0072 0.008 0.234 -1.4426 1.3263 -8.1213 12.3972 0 0.0937 -0.5479 0.2315 -1.3905 10.6638 0 2.5836 16.316 0.1678 1.0564 0.8654 -0.6281c1.0468,-0.7603 2.2028,-1.3857 3.4379,-1.8582 1.6434,-0.6201 3.3355,-0.9365 5.0247,-0.9365 2.0112,0 3.9633,0.4642 5.6517,1.3421 0.045,0.0323 0.1084,0.0742 0.195,0.1089l0.8013 0.3218 0.0941 -0.8601 0.1934 -1.7778 0.0639 -0.583 -0.5736 -0.1275 -2.1623 -0.4832 -0.1057 -8.5052 16.4862 3.6288 1.2383 6.12 1.2803 0.0249 1.2772 -5.2664 13.7473 3.3432 -14.0488 42.3401 -10.0529 -3.1569 -0.0714 -3.9001 -0.0097 -0.5591 -0.5552 -0.0777 -10.0312 -1.4159 0.5675 -5.0987 0.1348 -1.2132 -1.0851 0.5564c-0.5144,0.2614 -1.0121,0.4819 -1.4827,0.6546 -1.64,0.6206 -3.3195,0.9345 -4.9922,0.9345 -0.4839,0 -0.9702,-0.0268 -1.4433,-0.0804l-0.8571 -0.0958 0.1344 0.8512 0.706 4.4841 -14.6355 -2.5814 -0.766 -6.6542 -0.2466 -2.1332 -0.9865 1.9062 -1.6844 3.2496 -3.1026 -5.7268 -0.9326 -1.7205 -0.2941 1.9331 -0.6757 4.433 -12.8268 -2.0187 0.9943 -6.0837 0.2273 -1.3953 -1.2127 0.7248c-2.0994,1.2587 -4.5108,2.2054 -7.3686,2.896 -0.999,0.2436 -2.0427,0.4127 -3.1054,0.5005l-0.6016 0.0506 0 12.0842 -25.2602 -12.4838 -0.9491 -0.4684 0.0003 1.058 0.0174 10.6778 -11.2944 1.6641 -0.4748 -5.1278 -0.1281 -1.3718 -0.9845 0.9651c-1.4924,1.4607 -3.1734,2.5931 -4.9959,3.366 -1.8649,0.7928 -3.7883,1.1937 -5.7164,1.1937 -1.9249,0 -3.7339,-0.402 -5.3765,-1.189 -3.0438,-1.4644 -5.2398,-4.1206 -6.1812,-7.4726 -0.449,-1.5743 -0.571,-3.2368 -0.3623,-4.9432l0.2227 -1.8175 -1.3258 1.2619c-0.9346,0.8872 -1.9416,1.7345 -2.9947,2.513l-0.3567 0.2629 0.1125 0.4298 3.8045 14.6038 0.6724 2.5919 -2.5476 0.8096 -7.1639 2.2935 -2.3973 0.7717z"/>
   <path class="fil15" d="M109.9474 33.9093c-0.0477,0.0418 -0.0912,0.0953 -0.1288,0.1499 0.0493,-0.0454 0.0975,-0.085 0.1489,-0.1269l-0.0201 -0.023z"/>
   <polygon class="fil15" points="114.2123,29.959 116.6824,27.3234 115.8372,28.2205 115.8618,28.1072 115.1145,28.896 112.6465,31.5233 114.9587,33.6035 115.3776,31.0127 116.5292,32.0432 "/>
   <polygon class="fil15" points="114.2123,29.959 116.5292,32.0432 117.4161,26.5427 116.6824,27.3234 "/>
   <polygon class="fil15" points="83.4605,34.2628 83.4982,34.2784 "/>
   <path class="fil16" d="M97.1371 36.5504c0.1976,0.1998 0.0152,0.0563 0.2364,0.2076l1.511 -1.0652c-0.2238,-0.1585 -0.4465,-0.3287 -0.6504,-0.5191 -2.1922,-1.9981 -1.6228,-6.4915 -0.2007,-8.9507 -3.7435,3.0203 -3.5487,7.6704 -0.8963,10.3274z"/>
   <path class="fil16" d="M115.3776 39.0661c-2.4954,2.0641 -5.3404,3.41 -9.0982,4.3187 -0.8217,0.1878 -1.6268,0.3247 -2.4144,0.394 -5.9655,0.5867 -10.9704,-2.1528 -12.8693,-6.596 -0.2367,-0.5379 -0.4191,-1.0825 -0.5569,-1.6638 -0.8785,-3.7417 -0.1283,-7.0856 1.7201,-9.7066 0.1833,-0.2538 0.3759,-0.4971 0.5777,-0.7442 -0.0942,0.0807 -0.1907,0.1499 -0.2693,0.2255 -0.7105,0.6327 -1.3394,1.3258 -1.8742,2.0833 -1.8509,2.6209 -2.6006,5.9668 -1.7141,9.7028 0.1357,0.5814 0.3152,1.134 0.5467,1.6597 1.8998,4.453 6.9061,7.1911 12.8663,6.6089 0.794,-0.0764 1.5962,-0.2077 2.4181,-0.4064 3.7632,-0.9077 6.6058,-2.2478 9.1014,-4.3121 0.6091,-0.5012 1.1971,-1.0481 1.7677,-1.6458l-0.0528 -0.0508c-0.0569,0.0491 -0.0997,0.0915 -0.1487,0.1328z"/>
   <polygon class="fil16" points="73.3366,27.7547 80.0017,18.3885 79.7307,18.1388 73.3003,27.1722 "/>
   <polygon class="fil16" points="117.4161,26.5427 116.5292,32.0432 115.3776,31.0127 114.9587,33.6035 112.6465,31.5233 115.1145,28.896 115.8618,28.1072 115.8372,28.2205 116.6824,27.3234 "/>
   <polygon class="fil16" points="109.18,11.1153 111.5136,10.1142 107.2479,4.6386 105.8497,6.5914 "/>
   <path class="fil16" d="M44.5633 24.6792c-10.7729,-13.1234 -30.1846,-6.0694 -37.1609,0.0692l0.2724 0.471c1.604,-0.9204 3.2957,-1.7525 5.0747,-2.4989 6.9298,-2.9601 13.5368,-3.8277 18.8336,-2.9014 1.8727,0.2153 3.8559,0.7704 5.5816,1.9262 2.3896,1.3376 4.2008,3.2414 5.2598,5.6807 1.8787,4.3201 0.2235,10.0649 -4.2016,14.8743 5.5498,-5.0928 9.3476,-9.9655 6.3403,-17.6211z"/>
   <path class="fil16" d="M66.5415 39.9683c-0.0507,-0.238 -0.101,-0.4793 -0.1781,-0.7124 -0.6071,-2.1818 -1.91,-3.9235 -3.6188,-5.0827 -2.7654,-1.8782 -6.6256,-2.2639 -10.4727,-0.6396 -2.0238,0.8749 -3.7835,2.2213 -5.1747,3.8296 1.0695,-0.9203 2.2919,-1.6868 3.6123,-2.2579 3.8387,-1.6295 7.6989,-1.2441 10.4736,0.6318 1.7086,1.1602 3.0012,2.9014 3.6208,5.0805 0.0686,0.2335 0.1221,0.4791 0.1752,0.7249 0.1645,0.8294 0.2408,1.6682 0.2092,2.5274 -0.0803,2.5111 -1.0113,5.04 -2.5598,7.1996 -0.2496,0.3414 -0.5123,0.6602 -0.7839,0.9762 0.8815,-0.7611 1.6681,-1.6025 2.3404,-2.545 1.555,-2.1456 2.4842,-4.6797 2.5662,-7.2063 0.0346,-0.8431 -0.0351,-1.6957 -0.2096,-2.5261z"/>
   <path class="fil16" d="M55.9337 36.7652c-0.0152,0.0239 1.5632,-1.5634 1.545,-1.5634 -1.9742,-0.0751 -2.8089,1.7863 -2.8773,1.9329 0.4056,-0.1962 0.8529,-0.3239 1.3323,-0.3695z"/>
   <path class="fil16" d="M59.652 39.0411c0.0802,0.2675 0.1216,0.5337 0.1216,0.825 0,0.4112 -0.0913,0.8055 -0.2581,1.1693 0.3161,-0.1653 2.5986,-1.2724 1.7141,-3.6179 0.0472,0.0719 -1.6351,1.6161 -1.5776,1.6236z"/>
   <path class="fil16" d="M50.6719 40.3466c0,-0.9653 1.6528,-3.3065 2.1676,-4.0877 -2.6096,1.659 -3.7335,3.8979 -3.7335,5.6613 0,3.0216 2.6552,5.4516 5.8296,5.4516 1.5015,0 4.2517,-0.7946 6.0502,-3.7054 -0.9424,0.6201 -3.3385,2.1045 -4.5952,2.1045 -3.1739,-0.0004 -5.7186,-2.386 -5.7186,-5.4243z"/>
   <polygon class="fil16" points="73.011,43.1119 73.0523,55.3405 74.9934,55.4516 74.6092,41.5114 "/>
   <polygon class="fil16" points="61.8705,19.8292 61.91,20.9156 71.1081,18.1773 71.7904,29.8904 73.3249,27.7398 72.9974,15.9854 "/>
   <polygon class="fil16" points="89.6755,24.0236 81.0356,16.094 80.0017,18.3885 87.6058,25.5328 "/>
   <path class="fil16" d="M88.3623 38.801l-10.144 -3.3539 -1.4776 1.5606 10.1057 4.0442c1.146,2.1593 2.8824,4.0092 5.0695,5.3617 2.117,1.2947 4.536,2.0703 7.0978,2.3161l0 4.9909 1.5667 0.7817 0.496 -7.4982 -12.7141 -8.2032z"/>
   <path class="fil16" d="M104.6511 37.3899c2.4918,-0.6008 3.9283,-1.9003 5.165,-3.3307 -0.9282,0.7616 -5.5821,1.7757 -6.3635,2.0404l-1.5328 1.6323c0.7003,0.0619 1.8715,-0.127 2.7312,-0.342z"/>
   <path class="fil16" d="M100.1203 20.1409c-4.5938,0.6016 -6.9875,4.4584 -7.3837,4.9277 1.6965,-1.4328 3.8228,-2.4972 6.2173,-3.0637 5.6844,-1.3748 10.696,0.3588 13.794,4.1881l1.9171 -1.6224c-3.068,-3.764 -8.8622,-5.7999 -14.5447,-4.4297z"/>
   <path class="fil16" d="M115.5267 38.9333c0.5542,-0.4656 1.5389,-0.9367 2.0622,-1.4857l-6.1504 -5.496c-0.471,0.5634 -0.8982,1.4918 -1.4734,1.9798l5.5616 5.0019z"/>
   <path class="fil16" d="M147.0927 53.662c-6.4534,-5.3044 -6.0674,-16.6781 -2.8997,-20.2866l-2.8433 -17.8258 -6.2183 0.803 -0.2776 1.57 4.7059 0 2.4917 16.1736c-3.1704,3.6199 -4.7024,8.4694 -3.6431,12.9098 0.8202,3.4309 2.9277,6.2078 5.9616,7.8143 0.3047,0.1667 0.62,0.313 0.9424,0.4505l0.0406 0.2374 1.85 0.292c0,-0.0009 0.1925,-1.9842 -0.1101,-2.1382z"/>
   <polygon class="fil16" points="122.2898,18.1726 122.0219,19.7439 129.1147,19.7439 131.2047,31.1981 132.7781,29.6085 131.1236,17.5166 "/>
   <polygon class="fil16" points="134.4317,40.4092 132.1421,46.3249 132.7089,47.8641 135.9842,38.8549 "/>
   <polygon class="fil16" points="127.6313,36.6833 126.0546,38.2577 124.3646,48.9425 125.9833,49.5603 "/>
   <path class="fil16" d="M159.4873 33.2704c0.9285,0.6626 1.7201,1.5015 2.316,2.499 0.4701,0.765 0.8257,1.6221 1.053,2.5626 0.772,3.2116 -0.1516,6.6853 -2.1934,9.4723 -0.2054,0.2826 -0.4322,0.5562 -0.6483,0.8246 0.8294,-0.7135 10.904,-8.1446 1.0605,-17.9045 -10.8255,-3.5691 -14.924,3.4942 -15.307,3.9423 1.1438,-0.9723 2.4636,-1.7764 3.8936,-2.3232 3.6638,-1.3879 7.2688,-0.9066 9.8256,0.927z"/>
   <path class="fil16" d="M154.0295 33.9742c0.0301,0.0685 1.554,-1.5882 1.5854,-1.5882 -1.9266,0.0793 -2.8516,1.009 -2.757,1.4381 -0.1149,0.1666 -0.2091,0.3319 -0.2826,0.5143 0.4114,-0.2047 1.1717,-0.3622 1.4542,-0.3642z"/>
   <path class="fil16" d="M157.6515 36.3953c0.0694,0.2582 0.1022,0.5287 0.0967,0.8193 -0.0174,0.3723 -0.1139,0.7134 -0.2554,1.0314 0.2927,-0.1319 2.6277,-0.8569 1.736,-3.4258 0.0232,0.0729 -1.6027,1.5765 -1.5773,1.5751z"/>
   <path class="fil16" d="M152.5372 44.5526c2.1793,0.0933 4.5885,-1.2455 6.317,-3.6114 -4.4344,0.9097 -9.0963,-6.4745 -8.6288,-7.1972 -1.6755,1.2146 -3.1586,3.5573 -3.2262,5.1946 -0.1152,3.0355 2.3562,5.4869 5.538,5.6139z"/>
   <polygon class="fil16" points="176.8371,63.7926 177.8765,64.4878 190.5618,26.416 181.0678,24.2221 180.9491,26.4523 188.6075,28.1516 "/>
   <polygon class="fil16" points="161.7724,20.1409 161.8553,22.2678 171.9494,24.2948 175.8356,42.7249 177.4082,41.1398 173.7061,22.5199 "/>
   <polygon class="fil16" points="169.5397,41.1435 166.7608,56.8611 168.3613,57.3795 171.1203,39.5954 "/>
   <polygon class="fil16" points="38.5478,62.628 33.8263,45.5105 32.0982,46.7194 36.474,63.1184 "/>
   <path class="fil16" d="M37.3221 36.8879c-1.089,1.1554 -3.5029,3.4008 -4.8785,4.2866l-0.8354 -2.6817 -1.8289 -5.8797 -1.1623 -3.9808 -1.1347 1.4564 1.1583 3.9864 1.8292 5.8754 0.8316 2.6894c1.8831,-1.213 4.6224,-3.4899 6.0207,-5.7519z"/>
   <path class="fil15" d="M104.2206 26.7666c-1.4898,-0.5736 -3.6009,-0.4009 -4.74,0.8461 -0.2648,0.2894 -0.7799,1.0273 -0.9428,1.3566 1.1027,-0.8773 3.0669,-1.0669 4.3539,-0.6022l1.3288 -1.6005z"/>
   <path class="fil15" d="M35.9598 32.0779c-0.1671,-0.8799 -1.0293,-1.5787 -1.4516,-1.7729 -0.7561,-0.3648 -2.0639,-0.4219 -3.0186,-0.2479 0.1714,0.5928 0.3686,1.2881 0.452,1.5729 0.3876,0.0541 1.0235,0.1696 1.3577,0.3217 0.419,0.202 1.1514,0.678 1.3219,1.564 0.228,1.182 0.1682,2.2868 -0.3247,3.1841 1.3509,-1.3254 2.0068,-2.7674 1.6632,-4.6217z"/>
   <path class="fil17" d="M33.8453 37.4036c-0.493,-1.6078 -1.5734,-5.079 -1.5734,-5.079 0.005,0.0159 -0.2128,-0.7428 -0.4708,-1.6114 0.9564,-0.1707 1.8753,-0.1016 2.6313,0.262 0.4229,0.2013 1.1656,0.6707 1.3277,1.5608 0.3737,2.0007 -0.3008,3.4287 -1.9148,4.8676zm4.4807 -5.3501l0 0c-0.6488,-3.4795 -5.1986,-5.3976 -9.709,-2.9369l1.1623 3.9819 1.8289 5.8847 0.8349 2.6805c3.3841,-2.1764 6.7855,-4.7911 5.8829,-9.6102z"/>
   <path class="fil18" d="M98.9019 33.0121c-0.7953,-1.4608 -0.6344,-3.3152 0.5549,-4.6146 1.1438,-1.2465 2.8964,-1.6013 4.3907,-1.0248l-4.9456 5.6394zm7.6802 -6.4791l0 0c-2.5217,-2.3134 -6.441,-2.1336 -8.7413,0.3856 -2.3133,2.5153 -2.1318,6.4368 0.3933,8.7405 0.2056,0.1982 0.4278,0.3604 0.6512,0.5198l8.1341 -9.2113c-0.1437,-0.1499 -0.2882,-0.299 -0.4373,-0.4346z"/>
   <polygon class="fil19" points="117.4498,25.5213 112.9455,29.8615 117.2248,33.7044 "/>
   <path class="fil20" d="M159.2169 34.8202c0.0685,0.2733 0.1034,0.5439 0.095,0.8316 -0.0751,1.7208 -1.6928,3.0494 -3.6215,2.9594 -1.9271,-0.0666 -3.4409,-1.5293 -3.3653,-3.2455 0.0651,-1.6092 1.4987,-2.8831 3.2693,-2.9646 -0.3359,-0.0759 -0.6872,-0.1154 -1.0533,-0.1284 -3.2268,-0.1391 -5.8632,2.146 -5.9743,4.9901 -0.1242,3.0425 2.3146,5.5229 5.4893,5.6606 3.2305,0.1288 5.8661,-2.1636 5.9947,-5.1916 0.0375,-1.0495 -0.2729,-2.0555 -0.834,-2.9115z"/>
   <path class="fil21" d="M61.3454 38.2944c0,1.7284 -1.5718,3.1131 -3.4965,3.1131 -1.9304,0 -3.4962,-1.3856 -3.4962,-3.1131 0,-1.6106 1.3779,-2.9382 3.1435,-3.0926 -0.3385,-0.0615 -0.6901,-0.0966 -1.0535,-0.0966 -3.2259,0 -5.7707,2.3922 -5.7707,5.2414 0,3.0399 2.5458,5.4247 5.7186,5.4247 3.228,0 5.7709,-2.3861 5.7709,-5.4247 0,-1.0523 -0.3481,-2.044 -0.9463,-2.8606 0.0813,0.2459 0.1302,0.5184 0.1302,0.8084z"/>
   <path class="fil22" d="M26.7796 63.7391l0 -0.0002 -2.9144 -6.5047 0 -0.0002 -2.9145 -6.5045 0 -0.0003 -0.0001 0 -2.9143 -6.5046 0 -0.0002 -0.0001 0 -2.9144 -6.5047 0 -0.0002 -0.0003 0 -0.4669 -1.0422 -0.4018 0.1845 -2.8804 1.416c-0.011,0.0013 -1.641,-2.7575 -1.641,-2.7575l-0.5231 -0.8841 0 -0.0001 -0.0001 0 -2.9989 -5.0687 -1.805 -3.0506 -0.6448 -1.0887 0 -0.0001 -0.0001 0 -1.0719 -1.8095 2.8425 -1.8028 0.1653 -0.1048 0.0071 0 0 -0.0044c0.1099,-0.0692 0.2201,-0.1383 0.3311,-0.2068l0.0069 0 0 -0.0041 0.1993 -0.1225 0.0119 0 0 -0.0072 0.197 -0.1195 0.0141 0 0 -0.0085 0.1267 -0.076 0.0709 -0.0422 0.0135 0 0 -0.0082 0.2003 -0.1185 0.0109 0 0 -0.0065 0.2058 -0.1202 0.0055 0 0 -0.0032c0.1937,-0.1125 0.3891,-0.2241 0.5858,-0.3348l0.0054 0 0 -0.003 0.0698 -0.0391 0.0147 0 0 -0.0083c0.0962,-0.0539 0.1929,-0.1074 0.29,-0.1608l0.0058 0 0 -0.0031 0.0709 -0.039 0.0134 0 0 -0.0074 0.0639 -0.0349 0.0206 0 0 -0.0112c0.0969,-0.0528 0.194,-0.1054 0.2916,-0.1577l0.0042 0 0 -0.0021 0.0746 -0.0401 0.0099 0 0 -0.0053 0.0696 -0.037 0.0147 0 0 -0.0079c0.209,-0.111 0.4197,-0.221 0.6316,-0.33l0.0021 0 0 -0.0011 0.0805 -0.0412 0.0038 0 0 -0.002 0.079 -0.0402 0.0056 0 0 -0.0029 0.0772 -0.0393 0.0073 0 0 -0.0037 0.0762 -0.0385 0.0081 0 0 -0.0042 0.0756 -0.0381 0.009 0 0 -0.0045 0.0754 -0.0377 0.009 0 0 -0.0046 0.0754 -0.0376 0.0091 0 0 -0.0045 0.0758 -0.0377 0.0087 0 0 -0.0044 0.0768 -0.0379 0.0077 0 0 -0.0037 0.0782 -0.0386 0.0061 0 0 -0.003 0.0799 -0.0392 0.0047 0 0 -0.0023 0.0817 -0.0399 0.0028 0 0 -0.0013 0.0842 -0.0409 0.0001 0 0 -0.0001c0.2647,-0.1282 0.5314,-0.2549 0.8001,-0.3801l0.0024 0 0 -0.0012c0.121,-0.0561 0.2423,-0.1122 0.3642,-0.1677l0.0161 0 0 -0.0073 0.0765 -0.035 0.0078 0 0 -0.0036 0.2727 -0.123 0.023 0 0 -0.0103 0.0718 -0.032 0.0127 0 0 -0.0056 0.0824 -0.0366 0.002 0 0 -0.001 0.2854 -0.1257 0.0103 0 0 -0.0044c0.1263,-0.0552 0.2528,-0.1099 0.38,-0.1645l0.0003 0 0 -0.0001 0.1044 -0.0447c0.1318,-0.0561 0.2637,-0.1116 0.3958,-0.1664l0.0067 0 0 -0.0027 0.0957 -0.0395 0.0309 0 0 -0.0128 0.0713 -0.0295 0.0133 0 0 -0.0054 0.0896 -0.0369 0.0369 0 0 -0.0149 0.0675 -0.0272 0.0171 0 0 -0.0069 0.0875 -0.0354 0.0391 0 0 -0.0158 0.0655 -0.0264 0.0189 0 0 -0.0076 0.0877 -0.0347 0.0392 0 0 -0.0154 0.0673 -0.0267 0.017 0 0 -0.0068 0.0898 -0.0355 0.0371 0 0 -0.0146 0.0714 -0.0276 0.0551 0 0 -0.0213 0.0543 -0.021 0.0303 0 0 -0.0117 0.0788 -0.0305 0.0478 0 0 -0.0185 0.0628 -0.0237 0.0216 0 0 -0.0081 0.0901 -0.0341 0.0368 0 0 -0.0139 0.0751 -0.0284 0.0092 0 0 -0.0035 0.1039 -0.0388 0.0229 0 0 -0.0085 0.2052 -0.0759 0.0059 0 0 -0.0021 0.1101 -0.0401 0.0167 0 0 -0.006c0.112,-0.0407 0.224,-0.0809 0.336,-0.1207l0.0018 0 0 -0.0006 0.1181 -0.0416 0.0085 0 0 -0.003 0.1116 -0.0393 0.0152 0 0 -0.0054 0.107 -0.0368 0.0198 0 0 -0.0067 0.103 -0.0355 0.0236 0 0 -0.0081 0.0994 -0.0341 0.0274 0 0 -0.0093 0.0986 -0.033 0.028 0 0 -0.0093 0.098 -0.033 0.0286 0 0 -0.0095 0.0984 -0.0327 0.0284 0 0 -0.0092 0.1005 -0.0329 0.0684 0 0 -0.0224 0.0609 -0.0199 0.0658 0 0 -0.0212 0.066 -0.0211 0.0607 0 0 -0.0192 0.0722 -0.023 0.0546 0 0 -0.0174 0.0782 -0.0248 0.0483 0 0 -0.0149 0.0881 -0.0273 0.0388 0 0 -0.012 0.0975 -0.0303 0.0291 0 0 -0.009 0.1099 -0.0332 0.0168 0 0 -0.0051 0.1235 -0.0372 0.0032 0 0 -0.001 0.2822 -0.0834 0.0135 0 0 -0.0039c0.1929,-0.0564 0.386,-0.1115 0.5787,-0.165l0.0127 0 0 -0.0035 0.1406 -0.0388 0.0282 0 0 -0.0077 0.127 -0.0345 0.0419 0 0 -0.0113 0.1162 -0.031 0.0529 0 0 -0.0141 0.1059 -0.028 0.0629 0 0 -0.0163 0.1009 -0.026 0.068 0 0 -0.0176 0.0962 -0.0246 0.0729 0 0 -0.0182 0.096 -0.0241 0.0728 0 0 -0.0182 0.0965 -0.0239 0.0724 0 0 -0.0175 0.1026 -0.0248 0.0664 0 0 -0.016 0.1102 -0.0262 0.0587 0 0 -0.0137 0.1228 -0.0286 0.0461 0 0 -0.0108 0.1379 -0.0315 0.0311 0 0 -0.0069c0.1822,-0.0412 0.3642,-0.0812 0.5459,-0.1197l0.0453 0 0 -0.0096 0.1578 -0.0327 0.0534 0 0 -0.011 0.1523 -0.0311 0.059 0 0 -0.0116 0.1543 -0.0307 0.0991 0 0 -0.0194 0.1201 -0.0228 0.091 0 0 -0.0173 0.1336 -0.025 0.1198 0 0 -0.0217 0.1138 -0.0205 0.0973 0 0 -0.0174 0.1442 -0.0248 0.0669 0 0 -0.0115 0.1837 -0.0307 0.0698 0 0 -0.0114 0.1904 -0.0309 0.0206 0 0 -0.0032 0.2528 -0.0391 0.0006 0 0 -0.0001c0.0959,-0.0145 0.1917,-0.0282 0.2873,-0.042l0.0508 0 0 -0.0074 0.2534 -0.0349 0.1266 0 0 -0.0171 0.1972 -0.0251 0.1829 0 0 -0.0226 0.1651 -0.0197 0.1729 0 0 -0.0197 0.2054 -0.0225 0.1746 0 0 -0.0179 0.2481 -0.0243 0.1321 0 0 -0.0119c0.1181,-0.0107 0.2362,-0.0209 0.3541,-0.0303l0.0259 0 0 -0.0022c0.1887,-0.0149 0.377,-0.0282 0.5646,-0.0401l0.3647 0 0 -0.0211c0.1554,-0.0081 0.3108,-0.0153 0.4652,-0.0211l0.5908 0 0 -0.0175c0.4117,-0.0084 0.8201,-0.0085 1.2249,-0.001l0 0.0185 0.6355 0c0.1406,0.0056 0.2808,0.0125 0.4205,0.0201l0 0.0221 0.3665 0c0.1743,0.0116 0.3478,0.0248 0.5205,0.0396l0 0.0027 0.0305 0c0.1028,0.0088 0.2052,0.0184 0.3075,0.0283l0 0.0139 0.1393 0 0.1987 0.0213 0 0.0209 0.1847 0 0.153 0.0186 0 0.0236 0.186 0 0.1518 0.0203 0 0.022 0.1572 0 0.1809 0.0262 0 0.016 0.104 0 0.1915 0.0301 0 0.0122 0.0734 0c0.0766,0.0127 0.1535,0.0255 0.2297,0.0388 0.1103,0.0124 0.2204,0.0261 0.3304,0.0407l0 0.0049 0.0364 0c0.0866,0.0117 0.173,0.0241 0.2593,0.0371l0 0.0052 0.0335 0c0.0875,0.0134 0.175,0.0274 0.2622,0.0421l0 0.0001 0.0005 0c0.5718,0.0969 1.136,0.2229 1.689,0.3774l0 0.0028 0.0098 0c0.0955,0.0268 0.1909,0.0543 0.2859,0.0828l0 0.0016 0.0051 0 0.1215 0.0371 0 0.0052 0.0168 0c0.2505,0.0776 0.4985,0.1614 0.7434,0.251l0 0.0024 0.0067 0c0.1111,0.0406 0.2215,0.0825 0.3315,0.1256l0 0.001 0.0028 0c0.0697,0.0273 0.1392,0.0551 0.2082,0.0835l0 0.0011 0.0026 0c0.0982,0.0402 0.1958,0.0814 0.2932,0.1235l0 0.0031 0.0072 0c0.1252,0.0544 0.2495,0.1103 0.3729,0.168l0 0.0009 0.0021 0 0.0824 0.0389 0 0.0034 0.0072 0c0.1396,0.0664 0.2779,0.1349 0.4151,0.2054l0 0.0058 0.0113 0 0.0733 0.0381 0 0.004 0.0077 0 0.0766 0.0406 0 0.0016 0.0034 0c0.2717,0.1445 0.5384,0.2975 0.7992,0.4584l0 0.0063 0.0105 0c0.0673,0.0417 0.1342,0.0838 0.2007,0.1266l0 0.0001 0.0002 0 0.1264 0.0824 0 0.0021 0.0035 0 0.0644 0.0426 0.1433 0.0811 0 0.003 0.0053 0c0.069,0.0395 0.1375,0.0797 0.2058,0.1203l0 0.0063 0.0108 0c0.0671,0.04 0.1341,0.0804 0.2005,0.1214l0 0.0054 0.0087 0 0.1179 0.0735 0 0.0109 0.0171 0c0.0651,0.0411 0.1299,0.0826 0.194,0.1246l0 0.0022 0.0034 0c0.0838,0.0548 0.1672,0.1106 0.2501,0.1671l0 0.0018 0.0027 0c0.0557,0.0381 0.111,0.0765 0.1663,0.1153l0 0.0113 0.016 0 0.1106 0.0787 0 0.0059 0.0081 0c0.0538,0.0387 0.1075,0.0778 0.161,0.1172l0 0.0094 0.0127 0c0.0522,0.0387 0.1044,0.0777 0.1562,0.1171l0 0.0096 0.0126 0c0.1239,0.0944 0.2463,0.1908 0.3675,0.2892l0 0.0066 0.0081 0c0.0681,0.0554 0.1358,0.1115 0.203,0.1682l0 0.0007 0.001 0 0.0412 0.0349 0 0.0073 0.0086 0 0.0337 0.0286 0 0.0136 0.0157 0c0.0799,0.0684 0.1591,0.1378 0.2377,0.2078l0 0.0033 0.0037 0 0.0386 0.0345 0 0.0078 0.0085 0c0.4119,0.3713 0.804,0.7651 1.174,1.1797l0 0.003 0.0026 0c0.0704,0.0789 0.14,0.1584 0.2086,0.2387l0 0.0146 0.0125 0 0.0297 0.0352 0 0.0071 0.0061 0c0.0549,0.0647 0.1092,0.13 0.1629,0.1956l0 0.0155 0.0126 0 0.0296 0.0364 0 0.0059 0.0048 0c0.0554,0.0682 0.11,0.137 0.1642,0.2061l0 0.0051 0.0038 0c0.0847,0.1082 0.168,0.2176 0.2497,0.3283l0 0.0096 0.0069 0c0.0403,0.0546 0.0802,0.1094 0.1196,0.1646l0 0.0043 0.0031 0 0.0815 0.1148 0 0.0119 0.0083 0 0.076 0.1095 0 0.0172 0.0119 0c0.1119,0.1631 0.2206,0.3285 0.3261,0.4961l0 0.0108 0.0067 0 0.0779 0.1252 0 0.0014 0.0008 0 0.0414 0.0676 0 0.017 0.0103 0c0.0249,0.041 0.0497,0.0821 0.074,0.1235l0 0.0031 0.0018 0 0.0405 0.0692 0 0.0153 0.0091 0c0.0397,0.0681 0.079,0.1366 0.1175,0.2054l0 0.0058 0.0034 0c0.101,0.18 0.1985,0.3625 0.2924,0.5471l0 0.002 0.0011 0 0.0412 0.0819 0 0.0025 0.0013 0 0.0409 0.0826 0 0.0019 0.001 0 0.0413 0.0843 0 0.0002c0.073,0.1505 0.1433,0.3028 0.2111,0.456l0 0.0086 0.0038 0 0.0432 0.098c0.027,0.0628 0.0536,0.1257 0.0796,0.189l0 0.0087 0.0036 0c0.0276,0.067 0.0547,0.1343 0.0809,0.2017l0 0.0093 0.0036 0 0.0387 0.1002 0 0.0266 0.0099 0c0.0255,0.0674 0.0504,0.135 0.0746,0.2028l0 0.0084 0.003 0 0.0391 0.1122 0 0.0144 0.005 0c0.0274,0.08 0.0539,0.1602 0.0795,0.2407l0 0.0128 0.0042 0 0.0381 0.122 0 0.0046 0.0013 0 0.0409 0.1365 0 0.0324 0.0093 0 0.033 0.1156 0 0.0111 0.0031 0c0.0134,0.048 0.0265,0.0959 0.0392,0.1441l0 0.0249 0.0064 0c0.0435,0.1655 0.0835,0.332 0.1202,0.4992l0 0.0077 0.0017 0c0.014,0.0644 0.0274,0.1289 0.0406,0.1935l0 0.0176 0.0034 0c0.0135,0.0672 0.0266,0.1344 0.0388,0.2017l0 0.0516 0.0092 0c0.0115,0.0642 0.0224,0.1284 0.0329,0.1928l0 0.0184 0.0032 0c0.014,0.0866 0.0268,0.1736 0.039,0.2605l0 0.0352 0.0048 0c0.0138,0.0994 0.0261,0.199 0.0375,0.299l0 0.0812 0.0091 0c0.0127,0.1181 0.0236,0.2365 0.0332,0.3555l0 0.0247 0.002 0c0.0233,0.2965 0.0365,0.595 0.0402,0.8953l0 0.2875 0.0006 0 -0.0005 0.0421 -0.0001 0 0 0.0157c-0.0035,0.2892 -0.0162,0.5797 -0.037,0.8715l-0.0052 0 0 0.0701c-0.0101,0.1312 -0.0218,0.2627 -0.0355,0.3944l-0.0068 0 0 0.0635c-0.0112,0.1053 -0.0237,0.211 -0.0371,0.3167l-0.0052 0 0 0.0392c-0.0129,0.0995 -0.0269,0.1989 -0.0419,0.2988l-0.0003 0 0 0.0019c-0.0125,0.0838 -0.0257,0.1676 -0.0397,0.2515l-0.0024 0 0 0.014c-0.011,0.0657 -0.0224,0.1314 -0.0343,0.1972l-0.0079 0 0 0.0448c-0.0127,0.0695 -0.0261,0.1392 -0.0398,0.2086l-0.0025 0 0 0.0135c-0.0131,0.0659 -0.0262,0.1318 -0.04,0.1977l-0.0023 0 0 0.0108c-0.018,0.0859 -0.0368,0.1717 -0.0562,0.2578l0.139 -0.0997 0.0018 0 0 -0.0012 0.1185 -0.0833 0.008 0 0 -0.0057 0.1142 -0.0787 0.0126 0 0 -0.0085 0.0495 -0.0338 0.0349 0 0 -0.0236 0.0278 -0.0187 0.0145 0 0 -0.0097 0.0488 -0.0325 0.0357 0 0 -0.0236 0.0283 -0.0187 0.0139 0 0 -0.0091 0.0503 -0.033 0.0342 0 0 -0.0222 0.031 -0.0201 0.0111 0 0 -0.0072 0.0549 -0.035 0.0296 0 0 -0.0189 0.0368 -0.0234 0.0055 0 0 -0.0035 0.0617 -0.0386 0.0226 0 0 -0.0143 0.0451 -0.028 0.0395 0 0 -0.0243 0.0293 -0.0179 0.0129 0 0 -0.0079 0.0564 -0.0344 0.0281 0 0 -0.0169 0.042 -0.0254 0.0003 0 0 -0.0001 0.0705 -0.042 0.0139 0 0 -0.0081c0.1666,-0.0984 0.3354,-0.1946 0.506,-0.2877l0.0008 0 0 -0.0005 0.077 -0.0417 0.0075 0 0 -0.004 0.0711 -0.0382 0.0133 0 0 -0.007 0.0668 -0.0352 0.0178 0 0 -0.0094 0.063 -0.0329 0.0214 0 0 -0.011 0.0606 -0.0313 0.024 0 0 -0.0122 0.0589 -0.0299 0.0254 0 0 -0.0128 0.059 -0.0295 0.0256 0 0 -0.0126 0.0599 -0.0296 0.0244 0 0 -0.012 0.0622 -0.0303 0.0223 0 0 -0.0107 0.0657 -0.0315 0.0188 0 0 -0.0089 0.0703 -0.0333 0.0141 0 0 -0.0067 0.0765 -0.0355 0.008 0 0 -0.0039 0.0838 -0.0384 0.0007 0 0 -0.0003c0.086,-0.0392 0.1723,-0.0776 0.259,-0.1153 0.0768,-0.0326 0.1541,-0.0642 0.2314,-0.0956l0.0164 0 0 -0.0065 0.0888 -0.0357 0.0378 0 0 -0.0151 0.07 -0.0271 0.0145 0 0 -0.0056 0.0948 -0.0366 0.0319 0 0 -0.012 0.0809 -0.0303 0.0459 0 0 -0.0171 0.069 -0.0251 0.0155 0 0 -0.0055 0.1013 -0.0367 0.0253 0 0 -0.0089 0.0957 -0.0333 0.031 0 0 -0.0108 0.0926 -0.0315 0.0341 0 0 -0.0114c0.1654,-0.0553 0.3311,-0.1078 0.4972,-0.1575l0.0096 0 0 -0.0029 0.1338 -0.0394 0.0351 0 0 -0.0099 0.1146 -0.0323 0.0544 0 0 -0.0152 0.1002 -0.0269 0.0687 0 0 -0.0185 0.0928 -0.0238 0.034 0 0 -0.0087 0.1349 -0.0336 0.034 0 0 -0.0082 0.1433 -0.034 0.0255 0 0 -0.0059 0.162 -0.0364 0.0069 0 0 -0.0015c0.0639,-0.014 0.1278,-0.0276 0.1915,-0.0406l0.0198 0 0 -0.0041c0.0644,-0.0132 0.129,-0.0258 0.1936,-0.0382l0.0596 0 0 -0.0115 0.1701 -0.0307 0.0835 0 0 -0.0143 0.1707 -0.028 0.0827 0 0 -0.0127c0.0671,-0.0102 0.1343,-0.0201 0.2015,-0.0294l0.0517 0 0 -0.0073c0.0937,-0.0127 0.1876,-0.0241 0.2812,-0.035l0.0146 0 0 -0.0017c0.1332,-0.0153 0.266,-0.0288 0.3991,-0.0405l0.1922 0 0 -0.0157c0.151,-0.0113 0.3019,-0.02 0.4523,-0.0266l0.2657 0 0 -0.0092c0.1834,-0.0047 0.3666,-0.0059 0.5492,-0.0035l0 0.0127 0.4462 0c0.204,0.009 0.4074,0.0225 0.6099,0.0403l0 0.002 0.0213 0c0.1057,0.0094 0.2114,0.0202 0.3165,0.0322l0 0.01 0.0886 0c0.0691,0.0083 0.138,0.0172 0.207,0.0265l0 0.0158 0.1125 0c0.0612,0.0087 0.1222,0.0178 0.1832,0.0275l0 0.0146 0.09 0c0.0686,0.0113 0.1372,0.0231 0.2056,0.0356l0 0.0067 0.0369 0c0.0722,0.0133 0.1445,0.0271 0.2166,0.0415l0 0.0007 0.0037 0c0.1118,0.0225 0.2232,0.0463 0.3342,0.0717l0 0.0127 0.0552 0 0.1137 0.0271 0 0.0152 0.0624 0 0.1064 0.0269 0 0.0153 0.0595 0 0.1094 0.0292 0 0.0131 0.0487 0 0.1204 0.0339 0 0.0084 0.0297 0 0.1392 0.041 0 0.0011 0.0035 0 0.1232 0.0377 0 0.0045 0.0145 0c0.0799,0.0249 0.1597,0.0504 0.239,0.077l0 0.0076 0.022 0 0.1045 0.0358 0 0.0063 0.0186 0 0.1082 0.0383 0 0.004 0.0109 0 0.0735 0.0264 0 0.0158 0.0426 0 0.0842 0.0315 0 0.0108 0.0286 0 0.0559 0.0215 0 0.0207 0.0528 0 0.0738 0.0289 0 0.0133 0.0326 0 0.094 0.0383 0 0.0039 0.0097 0 0.0748 0.0313 0 0.011 0.026 0c0.0834,0.0352 0.1667,0.0711 0.2493,0.1083l-0.4467 -4.8413 -3.0254 0.7848 -0.2246 -4.7097 0 -0.0013 -0.0001 0 -0.2309 -4.8415 17.7797 -5.6799 -0.1529 7.3239 0.5135 -0.9843 0.0001 0 0 -0.0002 0.5068 -0.9712 0.0001 0 0 -0.0002 0.5067 -0.9713 0.0001 0 0 -0.0002 0.5069 -0.9714 0.0001 0 0 -0.0002 0.5067 -0.9713 0.0001 0 0 -0.0001 0.5069 -0.9714 0 -0.0002 0.5068 -0.9714 0.0001 0 0 -0.0001 0.4215 -0.8078 11.3722 10.09c0.1022,-0.0961 0.206,-0.1912 0.3111,-0.2851l0.018 0 0 -0.0161 0.0295 -0.0262 0.0128 0 0 -0.0112 0.0351 -0.031 0.0071 0 0 -0.0063 0.0411 -0.036 0.001 0 0 -0.001c0.0484,-0.0421 0.0972,-0.084 0.146,-0.1257l0.023 0 0 -0.0196 0.0267 -0.0226 0.0156 0 0 -0.0131 0.0346 -0.0291 0.0075 0 0 -0.0064c0.0653,-0.0546 0.1311,-0.1088 0.1974,-0.1626l0.0139 0 0 -0.0112 0.0381 -0.0309 0.0042 0 0 -0.0034c0.1229,-0.0989 0.2476,-0.1964 0.3741,-0.2924l0.006 0 0 -0.0046 0.1062 -0.0798 0.0204 0 0 -0.0153 0.0365 -0.027 0.0058 0 0 -0.0043 0.1094 -0.0802 0.0173 0 0 -0.0126 0.041 -0.0295 0.0013 0 0 -0.001 0.0576 -0.0413 0.0267 0 0 -0.019 0.0328 -0.0232 0.0094 0 0 -0.0067 0.1112 -0.0779 0.0156 0 0 -0.0107 0.1071 -0.0736 0.0196 0 0 -0.0136 0.1053 -0.071 0.0214 0 0 -0.0142 0.0419 -0.0279 0.0003 0 0 -0.0002c0.1516,-0.1006 0.3058,-0.1991 0.4618,-0.2956l0.0029 0 0 -0.0018 0.0656 -0.0404 0.0188 0 0 -0.0115 0.1207 -0.0729 0.006 0 0 -0.0036 0.0649 -0.0387 0.0195 0 0 -0.0117 0.052 -0.0306 0.0325 0 0 -0.019 0.0399 -0.0232 0.0024 0 0 -0.0013 0.0708 -0.0409 0.0137 0 0 -0.0079 0.0601 -0.0343 0.0242 0 0 -0.0137 0.0506 -0.0286 0.034 0 0 -0.0189 0.0418 -0.0233 0.0005 0 0 -0.0003 0.0761 -0.0419 0.0082 0 0 -0.0045 0.0693 -0.0377 0.0152 0 0 -0.0084c0.2377,-0.1286 0.4798,-0.2525 0.7259,-0.3718l0.0344 0 0 -0.0167 0.0536 -0.0256 0.0309 0 0 -0.0147 0.058 -0.0275 0.0264 0 0 -0.0125 0.0639 -0.0298 0.0206 0 0 -0.0096 0.0707 -0.0325 0.0138 0 0 -0.0064 0.079 -0.0359 0.0054 0 0 -0.0024 0.0891 -0.0398 0.0377 0 0 -0.0168 0.058 -0.0255 0.0263 0 0 -0.0115 0.0706 -0.0306 0.0139 0 0 -0.006c0.1082,-0.0467 0.2171,-0.0924 0.327,-0.1372l-1.1296 -1.3774 0 -0.0001 -0.0001 0 -1.1596 -1.4142 6.3973 -7.3716 0.0001 0 0 -0.0001 6.8548 -7.8986 0.0188 0 7.3327 10.943 -10.5272 5.6578c0.1965,0.0041 0.3921,0.0118 0.5871,0.0223l0 0.0192 0.31 0c0.0941,0.0067 0.1877,0.0146 0.2813,0.0227l0 0.0195 0.2081 0c0.2134,0.0213 0.4258,0.0465 0.6368,0.0756l0 0.0088 0.0621 0c0.0637,0.009 0.1276,0.0185 0.1912,0.0282l0 0.0141 0.0903 0 0.1631 0.0267 0 0.0155 0.0914 0 0.1198 0.0215 0 0.0207 0.1125 0 0.1409 0.0274 0 0.0148 0.075 0c0.0597,0.0121 0.119,0.0247 0.1783,0.0374l0 0.0049 0.0235 0c0.0626,0.0135 0.1252,0.0274 0.1877,0.0417l0 0.0005 0.0025 0 0.1663 0.039 0 0.0033 0.014 0 0.155 0.038 0 0.0041 0.0167 0 0.11 0.0278 0 0.0145 0.0551 0 0.1139 0.0304 0 0.0119 0.0445 0 0.0821 0.0228 0 0.0194 0.0688 0 0.1001 0.0286 0 0.0136 0.0458 0 0.0811 0.0239 0 0.0183 0.0615 0 0.1073 0.0333 0 0.009 0.0288 0 0.0979 0.0309 0 0.0113 0.0348 0c0.2013,0.065 0.4009,0.1338 0.5987,0.2064l0 0.0048 0.0132 0 0.0713 0.0265 0 0.0156 0.0423 0 0.0844 0.0324 0 0.0099 0.0258 0 0.0587 0.0226 0 0.0197 0.0508 0 0.0758 0.0304 0 0.0118 0.0294 0 0.0551 0.0222 0 0.0201 0.0496 0 0.077 0.0322 0 0.0099 0.024 0 0.0606 0.0254 0 0.0169 0.0398 0 0.0869 0.0376 0 0.0046 0.0106 0 0.0738 0.0321 0 0.0102 0.0232 0 0.0613 0.0276 0 0.0145 0.0321 0c0.0599,0.027 0.1197,0.0543 0.179,0.082l0 0.0025 0.0054 0c0.0832,0.0387 0.1657,0.0782 0.248,0.1183l0 0.0084 0.0175 0 0.067 0.033 0 0.0093 0.0182 0 0.0663 0.0331 0 0.0091 0.0184 0 0.0661 0.0334 0 0.0089 0.0171 0 0.0674 0.0349 0 0.0072 0.0139 0 0.0706 0.0365 0 0.0058 0.0109 0 0.0311 0.0167 0 0.0255 0.0477 0 0.0368 0.0198 0 0.0225 0.0419 0 0.0427 0.0231 0 0.0191 0.0346 0 0.0497 0.0276 0 0.0146 0.0265 0 0.0581 0.0322 0 0.01 0.0177 0 0.0667 0.0381 0 0.0042 0.0074 0 0.1193 0.0687 0 0.0157 0.0265 0 0.058 0.0342 0 0.0081 0.0136 0 0.0709 0.042 0 0.0002 0.0004 0c0.1134,0.068 0.2259,0.1377 0.3375,0.2087l0 0.0025 0.004 0 0.1227 0.0791 0 0.0053 0.0081 0 0.0342 0.022 0 0.0202 0.0311 0 0.0533 0.0357 0 0.0066 0.01 0 0.0322 0.0215 0 0.0208 0.0309 0 0.0536 0.0357 0 0.0065 0.0094 0 0.0329 0.0226 0 0.0196 0.0284 0 0.0559 0.0385 0 0.0037 0.0055 0 0.0368 0.0253 0 0.017 0.0241 0 0.1025 0.0726 0 0.0118 0.0166 0 0.0257 0.0182 0 0.024 0.0333 0 0.0512 0.0375 0 0.0048 0.0067 0 0.0355 0.026 0 0.0162 0.0224 0 0.1043 0.0777 0 0.0067 0.009 0c0.0536,0.0401 0.107,0.0806 0.16,0.1215l0 0.0053 0.0068 0c0.0685,0.0529 0.1366,0.1064 0.2044,0.1605l0 0.0084 0.0104 0c0.0674,0.0538 0.1342,0.1081 0.2007,0.1631l0 0.0058 0.0072 0 0.035 0.0291 0 0.0132 0.0156 0 0.0267 0.0225 0 0.0196 0.0232 0 0.0189 0.0161 0 0.0262 0.0312 0 0.0956 0.0821 0 0.0024 0.0026 0 0.0396 0.0342 0 0.0081 0.0092 0 0.0331 0.0286 0 0.0135 0.0154 0 0.0267 0.0238 0 0.0185 0.0209 0 0.0213 0.0191 0 0.0231 0.026 0 0.0163 0.0145 0 0.0278 0.0312 0c0.0462,0.0416 0.092,0.0837 0.1376,0.1258l0 0.0008 0.0011 0 0.0412 0.038 0 0.0043 0.0048 0 0.0375 0.0355 0 0.0067 0.0072 0 0.0351 0.0332 0 0.009 0.0096 0 0.0326 0.0308 0 0.0114 0.0122 0c0.1241,0.1186 0.2468,0.2395 0.3678,0.3626l0 0.0176 0.0174 0 0.0249 0.0256 0 0.0167 0.0163 0 0.0261 0.0267 0 0.0155 0.0151 0 0.0271 0.0282 0 0.014 0.0133 0 0.029 0.0305 0 0.0117 0.011 0 0.031 0.0327 0 0.0096 0.0091 0 0.0332 0.0348 0 0.0075 0.007 0 0.0352 0.038 0 0.0042 0.0041 0 0.0383 0.0416 0 0.0006 0.0005 0 0.0839 0.0911 0 0.0356 0.0321 0 0.01 0.0114 0 0.0308 0.0277 0 0.0146 0.0162 0 0.026 0.0233 0 0.019 0.0212 0 0.0211 0.0188 0 0.0234 0.0267 0 0.0155 0.0135 0 0.0288 0.0328 0 0.0095 0.0081 0 0.0341 0.039 0 0.0031 0.0027 0c0.0558,0.0643 0.1112,0.1292 0.1662,0.1947l0 0.0165 0.0139 0 0.0284 0.0344 0 0.0079 0.0065 0c0.0343,0.0415 0.0687,0.0828 0.1028,0.1246l1.0285 1.2701 1.416 -8.6722 12.3988 0 0.3249 -1.9392 11.7805 0 2.6721 16.8686 0.1271 -0.0912 0.006 0 0 -0.0042 0.114 -0.0802 0.0126 0 0 -0.0087c0.2716,-0.1888 0.5503,-0.369 0.8351,-0.5404l0.0098 0 0 -0.006c0.0678,-0.0408 0.1361,-0.0809 0.2048,-0.1208l0.0063 0 0 -0.0037c0.0967,-0.056 0.1941,-0.1111 0.2923,-0.1652l0.0035 0 0 -0.0019c0.3553,-0.1956 0.7198,-0.3782 1.0928,-0.5472l0.0053 0 0 -0.0024c0.0935,-0.0422 0.1873,-0.0837 0.2821,-0.1242l0.0137 0 0 -0.0059c0.0961,-0.0412 0.1931,-0.0815 0.2903,-0.1209l0.0053 0 0 -0.0022c0.069,-0.0279 0.138,-0.0553 0.2074,-0.0822l0.0038 0 0 -0.0016 0.0761 -0.0293c0.0871,-0.0329 0.1744,-0.0648 0.2617,-0.0959l0.0001 0 0 -0.0001 0.1186 -0.042 0.008 0 0 -0.0028 0.115 -0.0395 0.0541 0 0 -0.0183 0.0726 -0.0239 0.054 0 0 -0.0179 0.0756 -0.0244 0.0511 0 0 -0.0162 0.0824 -0.0259 0.0443 0 0 -0.0137 0.0947 -0.0286 0.0321 0 0 -0.0097 0.1113 -0.0326 0.0152 0 0 -0.0044c0.1494,-0.0431 0.299,-0.084 0.4488,-0.1222l0.0159 0 0 -0.004 0.1534 -0.0383 0.0579 0 0 -0.0139 0.1206 -0.0283 0.0483 0 0 -0.011 0.1401 -0.0313 0.071 0 0 -0.0151 0.1294 -0.027 0.0818 0 0 -0.0162 0.1351 -0.0261 0.0339 0 0 -0.0062c0.0673,-0.0125 0.1348,-0.0245 0.2022,-0.036l0.0089 0 0 -0.0016c0.0836,-0.0142 0.1672,-0.0279 0.2509,-0.0407l0.0446 0 0 -0.0067c0.0844,-0.0126 0.1685,-0.0244 0.2527,-0.0356l0.1275 0 0 -0.0164c0.0748,-0.0092 0.1495,-0.0177 0.2243,-0.0257l0.1558 0 0 -0.0159c0.1016,-0.0098 0.2032,-0.0187 0.3049,-0.0264l0.0752 0 0 -0.0052c0.6388,-0.0447 1.2739,-0.0461 1.9007,-0.0046l0 0.0098 0.136 0c0.0956,0.0074 0.1911,0.0156 0.2865,0.0249l0 0.0174 0.1677 0c0.0992,0.0109 0.1982,0.023 0.2969,0.0362l0 0.0059 0.0449 0c0.1548,0.0211 0.3087,0.0452 0.4621,0.0716l0 0.013 0.0742 0 0.1368 0.0251 0 0.0171 0.0873 0c0.0414,0.0082 0.0827,0.0162 0.1238,0.0248l0 0.0175 0.0822 0 0.1289 0.0282 0 0.0139 0.0617 0 0.1495 0.0353 0 0.007 0.0289 0c0.1034,0.0252 0.2062,0.0519 0.3091,0.0798l0 0.0047 0.0171 0c0.0932,0.0254 0.1861,0.0518 0.2787,0.0794l0 0.005 0.0168 0 0.1098 0.0331 0 0.0091 0.0288 0 0.098 0.0311 0 0.0112 0.0356 0 0.091 0.0302 0 0.0121 0.0365 0 0.0903 0.0307 0 0.0114 0.0327 0 0.0939 0.0329 0 0.0094 0.0258 0 0.101 0.0366 0 0.0056 0.0153 0 0.1113 0.0422 0 0.0001 0.0004 0c0.0706,0.0269 0.1409,0.0541 0.2107,0.0823l0 0.0021 0.0052 0 0.0793 0.0325 0 0.0097 0.0235 0c0.0629,0.026 0.1253,0.0525 0.1877,0.0795l0 0.005 0.0117 0 0.0728 0.032 0 0.0102 0.0228 0 0.0617 0.0275 0 0.0147 0.0328 0 0.0515 0.0239 0 0.0184 0.0397 0 0.0872 0.0408 0 0.0015 0.003 0 0.0814 0.0391 0 0.003 0.0061 0 0.0783 0.0383 0 0.004 0.0078 0 0.0767 0.0383 0 0.0039 0.0079 0 0.0766 0.0392 0 0.0031 0.0061 0 0.0782 0.0406 0 0.0016 0.0034 0 0.025 0.0131c0.0189,0.0152 0.0406,0.0363 0.0752,0.0498l0.1075 -0.9923 0.0001 0 0 -0.001 0.085 -0.7833 -2.6692 -0.5984 -0.0345 -2.745 0 -0.0116 -0.0003 0 -0.0893 -7.0933 6.5098 1.4333 0.0002 0 11.203 2.4663 1.3229 6.5365 1.4329 -5.9034 12.2716 2.9828 0 0.0001 0.0008 0 2.7871 0.6774 0 0.0468 -8.5326 25.7175 -2.9989 9.0391 -2.9303 8.8327 -3.1098 -0.9761 0 -0.0001 -0.0004 0 -5.7866 -1.8162 -0.0001 0 -2.2219 -0.6974 -0.0165 -0.9049 0 -0.0029 -0.0633 -3.4657 -10.6628 -1.5046 0.293 -2.6327 0 -0.0012 0.0422 -0.379 0.0001 0 0 -0.0009 0.0423 -0.3793 0 -0.0005 0.2605 -2.3412c-0.0961,0.0492 -0.1932,0.0976 -0.291,0.1453l-0.0119 0 0 0.0057 -0.075 0.0364 -0.0096 0 0 0.0046 -0.0791 0.0377 -0.0051 0 0 0.0025c-0.1523,0.0721 -0.3065,0.1417 -0.4614,0.2087l-0.0033 0 0 0.0015c-0.0655,0.0282 -0.131,0.0559 -0.1968,0.083l-0.0145 0 0 0.006c-0.1336,0.0549 -0.268,0.1076 -0.4029,0.1574l-0.1283 0.0476 -0.0179 0 0 0.0066 -0.0984 0.0357 -0.0282 0 0 0.01 -0.0914 0.0322 -0.0352 0 0 0.0124 -0.0874 0.0299 -0.0394 0 0 0.0135 -0.0864 0.0288 -0.0404 0 0 0.0133 -0.0889 0.0288 -0.08 0 0 0.0254 -0.0539 0.0169 -0.0727 0 0 0.0225 -0.0657 0.0197 -0.0611 0 0 0.0183 -0.0813 0.024 -0.0453 0 0 0.0129 -0.1029 0.0292 -0.0239 0 0 0.0067 -0.1305 0.0356 -0.0383 0 0 0.0101 -0.1229 0.0321 -0.0039 0 0 0.001 -0.1647 0.0413 -0.0042 0 0 0.0009 -0.1736 0.0413 -0.0375 0 0 0.0088c-0.0501,0.0115 -0.1002,0.0225 -0.1502,0.0334l-0.1032 0 0 0.0221 -0.0971 0.0201 -0.1141 0 0 0.0228 -0.102 0.0195 -0.109 0 0 0.0201 -0.1257 0.0222 -0.0855 0 0 0.0144c-0.0578,0.0096 -0.1155,0.019 -0.1732,0.0277l-0.0802 0 0 0.0121c-0.1896,0.028 -0.379,0.0521 -0.5683,0.0724l-0.1921 0 0 0.0193c-0.0909,0.0085 -0.1816,0.0161 -0.2724,0.023l-0.3189 0 0 0.0201c-0.4534,0.0234 -0.9043,0.0248 -1.3517,0.0043l0 -0.0244 -0.4011 0c-0.1633,-0.0125 -0.3262,-0.0278 -0.4883,-0.0461l0.8494 5.3898 -6.5914 -1.162 -0.0002 0 -9.4294 -1.6623 -0.8245 -7.1379 -1.2349 2.3798 -1.021 1.9674 -1.6825 -3.1077 0 -0.0001 -2.0084 -3.7101 -0.7751 5.0849 -3.6368 -0.5723 0 -0.0001 -0.0005 0 -4.5613 -0.7179 0 -0.0001 -0.0008 0 -5.9318 -0.9336 1.1003 -6.7354c-0.0606,0.0364 -0.1215,0.0724 -0.1827,0.1081l-0.0115 0 0 0.0069c-0.0689,0.0402 -0.1379,0.0803 -0.2073,0.1198l-0.0038 0 0 0.0023 -0.0707 0.04 -0.0138 0 0 0.0079 -0.0612 0.0343 -0.0234 0 0 0.0131 -0.0523 0.0292 -0.0321 0 0 0.0177 -0.0441 0.0244 -0.0404 0 0 0.022 -0.0369 0.0203 -0.0053 0 0 0.0028 -0.0727 0.0394 -0.0116 0 0 0.0064 -0.067 0.0359 -0.0176 0 0 0.0094 -0.0616 0.0327 -0.023 0 0 0.0122 -0.0571 0.0301 -0.0272 0 0 0.0142 -0.0536 0.028 -0.0309 0 0 0.016c-0.2707,0.14 -0.5456,0.2756 -0.8251,0.4065l-0.0197 0 0 0.0092 -0.071 0.033 -0.0135 0 0 0.0063 -0.078 0.0359 -0.0064 0 0 0.003 -0.0864 0.0392 -0.0403 0 0 0.0184 -0.0535 0.0239 -0.0309 0 0 0.0138 -0.064 0.0285 -0.0206 0 0 0.0091 -0.0751 0.033 -0.0092 0 0 0.0041 -0.088 0.0382 -0.0389 0 0 0.0167 -0.0592 0.0255 -0.0252 0 0 0.0108 -0.0741 0.0315 -0.0103 0 0 0.0043 -0.0905 0.0379 -0.0363 0 0 0.0151 -0.0653 0.0271 -0.0192 0 0 0.0079 -0.0837 0.0343 -0.0006 0 0 0.0003c-0.0696,0.0283 -0.1396,0.0563 -0.2097,0.0842l-0.0015 0 0 0.0006c-0.1073,0.0427 -0.2152,0.0847 -0.324,0.1261l-0.014 0 0 0.0054 -0.0974 0.0369 -0.0294 0 0 0.0111 -0.0836 0.0311 -0.0007 0 0 0.0003 -0.1135 0.0419 -0.0133 0 0 0.0049 -0.1026 0.0373 -0.024 0 0 0.0086 -0.0937 0.0337 -0.0329 0 0 0.0117 -0.0865 0.0305 -0.0403 0 0 0.0142 -0.0808 0.028 -0.046 0 0 0.0159 -0.0768 0.0263 -0.0498 0 0 0.017 -0.075 0.0253 -0.0095 0 0 0.0032 -0.1171 0.039 -0.0095 0 0 0.0032 -0.1191 0.0391 -0.0076 0 0 0.0025 -0.1225 0.0396 -0.0042 0 0 0.0014c-0.1783,0.0571 -0.3581,0.113 -0.5397,0.1675l-0.0095 0 0 0.0028 -0.1323 0.0395 -0.0365 0 0 0.0108 -0.1077 0.0315 -0.0191 0 0 0.0055 -0.1277 0.0367 -0.0411 0 0 0.0118 -0.1083 0.0305 -0.0607 0 0 0.017 -0.0907 0.0251 -0.036 0 0 0.01 -0.1187 0.0323 -0.0502 0 0 0.0135 -0.1077 0.0287 -0.0191 0 0 0.0051 -0.1418 0.0372 -0.027 0 0 0.0069 -0.1363 0.0352 -0.0328 0 0 0.0084c-0.1422,0.0362 -0.2857,0.0716 -0.4299,0.1066 -0.0756,0.0185 -0.1512,0.0365 -0.2267,0.0541l-0.0192 0 0 0.0044 -0.166 0.0377 -0.0451 0 0 0.0099 -0.1493 0.0324 -0.0618 0 0 0.013 -0.1427 0.0292 -0.0685 0 0 0.0137 -0.1476 0.0286 -0.0635 0 0 0.0121 -0.165 0.03 -0.0461 0 0 0.0082 -0.1999 0.0341 -0.0114 0 0 0.0018c-0.0847,0.014 -0.1695,0.0275 -0.2541,0.0404l-0.0414 0 0 0.0063c-0.0832,0.0125 -0.1665,0.0245 -0.2495,0.036l-0.0884 0 0 0.0121c-0.079,0.0105 -0.1577,0.0205 -0.2364,0.0301l-0.1015 0 0 0.0123c-0.0901,0.0105 -0.1799,0.0206 -0.2698,0.0299l-0.0679 0 0 0.0069c-0.1274,0.013 -0.2545,0.0247 -0.3815,0.0353l0 12.5416 -4.1804 -2.066 0 -0.0002 -0.0006 0 -10.9395 -5.4066 0 -0.0001 -0.0001 0 -3.6747 -1.8161 0 -0.0001 -0.0003 0 -7.4131 -3.6638 0.0199 11.2465 -3.2931 0.485 -9.25 1.3621 -0.3383 -3.6423 0 -0.0008 -0.0002 0 -0.2016 -2.1721c-0.1082,0.1057 -0.2178,0.2102 -0.3289,0.3135l-0.0184 0 0 0.0172 -0.0272 0.025 -0.0151 0 0 0.0139 -0.0308 0.0284 -0.0115 0 0 0.0105 -0.0346 0.0318 -0.0075 0 0 0.0067 -0.039 0.0354 -0.0032 0 0 0.0029c-0.0774,0.07 -0.1556,0.1394 -0.2344,0.2083l-0.019 0 0 0.0166 -0.0295 0.0256 -0.0128 0 0 0.011 -0.0362 0.0313 -0.0059 0 0 0.0051c-0.0976,0.0838 -0.1961,0.1666 -0.2958,0.2483l-0.0001 0 0 0.0001c-0.069,0.0568 -0.1384,0.113 -0.2084,0.1688l-0.0027 0 0 0.0022c-0.0525,0.0418 -0.1051,0.0832 -0.158,0.1245l-0.0109 0 0 0.0085 -0.0987 0.076 -0.028 0 0 0.0213 -0.0273 0.0208 -0.015 0 0 0.0113 -0.0411 0.031 -0.0012 0 0 0.0008 -0.0551 0.0415 -0.0291 0 0 0.0217 -0.0277 0.0205 -0.0146 0 0 0.0109 -0.1004 0.0735 -0.0264 0 0 0.0192 -0.0318 0.0231 -0.0103 0 0 0.0073 -0.1082 0.0772 -0.0186 0 0 0.013 -0.0413 0.0291 -0.0009 0 0 0.0006 -0.1205 0.0839 -0.0062 0 0 0.0043c-0.0809,0.0556 -0.1621,0.1104 -0.244,0.1647l-0.0093 0 0 0.0062 -0.1195 0.0783 -0.0074 0 0 0.0048 -0.0577 0.0373 -0.0266 0 0 0.017 -0.0395 0.0253 -0.0027 0 0 0.0018 -0.0641 0.0404 -0.0204 0 0 0.0128 -0.1152 0.0717 -0.0115 0 0 0.0071 -0.0572 0.0351 -0.0273 0 0 0.0166 -0.113 0.0679 -0.0138 0 0 0.0081 -0.0574 0.0342 -0.0269 0 0 0.0159 -0.118 0.0684 -0.0089 0 0 0.0051 -0.0649 0.0372 -0.0194 0 0 0.011c-0.1202,0.0683 -0.2415,0.1349 -0.3636,0.2002l-0.0166 0 0 0.0088 -0.0631 0.0334 -0.0215 0 0 0.0113 -0.0592 0.0309 -0.0251 0 0 0.013 -0.0568 0.0292 -0.0278 0 0 0.0143 -0.0554 0.028 -0.0289 0 0 0.0146 -0.0554 0.0276 -0.0291 0 0 0.0145 -0.0562 0.0278 -0.0283 0 0 0.0138 -0.0583 0.0283 -0.0261 0 0 0.0126 -0.0622 0.0297 -0.0223 0 0 0.0105 -0.0676 0.0318 -0.0169 0 0 0.0079 -0.0741 0.0343 -0.0103 0 0 0.0047 -0.0821 0.0375 -0.0023 0 0 0.001c-0.1097,0.0497 -0.2202,0.098 -0.3313,0.1451l-0.1558 0.065 -0.0199 0 0 0.0083 -0.0841 0.034 -0.0004 0 0 0.0001 -0.1047 0.0421 -0.0218 0 0 0.0085 -0.0869 0.0338 -0.04 0 0 0.0156 -0.0694 0.0265 -0.0149 0 0 0.0057 -0.0978 0.0366 -0.029 0 0 0.0109 -0.0865 0.0314 -0.0401 0 0 0.0144 -0.0772 0.0278 -0.0496 0 0 0.0171 -0.0724 0.0252 -0.0121 0 0 0.0042 -0.1121 0.0379 -0.0145 0 0 0.0049 -0.1125 0.0374 -0.0143 0 0 0.0045c-0.1308,0.0425 -0.262,0.0832 -0.3933,0.1221l-0.0291 0 0 0.0085 -0.1155 0.0338 -0.0533 0 0 0.0149 -0.0979 0.0273 -0.0289 0 0 0.0082 -0.1278 0.0341 -0.0411 0 0 0.011 -0.1223 0.0313 -0.0466 0 0 0.0117 -0.124 0.0304 -0.045 0 0 0.0108 -0.1354 0.0315 -0.0335 0 0 0.0075 -0.1573 0.0347 -0.0115 0 0 0.0024c-0.064,0.0137 -0.1281,0.0271 -0.192,0.0399l-0.0192 0 0 0.0038c-0.0663,0.0132 -0.1326,0.0261 -0.1987,0.0383l-0.0547 0 0 0.0103 -0.1824 0.032 -0.1132 0 0 0.0184 -0.1519 0.0238 -0.1015 0 0 0.0151c-0.066,0.0095 -0.1318,0.0186 -0.1978,0.0272l-0.0556 0 0 0.007c-0.2587,0.0327 -0.5172,0.0586 -0.7751,0.0774l-0.2809 0 0 0.0179c-0.5103,0.0275 -1.0178,0.0278 -1.5207,0.0009l0 -0.0188 -0.2885 0c-0.2431,-0.0181 -0.4849,-0.0425 -0.7252,-0.0735l0 -0.0109 -0.0845 0c-0.0564,-0.0077 -0.1126,-0.0157 -0.1689,-0.0241l0 -0.0182 -0.1176 0c-0.0595,-0.0093 -0.1188,-0.019 -0.1781,-0.0292l0 -0.013 -0.0765 0c-0.059,-0.0104 -0.1182,-0.0215 -0.1769,-0.0327l0 -0.0096 -0.0489 0c-0.0683,-0.0133 -0.1362,-0.0272 -0.2044,-0.0416l0 -0.0005 -0.0021 0c-0.1124,-0.0239 -0.2242,-0.0491 -0.3358,-0.0758l0 -0.0087 -0.0361 0 -0.133 -0.033 0 -0.0093 -0.0359 0 -0.0907 -0.0233 0 -0.0188 -0.0689 0 -0.1001 -0.0273 0 -0.015 -0.0524 0 -0.1165 -0.0335 0 -0.0088 -0.0295 0 -0.097 -0.0295 0 -0.0127 -0.042 0 -0.1272 -0.0402 0 -0.0021 -0.0061 0 -0.1204 -0.0395 0 -0.0026 -0.008 0c-0.1105,-0.0369 -0.2205,-0.0754 -0.33,-0.1153l0 -0.0115 -0.0314 0 -0.0952 -0.0353 0 -0.0068 -0.0179 0 -0.0667 -0.0256 0 -0.0167 -0.043 0 -0.0836 -0.033 0 -0.0092 -0.0231 0 -0.0614 -0.0247 0 -0.0176 -0.0431 0 -0.0836 -0.035 0 -0.0073 -0.0174 0 -0.0671 -0.0283 0 -0.0138 -0.0318 0 -0.0949 -0.0414 0 -0.0009 -0.0019 0 -0.0826 -0.0371 0 -0.0051 -0.0113 0 -0.073 -0.0331 0 -0.0092 -0.0201 0c-0.0541,-0.025 -0.1077,-0.0504 -0.1613,-0.076 -0.1095,-0.0528 -0.218,-0.1071 -0.3256,-0.1629l0 -0.0144 -0.0275 0 -0.057 -0.0298 0 -0.0124 -0.0238 0 -0.0607 -0.0326 0 -0.0097 -0.018 0 -0.0663 -0.0359 0 -0.0064 -0.0119 0 -0.0727 -0.0404 0 -0.0017 -0.003 0 -0.1236 -0.0699 0 -0.0146 -0.0255 0 -0.059 -0.034 0 -0.0083 -0.0141 0 -0.0704 -0.0416 0 -0.0006 -0.0008 0c-0.1137,-0.0675 -0.2262,-0.1366 -0.337,-0.2075l0 -0.0036 -0.0059 0 -0.121 -0.0785 0 -0.006 -0.0091 0c-0.0394,-0.0259 -0.0786,-0.0522 -0.1174,-0.0784l0 -0.0061 -0.0094 0 -0.0329 -0.0224 0 -0.0197 -0.0288 0 -0.0557 -0.0384 0 -0.0039 -0.0056 0 -0.0365 -0.0253 0 -0.017 -0.0241 0 -0.1027 -0.0727 0 -0.0117 -0.0159 0 -0.1109 -0.0806 0 -0.0039 -0.0051 0c-0.055,-0.0406 -0.1095,-0.0816 -0.1638,-0.1232l0 -0.0034 -0.0043 0c-0.0696,-0.0533 -0.1385,-0.1072 -0.2068,-0.1619l0 -0.007 -0.009 0c-0.0682,-0.0548 -0.1354,-0.1103 -0.2021,-0.1663l0 -0.0028 -0.0034 0 -0.0389 -0.0327 0 -0.0094 -0.0113 0 -0.0309 -0.0266 0 -0.0157 -0.0182 0 -0.0241 -0.0206 0 -0.0216 -0.025 0c-0.0483,-0.0419 -0.0963,-0.084 -0.1438,-0.1266l0 -0.0001 -0.0001 0 -0.0423 -0.0383 0 -0.0039 -0.0043 0 -0.0379 -0.0344 0 -0.0079 -0.0086 0 -0.0337 -0.0307 0 -0.0116 -0.0123 0 -0.0297 -0.0277 0 -0.0144 -0.0154 0c-0.1684,-0.1574 -0.3325,-0.3196 -0.4916,-0.4864l0 -0.0206 -0.0197 0 -0.0224 -0.0238 0 -0.0184 -0.0175 0 -0.0248 -0.0267 0 -0.0155 -0.0145 0 -0.0278 -0.0296 0 -0.0126 -0.0117 0 -0.0306 -0.0335 0 -0.0088 -0.0079 0 -0.0343 -0.0376 0 -0.0046 -0.0041 0 -0.038 -0.0419 0 -0.0003 -0.0001 0c-0.0861,-0.0959 -0.1704,-0.1934 -0.2533,-0.2922l0 -0.0036 -0.003 0c-0.0561,-0.0666 -0.1113,-0.1338 -0.166,-0.2017l0 -0.0094 -0.0075 0c-0.0401,-0.0501 -0.0798,-0.1003 -0.1191,-0.1511l0 -0.0178 -0.0138 0 -0.0285 -0.0368 0 -0.0055 -0.0042 0 -0.0804 -0.1062 0 -0.0205 -0.0152 0 -0.027 -0.036 0 -0.0062 -0.0045 0 -0.0798 -0.1093 0 -0.0174 -0.0126 0 -0.0297 -0.0419 0 -0.0003 -0.0002 0 -0.0843 -0.1195 0 -0.0072 -0.005 0c-0.0848,-0.1223 -0.1676,-0.2463 -0.2484,-0.3721l0 -0.0081 -0.005 0 -0.0794 -0.1253 0 -0.0014 -0.0009 0 -0.0413 -0.0672 0 -0.0172 -0.0105 0 -0.0741 -0.1224 0 -0.0043 -0.0025 0 -0.0397 -0.0665 0 -0.018 -0.0104 0 -0.0319 -0.055 0 -0.0295 -0.0171 0 -0.0672 -0.1188 0 -0.0079 -0.0044 0 -0.0379 -0.0677 0 -0.0167 -0.0091 0c-0.1151,-0.2096 -0.2248,-0.4235 -0.3289,-0.6411l0 -0.0347 -0.0165 0 -0.0256 -0.0543 0 -0.0301 -0.0139 0 -0.0284 -0.0612 0 -0.0234 -0.0107 0 -0.0315 -0.0696 0 -0.0149 -0.0066 0 -0.0357 -0.0797 0 -0.0047 -0.0019 0 -0.0403 -0.0931 0 -0.0335 -0.0145 0 -0.0278 -0.0659 0 -0.0186 -0.0078 0 -0.0343 -0.0826 0 -0.002 -0.001 0c-0.0284,-0.0694 -0.0561,-0.1394 -0.0835,-0.2096l0 -0.0014 -0.0006 0 -0.0417 -0.108 0 -0.0188 -0.0071 0 -0.0352 -0.0946 0 -0.032 -0.0119 0 -0.0302 -0.0837 0 -0.043 -0.0154 0 -0.0268 -0.0761 0 -0.0507 -0.0173 0 -0.0249 -0.0725 0 -0.0541 -0.0181 0 -0.0242 -0.074 0 -0.0105 -0.0035 0 -0.0388 -0.1215 0 -0.0052 -0.0017 0c-0.0418,-0.1325 -0.0815,-0.2661 -0.1194,-0.4008l-0.0055 -0.0196 0 -0.002 -0.0006 0c-0.0143,-0.0504 -0.0282,-0.1008 -0.0416,-0.1514l0 -0.0175 -0.0047 0 -0.0375 -0.1438 0 -0.0252 -0.0063 0 -0.036 -0.1458 0 -0.0653 -0.0154 0 -0.0269 -0.1177 0 -0.0512 -0.0114 0 -0.0309 -0.1451 0 -0.0239 -0.0049 0c-0.0128,-0.0633 -0.0253,-0.1267 -0.0372,-0.1903l0 -0.0208 -0.004 0c-0.03,-0.1598 -0.0568,-0.3201 -0.0804,-0.4809l0 -0.0682 -0.0098 0c-0.0116,-0.0819 -0.0224,-0.1639 -0.0326,-0.246l0 -0.1341 -0.0157 0c-0.0096,-0.0872 -0.0185,-0.1744 -0.0265,-0.2618l0 -0.076 -0.0067 0c-0.0157,-0.1834 -0.0275,-0.3673 -0.0355,-0.5513l0 -0.5892 -0.0124 0c0.0001,-0.1548 0.0027,-0.3098 0.0081,-0.4647l0.0043 0 0 -0.1132c0.007,-0.1595 0.0165,-0.3189 0.0289,-0.4781l0.0133 0 0 -0.159c0.0137,-0.1531 0.0297,-0.3062 0.0483,-0.459 -0.0685,0.0654 -0.1374,0.1306 -0.2068,0.1955l-0.0103 0 0 0.0098 -0.035 0.0325 -0.0074 0 0 0.0069 -0.0379 0.0353 -0.0042 0 0 0.0039 -0.0414 0.0384 -0.0009 0 0 0.0008c-0.0912,0.0845 -0.1834,0.1687 -0.2762,0.2525l-0.0195 0 0 0.0176 -0.0275 0.0247 -0.0146 0 0 0.0132 -0.0326 0.029 -0.0097 0 0 0.0089 -0.0375 0.0334 -0.0048 0 0 0.0043c-0.0776,0.0692 -0.1557,0.1381 -0.2343,0.2068l-0.0192 0 0 0.0167 -0.0291 0.0255 -0.013 0 0 0.0112 -0.0357 0.031 -0.0066 0 0 0.0058c-0.1781,0.1543 -0.3588,0.3074 -0.5418,0.4589l-0.0072 0 0 0.006 -0.1983 0.163 -0.0128 0 0 0.0104 -0.0393 0.0318 -0.003 0 0 0.0024 -0.1542 0.1243 -0.0148 0 0 0.0117 -0.0383 0.0305 -0.004 0 0 0.0031 -0.1022 0.0813 -0.0244 0 0 0.0192 -0.0291 0.0231 -0.0132 0 0 0.0102 -0.0407 0.032 -0.0015 0 0 0.0012 -0.1066 0.0832 -0.02 0 0 0.0155 -0.0345 0.0268 -0.0078 0 0 0.006 -0.1572 0.1208 -0.0117 0 0 0.0088c-0.1292,0.0987 -0.2595,0.1965 -0.3911,0.2939l3.804 14.6018 0.828 3.1955 -3.1387 0.9977 -0.5103 0.1634 -0.0006 0 0 0.0002 -4.3505 1.3938 -2.3008 0.737 -2.9558 0.952 -1.2766 -2.8395 -1.1122 -2.482zm151.0112 0.3332l0 0 1.9792 -5.9934 0.0002 0 0 -0.0002 5.9981 -18.1627 4.4034 -13.334 -2.5451 -0.5624 0 -0.0002 -0.0009 0 -6.2445 -1.38 -3.9851 16.5194 -1.8919 -8.9723 0 -0.0001 -1.4786 -7.0115 0 -0.0003 -0.5148 -2.4414 -10.1293 -2.0357 0 -0.0003 -0.0014 0 -1.4247 -0.2863 -0.1694 3.1701 2.5361 0.6749 -0.1802 1.8902 -0.0001 0 0 0.001 -0.386 4.0462c0.2523,0.2305 0.4938,0.472 0.724,0.7235l0 0.0022 0.002 0c0.0853,0.0933 0.1692,0.188 0.2513,0.2842l0 0.0115 0.0098 0 0.0323 0.0383 0 0.004 0.0035 0c0.1147,0.1358 0.2261,0.2742 0.3345,0.4155l0 0.0069 0.0053 0c0.0409,0.0535 0.0813,0.1075 0.1215,0.1616l0 0.0073 0.0053 0c0.041,0.0555 0.0814,0.1115 0.1213,0.1677l0 0.0012 0.0008 0c0.0867,0.122 0.171,0.2457 0.2526,0.3712l0 0.009 0.006 0 0.0785 0.1226 0 0.0041 0.0025 0c0.164,0.2594 0.3183,0.5262 0.4622,0.7996l0 0.0029 0.0015 0 0.0408 0.0785 0 0.006 0.0031 0 0.0389 0.0766 0 0.0078 0.004 0c0.0419,0.083 0.0829,0.1664 0.1228,0.2506l0 0.0028 0.0013 0c0.0579,0.1218 0.1137,0.2446 0.1676,0.369l0 0.0112 0.0049 0c0.0885,0.2044 0.1713,0.4121 0.2484,0.6228l0 0.0107 0.0038 0 0.0385 0.1065 0 0.0203 0.0072 0c0.0733,0.2078 0.1414,0.4187 0.2039,0.6323l0 0.0012 0.0005 0 0.0418 0.1464 0 0.0226 0.0064 0c0.0397,0.1435 0.077,0.2883 0.112,0.4342 0.0176,0.0735 0.0342,0.147 0.0505,0.2206l0 0.0209 0.0048 0c0.0131,0.0597 0.0253,0.1196 0.0375,0.1794l0 0.0318 0.0066 0c0.0125,0.0618 0.0241,0.1239 0.0356,0.186l0 0.0251 0.0048 0c0.0297,0.1632 0.0563,0.3268 0.0797,0.4907l0 0.0162 0.0024 0c0.0145,0.1029 0.0279,0.2057 0.0399,0.309l0 0.0711 0.0078 0c0.0133,0.1206 0.0245,0.2414 0.0343,0.3623l0 0.0179 0.0016 0c0.026,0.326 0.0393,0.6526 0.0406,0.9795l0 0.0766 0.0005 0 0 0.0421 -0.0005 0 0 0.032c-0.0033,0.4543 -0.0303,0.9087 -0.0793,1.3619l-0.005 0 0 0.0472c-0.0109,0.0969 -0.0226,0.1938 -0.0354,0.2907l-0.0069 0 0 0.051c-0.0228,0.1663 -0.0485,0.3323 -0.0773,0.4981l-0.0072 0 0 0.0397c-0.0125,0.0713 -0.0254,0.1426 -0.0391,0.2138l-0.0031 0 0 0.0156c-0.0125,0.0653 -0.0254,0.1304 -0.0389,0.1955l-0.0034 0 0 0.017c-0.0251,0.1213 -0.0528,0.2423 -0.0812,0.3632l-0.0032 0 0 0.014c-0.0122,0.0517 -0.0243,0.1033 -0.0372,0.1549l-0.005 0 0 0.0197 -0.038 0.1492 -0.0043 0 0 0.0172 -0.0407 0.1518 -0.0016 0 0 0.0051c-0.0263,0.0971 -0.0538,0.1939 -0.0823,0.2906l-0.002 0 0 0.007c-0.1424,0.4823 -0.3095,0.9592 -0.4997,1.4292l-0.0072 0 0 0.0177c-0.0264,0.0646 -0.053,0.1291 -0.0803,0.1934l-0.0042 0 0 0.0098c-0.2233,0.5284 -0.4762,1.0471 -0.7572,1.5531l-0.0031 0 0 0.0054c-0.054,0.0972 -0.1094,0.1939 -0.1653,0.2903l-0.0035 0 0 0.0059c-0.0816,0.1398 -0.1654,0.2787 -0.2511,0.4165l-0.0023 0 0 0.0036c-0.187,0.3 -0.3844,0.5945 -0.591,0.8835l-0.0005 0 0 0.0004c-0.0403,0.0564 -0.0808,0.1126 -0.1217,0.1685l-0.0048 0 0 0.0063c-0.04,0.0544 -0.0802,0.1088 -0.1208,0.1627l-0.006 0 0 0.008c-0.0407,0.0539 -0.0822,0.1074 -0.1235,0.1609l-0.0033 0 0 0.0041c-0.1092,0.141 -0.2209,0.2804 -0.3348,0.4182l-0.003 0 0 0.0037c-0.0694,0.0838 -0.1395,0.1672 -0.2105,0.2498l-0.0007 0 0 0.0008 -0.0362 0.0414 -0.006 0 0 0.007c-0.3944,0.4546 -0.8142,0.8899 -1.2581,1.3024l-0.0091 0 0 0.0082 -0.037 0.034 -0.0053 0 0 0.0048 -0.0409 0.0375 -0.0013 0 0 0.0012c-0.1086,0.0995 -0.2187,0.1975 -0.3302,0.2945l-0.0077 0 0 0.0067 -0.0415 0.0355 -0.0007 0 0 0.0008c-0.0382,0.0329 -0.0762,0.066 -0.1148,0.0986l-0.4803 5.0343 6.7067 1.0709 1.9562 -11.0622 0 -0.0002 1.1356 -6.4234 0.5362 22.6659 6.1482 1.8315zm-18.7203 -14.7077l0 0c1.227,-0.8741 2.2906,-1.9419 3.1636,-3.1295 2.0372,-2.7875 2.9656,-6.2467 2.1855,-9.4761 -0.2179,-0.9335 -0.5791,-1.788 -1.0434,-2.5636 -0.6119,-0.9816 -1.3887,-1.8259 -2.3252,-2.4898 -2.5457,-1.8298 -6.1608,-2.3013 -9.8275,-0.9339 -1.5751,0.6057 -2.9907,1.5023 -4.2116,2.5973 -1.0952,0.996 -2.0207,2.1513 -2.7421,3.3811 -1.4462,2.5155 -2.0285,5.3878 -1.3965,8.0775 0.5414,2.2386 1.7703,4.0214 3.4391,5.2292 1.0495,0.7463 2.2556,1.2622 3.5785,1.5232 1.8974,0.3776 4.0276,0.2077 6.1686,-0.6078 1.0851,-0.4005 2.0939,-0.9551 3.0109,-1.6076zm-20.7181 5.0839l0 0 8.8474 1.3516 -0.3172 -2.0985c-0.0766,-0.0308 -0.1527,-0.0626 -0.228,-0.0955l0 -0.0047 -0.0107 0 -0.0737 -0.0325 0 -0.0096 -0.0216 0c-0.1211,-0.0544 -0.2407,-0.1109 -0.3587,-0.1683l0 -0.0008 -0.0014 0 -0.083 -0.0407 0 -0.0014 -0.0029 0 -0.0816 -0.0403 0 -0.002 -0.0037 0 -0.0816 -0.0409c-0.0992,-0.053 -0.1974,-0.1073 -0.2948,-0.1627l0 -0.0075 -0.0132 0 -0.0713 -0.0413 0 -0.001 -0.0018 0 -0.0406 -0.0234 0 -0.0188 -0.0316 0 -0.0528 -0.0314 0 -0.0108 -0.0182 0 -0.0662 -0.0401 0 -0.0021 -0.0036 0 -0.0386 -0.0237 0 -0.0186 -0.0302 0 -0.0544 -0.0338 0 -0.0085 -0.0134 0 -0.1131 -0.0717 0 -0.0126 -0.0195 0c-0.0644,-0.0416 -0.1285,-0.0837 -0.1917,-0.1265l0 -0.0003 -0.0005 0c-0.0997,-0.0671 -0.1982,-0.1353 -0.2953,-0.2052l0 -0.0059 -0.0082 0c-0.054,-0.0389 -0.1076,-0.0783 -0.1608,-0.118l0 -0.0087 -0.0117 0 -0.0304 -0.0229 0 -0.0194 -0.0259 0 -0.1009 -0.0773 0 -0.0071 -0.0091 0 -0.0332 -0.0256 0 -0.0167 -0.021 0 -0.1055 -0.0839 0 -0.0005 -0.0006 0 -0.0417 -0.0338 0 -0.0084 -0.0102 0c-0.1996,-0.1626 -0.3935,-0.3314 -0.5812,-0.5059l0 -0.0011 -0.0012 0 -0.0409 -0.0383 0 -0.0038 -0.0042 0 -0.038 -0.0359 0 -0.0064 -0.0066 0 -0.0357 -0.0342 0 -0.008 -0.0084 0 -0.0339 -0.0325 0 -0.0098 -0.0103 0 -0.032 -0.0315 0 -0.0106 -0.0108 0 -0.0313 -0.0309 0 -0.0114 -0.0115 0 -0.0307 -0.0304 0 -0.0118 -0.0118 0 -0.0305 -0.0309 0 -0.0114 -0.0113 0 -0.0309 -0.0314 0 -0.0109 -0.0108 0c-0.0533,-0.0544 -0.1059,-0.1096 -0.1581,-0.1652l0 -0.0037 -0.0035 0 -0.0388 -0.0414 0 -0.0007 -0.0006 0c-0.0712,-0.0766 -0.1414,-0.154 -0.2104,-0.2325l0 -0.0209 -0.0186 0 -0.0237 -0.0273 0 -0.015 -0.013 0 -0.0293 -0.034 0 -0.0083 -0.0071 0 -0.0352 -0.0408 0 -0.0013 -0.0012 0c-0.0423,-0.0498 -0.0839,-0.1001 -0.1254,-0.1505l0 -0.0185 -0.0153 0 -0.0269 -0.0332 0 -0.009 -0.0074 0c-0.0987,-0.1215 -0.1946,-0.245 -0.2883,-0.3707l0 -0.0094 -0.0072 0c-0.0402,-0.0543 -0.0803,-0.109 -0.1197,-0.1638l0 -0.0052 -0.0037 0 -0.0806 -0.1139 0 -0.0128 -0.0089 0 -0.0757 -0.1098 0 -0.0169 -0.0114 0 -0.073 -0.1088 0 -0.0178 -0.0116 0 -0.0728 -0.1119 0 -0.0149 -0.0096 0 -0.0749 -0.1185 0 -0.0082 -0.0049 0c-0.0857,-0.1374 -0.1683,-0.2768 -0.2485,-0.4181l0 -0.0043 -0.0024 0 -0.0399 -0.071 0 -0.0134 -0.0074 0 -0.0348 -0.063 0 -0.0215 -0.0117 0 -0.0304 -0.0561 0 -0.0284 -0.0155 0 -0.0267 -0.0509 0 -0.0335 -0.0176 0c-0.113,-0.2152 -0.2198,-0.4345 -0.3205,-0.6578l0 -0.0181 -0.0079 0 -0.0343 -0.0769 0 -0.0075 -0.0033 0 -0.039 -0.09 0 -0.0367 -0.0158 0 -0.0263 -0.0627 0 -0.0218 -0.009 0 -0.0333 -0.0802 0 -0.0043 -0.0018 0 -0.0404 -0.1006 0 -0.0261 -0.0103 0 -0.032 -0.0814 0 -0.003 -0.0012 0 -0.041 -0.1071 0 -0.0196 -0.0073 0c-0.0412,-0.1102 -0.081,-0.2213 -0.1193,-0.3333l0 -0.0047 -0.0017 0 -0.0406 -0.1205 0 -0.0061 -0.002 0 -0.0403 -0.1233 0 -0.0035 -0.0011 0 -0.0412 -0.1314 0 -0.0375 -0.0115 0 -0.0305 -0.1028 0 -0.0238 -0.0071 0 -0.0352 -0.1228 0 -0.0462 -0.0131 0 -0.0291 -0.1073 0 -0.0194 -0.0054 0 -0.0369 -0.1417 0 -0.0272 -0.0071 0c-0.0154,-0.0612 -0.0305,-0.1225 -0.0453,-0.184 -0.0111,-0.0466 -0.0214,-0.0934 -0.0321,-0.14l0 -0.0139 -0.0032 0c-0.0134,-0.0602 -0.0265,-0.1204 -0.0389,-0.1809l0 -0.0302 -0.0064 0c-0.0125,-0.0607 -0.0244,-0.1216 -0.0359,-0.1824l0 -0.0288 -0.0055 0c-0.0129,-0.0687 -0.0252,-0.1377 -0.0368,-0.2065l0 -0.0047 -0.0009 0c-0.0146,-0.0864 -0.0286,-0.1729 -0.0413,-0.2595l0 -0.0361 -0.0048 0c-0.0138,-0.0949 -0.026,-0.1902 -0.0375,-0.2854l0 -0.0102 -0.0012 0c-0.0158,-0.1336 -0.0295,-0.2675 -0.041,-0.4016l0 -0.0209 -0.0018 0c-0.0213,-0.2528 -0.0351,-0.5064 -0.0411,-0.7602l0.0006 0 0 -0.6334c0.0061,-0.2394 0.0188,-0.479 0.038,-0.7183l0.0043 0 0 -0.0536c0.0115,-0.1371 0.0252,-0.274 0.0409,-0.4111l0.0013 0 0 -0.0129c0.0127,-0.1083 0.0266,-0.2165 0.0417,-0.325l0.0006 0 0 -0.0053c0.0853,-0.6079 0.2111,-1.2128 0.3756,-1.8109l0.0047 0 0 -0.0176c0.12,-0.4349 0.2608,-0.8659 0.4207,-1.2918l0.0016 0 0 -0.004c0.026,-0.0692 0.0523,-0.1382 0.0794,-0.2071l0.005 0 0 -0.0127c0.054,-0.1372 0.1099,-0.2738 0.1678,-0.4098l0.0012 0 0 -0.0027c0.0539,-0.1263 0.1095,-0.2521 0.1666,-0.3774l0.0023 0 0 -0.0051c0.156,-0.3409 0.3248,-0.6773 0.5052,-1.0086l0.0017 0 0 -0.0032c0.1081,-0.1978 0.2202,-0.3941 0.3368,-0.5882l0.0012 0 0 -0.0019c0.2595,-0.4325 0.5399,-0.855 0.8399,-1.2652l0.0048 0 0 -0.0065c0.0398,-0.0543 0.0799,-0.1084 0.1203,-0.1624l0.0066 0 0 -0.0085c0.0403,-0.0537 0.0809,-0.1072 0.122,-0.1604l0.0045 0 0 -0.006c0.1083,-0.1404 0.219,-0.2793 0.332,-0.4165l0.006 0 0 -0.0073c0.068,-0.0826 0.1368,-0.1647 0.2066,-0.2461l0.0045 0 0 -0.0054c0.0439,-0.0513 0.0882,-0.1025 0.1328,-0.1532l-2.4897 -16.1836 -6.0001 0 -2.3531 13.2834 -2.0994 -11.4622 -8.3882 0 -0.0908 0.5399 0 0.0008 -2.6918 16.0172 2.6192 2.3454 -2.6949 2.7749c-0.3037,0.3122 -0.6125,0.608 -0.9264,0.9028l-1.1687 6.9531 8.3134 1.4468 0.6461 -4.0837 0.0003 0 0 -0.0014 1.3249 -8.3744 0.0561 0 4.9885 10.7585 3.3315 -8.608 2.356 15.6046zm-22.9748 -15.3824l0 0c0.6049,-0.5069 1.2018,-1.0618 1.7697,-1.6495l-1.3109 -1.1844 -4.3275 -3.8931 -0.1225 0.1428 -0.0016 0 0 0.0018c-0.3672,0.4243 -0.7511,0.8369 -1.1741,1.2232l-0.0086 0 0 0.0079 -0.0379 0.0343 -0.0043 0 0 0.004c-0.1591,0.1434 -0.3237,0.2832 -0.495,0.4185l-0.0119 0 0 0.0092 -0.0423 0.0329c-0.055,0.0428 -0.1106,0.085 -0.1669,0.1268l-0.0019 0 0 0.0014c-0.1982,0.1466 -0.4056,0.2873 -0.6233,0.4209l-0.0103 0 0 0.0064c-0.0667,0.0408 -0.1343,0.081 -0.2029,0.1204l-0.0083 0 0 0.0047c-0.2616,0.1497 -0.5386,0.2895 -0.8333,0.4177l-0.0116 0 0 0.0051c-0.0621,0.0269 -0.1254,0.0535 -0.1891,0.0793l-0.022 0 0 0.0089 -0.0839 0.0334 -0.0004 0 0 0.0002 -0.1099 0.0421 -0.017 0 0 0.0063c-0.153,0.0573 -0.3108,0.1115 -0.4731,0.1626l-0.0338 0 0 0.0105 -0.1041 0.0317 -0.0224 0 0 0.0067 -0.1226 0.0355 -0.0043 0 0 0.0012c-0.0496,0.014 -0.1002,0.0276 -0.1507,0.0409l-0.0181 0 0 0.0048c-0.0611,0.0162 -0.1227,0.032 -0.1854,0.0472l-0.1394 0.0325 -0.0131 0 0 0.003c-0.2682,0.0611 -0.5601,0.1191 -0.8557,0.166l-0.0312 0 0 0.0049c-0.2202,0.0341 -0.4422,0.0617 -0.6575,0.0794l-0.1028 0 0 0.0077c-0.223,0.0151 -0.4374,0.0183 -0.6337,0.0061l0 -0.0138 -0.1589 0c-0.0595,-0.0067 -0.1167,-0.0152 -0.1717,-0.0256l1.6823 -1.7905 0 -0.0001 9.1465 -9.7356c-3.0679,-3.7652 -8.0727,-5.5 -13.7555,-4.1293 -2.5272,0.6069 -4.7502,1.7363 -6.4914,3.2904 -0.7099,0.6276 -1.3414,1.3242 -1.874,2.0887 -1.8484,2.6205 -2.5986,5.9649 -1.7201,9.7066 0.1378,0.5813 0.3202,1.1259 0.5569,1.6638 1.8989,4.4432 6.9039,7.1827 12.8693,6.596 0.7876,-0.0693 1.5927,-0.2061 2.4144,-0.394 3.7578,-0.9087 6.6028,-2.2546 9.0982,-4.3187zm-28.2997 -3.407l0 0 -0.0229 -0.1182 0 -0.0177 -0.0034 0c-0.0134,-0.0711 -0.0263,-0.1422 -0.0389,-0.2132l0 -0.0401 -0.0068 0c-0.0122,-0.0704 -0.0241,-0.1407 -0.0354,-0.2109l0 -0.0425 -0.0067 0c-0.0123,-0.0783 -0.0243,-0.1566 -0.0354,-0.2348l0 -0.0187 -0.0028 0c-0.0321,-0.2253 -0.0593,-0.4499 -0.0817,-0.6739l0 -0.0863 -0.0084 0c-0.0131,-0.1368 -0.0243,-0.2731 -0.0339,-0.4092l0 -0.0554 -0.0038 0c-0.0458,-0.6854 -0.0472,-1.3624 -0.0064,-2.0275l0.0102 0 0 -0.1538c0.0089,-0.124 0.0192,-0.2475 0.0309,-0.3708l-1.9738 1.9184 0 0.0001 -1.3983 1.3589 3.6175 1.3957zm13.5025 18.8432l0 0 -0.0013 -7.3309c-0.073,-0.0071 -0.146,-0.0149 -0.2187,-0.0229l0 -0.0096 -0.0841 0c-0.0707,-0.0082 -0.1413,-0.0165 -0.2116,-0.0255l0 -0.0167 -0.1273 0 -0.1683 -0.0234 0 -0.0188 -0.1285 0 -0.125 -0.0193 0 -0.023 -0.1412 0 -0.1542 -0.0263 0 -0.0159 -0.0897 0 -0.1639 -0.0303 0 -0.012 -0.0623 0c-0.1345,-0.0261 -0.2685,-0.0536 -0.4021,-0.0828l0 -0.0016 -0.0071 0 -0.162 -0.0361 0 -0.0061 -0.0265 0 -0.1001 -0.0234 0 -0.0189 -0.0794 0 -0.0896 -0.0219 0 -0.0202 -0.0808 0 -0.0881 -0.0225 0 -0.0198 -0.0761 0 -0.0928 -0.0248 0 -0.0175 -0.0645 0 -0.0622 -0.0171 0 -0.0251 -0.0897 0 -0.0791 -0.0226 0 -0.0197 -0.0675 0 -0.1017 -0.0301 0 -0.012 -0.0401 0 -0.1288 -0.0396 0 -0.0027 -0.0084 0c-0.1245,-0.0389 -0.2483,-0.0791 -0.3716,-0.1209l0 -0.0057 -0.0171 0 -0.1096 -0.0377 0 -0.0046 -0.0133 0 -0.0712 -0.025 0 -0.0172 -0.0486 0 -0.078 -0.0282 0 -0.0141 -0.0389 0 -0.0456 -0.0169 0 -0.0254 -0.0685 0 -0.0582 -0.022 0 -0.0201 -0.0531 0 -0.0736 -0.0284 0 -0.0138 -0.0357 0 -0.0487 -0.0194 0 -0.0229 -0.0579 0 -0.0689 -0.0278 0 -0.0145 -0.0359 0 -0.0486 -0.02 0 -0.0221 -0.0535 0 -0.0731 -0.0306 0 -0.0117 -0.0278 0 -0.0567 -0.0243 0 -0.0179 -0.0419 0 -0.0847 -0.0371 0 -0.0052 -0.012 0 -0.0725 -0.0321 0 -0.0101 -0.0227 0c-0.0915,-0.041 -0.1824,-0.0829 -0.273,-0.1255l0 -0.0012 -0.0025 0 -0.0818 -0.0389 0 -0.0033 -0.0071 0 -0.0775 -0.0375 0 -0.0047 -0.0097 0 -0.0746 -0.0367 0 -0.0055 -0.0113 0 -0.0732 -0.0366 0 -0.0057 -0.0115 0 -0.0308 -0.0154 0 -0.0269 -0.0527 0 -0.0318 -0.0162 0 -0.026 -0.0504 0 -0.034 -0.0177 0 -0.0245 -0.0471 0 -0.0374 -0.0197 0 -0.0225 -0.0423 0 -0.0422 -0.0225 0 -0.0198 -0.0366 0 -0.0478 -0.0258 0 -0.0164 -0.03 0 -0.0544 -0.0301 0 -0.0121 -0.0219 0 -0.0628 -0.035 0 -0.0072 -0.0128 0 -0.0293 -0.0164 0 -0.0259 -0.0451 0 -0.0393 -0.0224 0 -0.0198 -0.0344 0 -0.0502 -0.0291 0 -0.0132 -0.0226 0 -0.0618 -0.0364 0 -0.0057 -0.0097 0c-0.0782,-0.0465 -0.1562,-0.0934 -0.2336,-0.1412 -0.1029,-0.0638 -0.2047,-0.1287 -0.3057,-0.1945l0 -0.0023 -0.0035 0 -0.1234 -0.0815 0 -0.0029 -0.0042 0 -0.1224 -0.0826 0 -0.0019 -0.0028 0c-0.2745,-0.1872 -0.5412,-0.3826 -0.7997,-0.5855l0 -0.0059 -0.0076 0c-0.1552,-0.1219 -0.3077,-0.2466 -0.457,-0.3742l0 -0.0059 -0.007 0c-0.112,-0.0958 -0.2221,-0.193 -0.331,-0.2918l0 -0.0039 -0.0042 0c-0.3241,-0.2947 -0.6327,-0.6024 -0.9251,-0.9225l0 -0.0068 -0.0061 0 -0.036 -0.0397 0 -0.0025 -0.0024 0c-0.0997,-0.1102 -0.1976,-0.2219 -0.2935,-0.335l0 -0.003 -0.0025 0c-0.0707,-0.0833 -0.1402,-0.1673 -0.2086,-0.2521l0 -0.0013 -0.0011 0c-0.0423,-0.0523 -0.0841,-0.105 -0.1256,-0.158l0 -0.0109 -0.0085 0c-0.0542,-0.0693 -0.1077,-0.1391 -0.1605,-0.2094l0 -0.0018 -0.0012 0c-0.2559,-0.341 -0.4952,-0.6932 -0.7167,-1.0557l0 -0.0002 -0.0001 0c-0.0574,-0.094 -0.1137,-0.1887 -0.1688,-0.2841l0 -0.0117 -0.0069 0c-0.0552,-0.0961 -0.1092,-0.1927 -0.1622,-0.2903l0 -0.0054 -0.0029 0c-0.0242,-0.0444 -0.0481,-0.089 -0.0717,-0.1338l-10.2216 -4.0432 7.3818 -7.7765 3.4981 -3.6854 -7.78 -7.4101 -5.0107 7.0404 -0.0001 0 0 0.0002 -2.9475 4.1415 -0.3895 -6.5483 0 -0.0009 -0.2732 -4.5927 -0.5291 0.1575 -0.0002 0 -7.5184 2.2387 -0.0002 0 -2.7547 0.8202 0.1335 2.896 0.9739 -0.2526 0.0001 0 2.0464 -0.5309 0.9653 11.4532c0.0959,0.0946 0.1901,0.1907 0.283,0.2883l0 0.0251 0.0237 0 0.0186 0.0195 0 0.0227 0.0213 0 0.0208 0.0226 0 0.0197 0.0185 0 0.0238 0.0256 0 0.0165 0.0151 0 0.027 0.0296 0 0.0127 0.0116 0 0.0308 0.0339 0 0.0084 0.0074 0 0.0348 0.0385 0 0.0037 0.0033 0 0.0813 0.0921 0 0.0346 0.03 0 0.012 0.0136 0 0.0286 0.0247 0 0.0175 0.0206 0 0.0217 0.0187 0 0.0237 0.0279 0 0.0142 0.012 0 0.0303 0.0361 0 0.0062 0.005 0c0.0554,0.0661 0.1099,0.1327 0.1638,0.2l0 0.0112 0.009 0 0.0333 0.0419 0 0.0003 0.0004 0c0.0425,0.0539 0.0846,0.108 0.1262,0.1626l0 0.0063 0.0048 0c0.0268,0.035 0.0535,0.0701 0.0796,0.1054l0 0.0213 0.0159 0 0.0264 0.0357 0 0.0065 0.0049 0 0.0374 0.0512 0 0.0334 0.0242 0 0.0181 0.025 0 0.0171 0.0122 0 0.0299 0.042 0 0.0003 0.0002 0 0.042 0.0596 0 0.0249 0.0174 0 0.0248 0.0358 0 0.0063 0.0043 0 0.0381 0.0551 0 0.0294 0.0198 0 0.0224 0.0331 0 0.0092 0.0062 0 0.036 0.0539 0 0.0305 0.0202 0 0.0219 0.0335 0 0.0087 0.0059 0 0.0364 0.0561 0 0.0285 0.0184 0 0.0238 0.0374 0 0.0047 0.003 0 0.0394 0.0622 0 0.0223 0.0139 0 0.0705 0.1142 0 0.0125 0.0075 0c0.0404,0.0662 0.0799,0.1329 0.1191,0.2001l0 0.0109 0.0063 0c0.0555,0.0957 0.1098,0.1923 0.1628,0.2898l0 0.006 0.0032 0 0.0388 0.0721 0 0.0123 0.0066 0 0.0357 0.0674 0 0.0171 0.0089 0 0.0334 0.0641 0 0.0203 0.0104 0 0.0319 0.0624 0 0.0222 0.011 0 0.031 0.062 0 0.0223 0.0112 0 0.0311 0.0636 0 0.021 0.0102 0 0.0321 0.0668 0 0.0177 0.0085 0 0.0337 0.0717 0 0.0127 0.0061 0 0.0362 0.0789 0 0.0056 0.0025 0c0.0729,0.1593 0.1422,0.3209 0.2086,0.4843l0 0.0225 0.0091 0 0.0332 0.083 0 0.0437 0.0171 0 0.0251 0.0648 0 0.062 0.0237 0 0.0186 0.0498 0 0.0346 0.0129 0 0.0294 0.08 0 0.0467 0.0166 0 0.0254 0.0711 0 0.0556 0.0193 0 0.023 0.0671 0 0.0595 0.0201 0 0.0222 0.0672 0 0.0596 0.0194 0 0.0229 0.0714 0 0.0553 0.0171 0 0.0249 0.0811 0 0.0033 0.001 0c0.0254,0.0836 0.0502,0.1677 0.0738,0.2523l0.0097 0.0355 0 0.0079 0.0023 0c0.0135,0.0489 0.0272,0.0979 0.04,0.147l0 0.0219 0.0056 0c0.0125,0.0471 0.0248,0.0942 0.0367,0.1415l0 0.0696 0.017 0 0.0252 0.1036 0 0.0654 0.0151 0 0.027 0.1192 0 0.0919 0.0198 0 0.0225 0.106 0 0.0629 0.0125 0 0.0298 0.1534 0 0.0578 0.0106 0c0.0272,0.1483 0.0519,0.2969 0.0738,0.4459l0 0.0609 0.0086 0c0.012,0.0841 0.0232,0.1684 0.0337,0.2525l0 0.1699 0.0197 0c0.0081,0.0729 0.0156,0.1459 0.0226,0.2191l0 0.161 0.0141 0c0.0115,0.1404 0.0208,0.281 0.028,0.4217l0 0.0007c0.0059,0.1125 0.0101,0.2251 0.0131,0.3379l-0.0131 0 0 1.0732c-0.0074,0.1492 -0.017,0.2984 -0.0291,0.4475l-0.013 0 0 0.153c-0.0083,0.0898 -0.0174,0.1795 -0.0271,0.2693l-0.0152 0 0 0.1329c-0.0099,0.0825 -0.0205,0.1648 -0.0317,0.2472l-0.0106 0 0 0.0763c-0.0243,0.1719 -0.0515,0.3436 -0.0817,0.5151l-0.0027 0 0 0.0147 -0.0281 0.1542 -0.0142 0 0 0.074 -0.0272 0.1371 -0.0151 0 0 0.074 -0.0292 0.1372 -0.0129 0 0 0.0606 -0.0343 0.1505 -0.0079 0 0 0.0346 -0.0322 0.1344 -0.0101 0 0 0.0415c-0.0382,0.1555 -0.0792,0.3107 -0.1222,0.4653l-0.0046 0 0 0.0163 -0.0311 0.1104 -0.0109 0 0 0.0377 -0.026 0.0891 -0.0163 0 0 0.0547 -0.0349 0.1142 -0.0074 0 0 0.0243 -0.0323 0.1023 -0.01 0 0 0.0313 -0.0307 0.0954 -0.0113 0 0 0.0347 -0.0306 0.0921 -0.0117 0 0 0.0355c-0.0534,0.1578 -0.1093,0.3148 -0.1674,0.4713l-0.0016 0 0 0.0041c-0.0257,0.0692 -0.0519,0.1382 -0.0785,0.2071l-0.0059 0 0 0.0157 -0.0271 0.0687 -0.0152 0 0 0.0383 -0.0351 0.0884 -0.0071 0 0 0.0172 -0.0276 0.0672 -0.0147 0 0 0.0361 -0.0376 0.0907 -0.0046 0 0 0.0108 -0.0311 0.0736 -0.0112 0 0 0.0265c-0.0262,0.0616 -0.0528,0.1233 -0.08,0.1847l-0.0043 0 0 0.0098 -0.0337 0.0747 -0.0086 0 0 0.0193c-0.0543,0.1208 -0.11,0.2411 -0.1673,0.3609l-0.0016 0 0 0.0033 -0.039 0.0811 -0.0032 0 0 0.0069 -0.038 0.0776 -0.0043 0 0 0.0087 -0.0373 0.0757 -0.005 0 0 0.0098 -0.0375 0.0747 -0.0047 0 0 0.009 -0.0382 0.0754 -0.0039 0 0 0.0079 -0.0398 0.0766 -0.0025 0 0 0.0049 -0.0415 0.0796 -0.0008 0 0 0.0016 -0.0665 0.1251 -0.018 0 0 0.0335 -0.0277 0.0509 -0.0145 0 0 0.0264 -0.0316 0.0581 -0.0107 0 0 0.0192 -0.0364 0.0653 -0.0057 0 0 0.0104 -0.0416 0.074 -0.0006 0 0 0.0011c-0.0378,0.067 -0.0761,0.134 -0.1149,0.2004l0.4689 5.6169 6.7273 -0.9171 -0.0464 -13.6276 26.0049 13.0062zm-33.8278 -12.011l0 0c0.0331,-0.8401 -0.0366,-1.6927 -0.2106,-2.5244 -0.0512,-0.2379 -0.1015,-0.481 -0.1783,-0.7128 -0.6081,-2.1822 -1.9103,-3.924 -3.6185,-5.0823 -2.765,-1.8789 -6.6252,-2.264 -10.4725,-0.6398 -6.0241,2.5949 -9.7677,9.3892 -8.1589,15.0968 1.6612,5.9026 7.878,8.5369 14.0953,5.9026 2.4316,-1.0465 4.498,-2.7579 5.9776,-4.8315 1.5545,-2.1446 2.4837,-4.6789 2.566,-7.2085zm-32.9477 3.0239l0 0c8.468,-5.2265 12.7468,-13.7436 10.1856,-19.6622 -1.0501,-2.4309 -2.8712,-4.3393 -5.2525,-5.6799 -1.7353,-1.1523 -3.7164,-1.704 -5.588,-1.9142 -5.2906,-0.9348 -11.9052,-0.055 -18.8379,2.8933 -2.4705,1.0437 -4.7928,2.2425 -6.9107,3.5951l4.679 7.9038 0.6462 1.0916c1.3565,-0.665 2.8338,-1.3703 3.6339,-1.791l14.7058 32.8421 7.1664 -2.2894 -0.4709 -1.8064 0 -0.0001 -1.8161 -6.9688 0 -0.0007 -0.0003 0 -2.0694 -7.9407 0 -0.0003 -0.0002 0 -0.0708 -0.272zm73.488 -40.6628l0 0 -7.9827 9.6103 0.7667 1.1647 11.0983 -5.5018 -3.3809 -4.5921 0 -0.0001 -0.0001 0 -0.5014 -0.6809zm9.3894 22.4718l0 0 -2.4686 2.634 2.3157 2.0858 0.8881 -5.5012 -0.7351 0.7814z"/>
   <polygon class="fil23" points="182.8431,66.2206 182.8431,64.509 182.2036,64.509 182.2036,64.28 183.7414,64.28 183.7414,64.509 183.0995,64.509 183.0995,66.2206 "/>
   <path class="fil23" d="M183.9983 66.2206l0 -1.9406 0.3861 0 0.4596 1.3741c0.0423,0.128 0.073,0.2239 0.0924,0.2873 0.022,-0.0706 0.0563,-0.1743 0.1036,-0.3109l0.4641 -1.3504 0.3457 0 0 1.9406 -0.2477 0 0 -1.6241 -0.5638 1.6241 -0.2315 0 -0.5608 -1.6517 0 1.6517 -0.2475 0z"/>
  </g>
 </g>
</svg>
