<svg width="225" height="220" viewBox="0 0 225 220" fill="none" xmlns="http://www.w3.org/2000/svg">
<path d="M157.761 84.1292L157.358 83.8502L157.885 84.9662C158.05 85.2969 158.422 85.6895 159.001 86.1442L159.869 86.9192L159.838 86.0512C159.797 85.6379 159.104 84.9972 157.761 84.1292ZM176.051 74.736C176.299 73.7854 176.785 72.6177 177.508 71.233L178.562 69.342C178.81 68.97 179.151 68.846 179.585 68.97C179.999 69.1146 180.185 69.4143 180.143 69.869L179.833 74.147C179.647 77.1644 179.606 79.2104 179.709 80.2851C179.771 80.8018 179.906 81.1945 180.112 81.4631L181.011 82.1451L182.313 82.9202C182.913 83.3335 183.357 83.7778 183.646 84.2532C184.39 85.4312 184.886 87.2499 185.134 89.7092C185.382 91.9826 185.331 93.6773 184.979 94.7933C184.855 95.186 184.835 95.527 184.917 95.8163C184.979 96.085 185.165 96.395 185.475 96.7464L186.188 97.1494L186.808 97.6144L187.056 98.6994C187.036 98.968 186.891 99.2574 186.622 99.5674L185.94 100.497C185.692 100.952 185.568 101.365 185.568 101.737L185.754 103.008C185.837 103.69 185.806 104.228 185.661 104.62C185.475 105.199 185.093 105.499 184.514 105.519C183.853 105.457 183.398 105.457 183.15 105.519C182.654 105.664 182.272 105.85 182.003 106.077C181.611 106.491 181.352 107.039 181.228 107.721C181.084 108.382 181.104 108.919 181.29 109.333L181.879 109.519L182.592 109.705L183.553 109.922C183.925 110.108 184.142 110.418 184.204 110.852L183.739 111.503L182.871 112.557L181.724 113.766C181.228 114.324 181.115 114.716 181.383 114.944C181.569 115.088 181.921 114.789 182.437 114.045C183.181 112.97 183.77 112.226 184.204 111.813C185.486 110.573 186.839 109.715 188.265 109.24C189.981 108.578 190.839 108.32 190.839 108.465L190.374 109.085L189.878 109.674C191.242 109.012 193.143 108.227 195.582 107.318L197.039 107.069C197.783 106.966 198.165 106.966 198.186 107.069C198.227 107.256 197.948 107.566 197.349 108L196.171 108.806L188.203 115.037C187.377 115.698 186.56 116.659 185.754 117.92C185.072 118.932 184.618 119.79 184.39 120.493C184.246 120.968 183.987 121.33 183.615 121.578L182.499 122.229L181.91 122.663L181.941 122.849C182.086 123.469 182.065 124.285 181.879 125.298L181.228 125.98L180.515 126.569C185.372 134.526 188.524 142.42 189.971 150.253C192.161 161.992 190.188 172.387 184.049 181.44C176.258 192.91 166.865 200.102 155.87 203.016C151.179 204.256 145.805 204.855 139.75 204.814L122.142 203.543C112.139 202.406 102.839 198.634 94.2411 192.228C91.5131 190.182 89.0021 187.97 86.708 185.594L83.825 182.37L84.352 179.797L134.697 166.249L135.565 169.907L136.991 168.605C137.094 168.254 137.094 167.913 136.991 167.582C136.887 167.293 136.753 167.076 136.588 166.931L143.656 170.434C148.368 172.749 153.225 173.142 158.226 171.612C164.261 169.773 169.407 165.288 173.664 158.158C176.475 153.446 177.632 147.949 177.136 141.666C176.764 136.892 175.535 132.128 173.447 127.375C171.918 127.437 171.05 127.581 170.843 127.809C170.244 128.491 169.676 128.904 169.138 129.049C168.002 129.4 166.565 128.987 164.829 127.809L164.705 127.716C164.147 127.344 163.909 126.558 163.992 125.36L163.899 124.43L163.62 123.748C163.455 123.562 163.196 123.396 162.845 123.252L161.574 122.725L160.303 122.849L158.784 123.5C157.606 124.202 156.883 124.585 156.614 124.647C155.705 124.874 154.971 124.244 154.413 122.756L153.731 120.121L153.576 119.656L152.863 118.137C152.636 117.558 152.698 116.99 153.049 116.432C153.256 116.08 153.473 115.223 153.7 113.859C153.927 112.495 154.031 111.441 154.01 110.697L153.979 109.426C153.979 108.826 154.103 108.258 154.351 107.721C154.496 107.411 154.775 106.966 155.188 106.387L156.211 104.744L156.521 103.535L156.366 102.45C156.159 101.644 156.077 100.942 156.118 100.342L156.211 98.8234C156.252 98.224 156.366 97.697 156.552 97.2424C156.635 97.0357 156.914 96.5293 157.389 95.7233C157.72 95.1447 157.875 94.7313 157.854 94.4833C157.813 94.07 157.451 92.9023 156.769 90.9803C156.087 89.1616 155.684 87.8596 155.56 87.0742C155.436 86.2682 155.374 85.3899 155.374 84.4392L155.405 83.1682C155.426 82.9408 155.539 82.7445 155.746 82.5791L152.987 80.1611C152.822 80.0164 152.729 79.8408 152.708 79.6341C152.667 79.4068 152.718 79.2001 152.863 79.0141C152.966 78.8488 153.132 78.7351 153.359 78.6731L153.948 78.7661C155.87 79.7374 157.1 80.2851 157.637 80.4091L159.28 80.3781L160.024 80.2541C161.119 80.0888 162.308 80.6468 163.589 81.9281L163.837 82.2071L163.434 78.8591C163.372 77.9704 163.692 76.5754 164.395 74.674C164.932 73.31 165.594 71.8427 166.379 70.272C166.71 69.6106 166.979 68.3086 167.185 66.3659L167.433 62.3359C167.433 61.8812 167.65 61.6125 168.084 61.5299C168.518 61.4265 168.839 61.5712 169.045 61.9639L169.448 63.0179C169.717 63.8446 169.851 64.6299 169.851 65.3739C169.851 65.9112 169.996 66.8826 170.285 68.2879L170.006 65.7769C169.986 65.5496 170.037 65.3429 170.161 65.1569C170.306 64.9502 170.492 64.8262 170.719 64.7849C170.947 64.7642 171.164 64.8159 171.37 64.9399C171.556 65.0639 171.67 65.2396 171.711 65.4669L171.99 66.7069C172.238 67.6163 172.507 68.381 172.796 69.001C173.065 69.6003 173.189 70.303 173.168 71.109L172.92 73.186L172.703 74.581C172.662 75.2424 173.23 76.3481 174.408 77.8981L175.152 78.8901L175.493 79.4791L175.586 78.1771C175.69 76.6271 175.845 75.4801 176.051 74.736Z" fill="#0D131A"/>
<path d="M174.564 91.9721L175.123 91.6621C175.267 91.7241 175.267 92.0444 175.123 92.6231C174.916 93.4705 174.823 94.4831 174.843 95.6612C174.864 96.7565 174.978 97.6865 175.184 98.4512C175.37 99.0919 175.67 99.6809 176.084 100.218C176.435 100.714 176.621 101.19 176.642 101.644C176.662 102.719 176.58 103.732 176.394 104.682C176.394 104.889 176.466 105.034 176.611 105.116C176.735 105.199 176.931 105.127 177.2 104.899C177.468 104.569 177.706 104.114 177.913 103.535C178.016 103.225 178.026 102.853 177.944 102.419C177.902 101.882 177.985 101.407 178.192 100.993L178.688 99.9702C178.874 99.5982 179.06 99.4432 179.246 99.5052L179.339 100.032L179.184 101.613L179.556 102.171L179.711 103.101C179.669 103.432 179.38 104.217 178.843 105.457L178.13 107.534C177.902 108.237 177.809 108.764 177.851 109.115C177.954 110.087 178.15 110.572 178.44 110.572L178.688 110.169L178.936 109.332L179.928 107.441C180.134 107.09 180.527 106.625 181.106 106.046C180.651 106.873 180.424 107.731 180.424 108.619C180.424 109.012 180.527 109.467 180.734 109.983C180.878 110.314 181.292 110.552 181.974 110.696C182.635 110.8 182.986 110.996 183.028 111.285C183.069 111.616 182.842 111.988 182.346 112.401L181.168 113.424C180.858 113.817 180.692 114.22 180.672 114.633C180.63 115.109 180.796 115.47 181.168 115.718C181.581 116.008 182.18 115.605 182.966 114.509L184.733 112.122C185.394 111.564 186.82 110.758 189.011 109.704L187.027 111.409C186.737 111.657 186.458 112.019 186.19 112.494L185.88 113.145L187.12 112.308C188.112 111.668 188.99 111.13 189.755 110.696C190.995 110.035 193.041 109.177 195.893 108.123L187.74 113.982C186.768 114.747 185.828 115.687 184.919 116.803C184.071 117.878 183.534 118.756 183.307 119.438C183.121 119.955 182.687 120.493 182.005 121.051L180.579 122.136C180.393 122.342 180.341 122.642 180.424 123.035L180.455 124.585C180.372 124.936 180.165 125.256 179.835 125.546L175.247 120.586L173.262 118.818L172.177 118.043L174.44 121.113L172.704 121.299L172.301 121.826L171.03 119.501L171.154 120.555C171.34 121.505 171.661 122.642 172.115 123.965L170.782 124.089L169.976 124.337L169.449 124.306C168.85 123.789 168.53 123.427 168.488 123.221C168.468 123.097 168.509 122.973 168.612 122.849L168.829 122.57C169.077 122.094 169.16 121.433 169.077 120.586C168.995 119.738 168.778 119.097 168.426 118.663C168.096 118.229 167.486 117.744 166.597 117.206C165.647 116.648 164.892 116.369 164.334 116.369C164.128 116.369 163.797 116.483 163.342 116.71L162.257 117.206C161.865 117.31 161.534 117.134 161.265 116.679C160.811 115.811 160.459 114.83 160.211 113.734C159.963 112.577 159.974 111.864 160.242 111.595C160.552 111.285 161.462 110.789 162.97 110.107L164.551 109.208C165.006 108.898 165.285 108.578 165.388 108.247C165.636 107.565 165.368 106.739 164.582 105.767C163.549 104.507 163.322 103.298 163.9 102.14C164.148 101.603 164.748 101.159 165.698 100.807C166.277 100.58 166.876 100.136 167.496 99.4742L168.457 97.7072L169.263 95.2582C169.47 94.5141 169.666 94.1421 169.852 94.1421C169.976 94.1421 170.059 94.4315 170.1 95.0102C170.142 95.7748 170.1 96.5292 169.976 97.2732L169.728 98.7612C169.687 99.0505 169.708 99.2365 169.79 99.3192C169.935 99.4639 170.111 99.5155 170.317 99.4742C170.896 99.3295 171.371 99.0092 171.743 98.5132C172.177 97.8932 172.498 96.9425 172.704 95.6612C172.87 94.6692 173.231 93.7495 173.789 92.9021L174.564 91.9721Z" fill="#EFE908"/>
<path d="M176.857 74.9528C177.105 74.0434 177.591 72.9171 178.314 71.5737L179.306 69.8067L178.996 74.0847C178.79 77.1435 178.748 79.2411 178.872 80.3778C178.975 81.3905 179.43 82.1655 180.236 82.7029C181.332 83.4262 182.065 84.0772 182.437 84.6559C183.14 85.7719 183.677 87.4769 184.049 89.771C184.421 92.003 184.463 93.5944 184.173 94.545C183.946 95.289 184.08 96.0124 184.576 96.7151L185.723 98.2651C185.909 98.6578 185.94 98.9471 185.816 99.1331C185.568 99.4224 185.351 99.7531 185.165 100.125C184.979 100.518 184.886 101.014 184.886 101.613C184.886 102.336 184.783 102.977 184.576 103.535C184.37 104.176 183.905 104.61 183.181 104.837C182.251 105.127 181.642 105.416 181.352 105.705L180.856 106.356C180.195 107.059 179.627 107.958 179.151 109.053L178.779 110.231L178.5 110.789C178.376 110.831 178.252 110.717 178.128 110.448L177.818 109.332C177.756 108.898 177.808 108.382 177.973 107.782L178.562 106.015L179.213 104.403L179.585 103.163L179.554 102.419L179.306 102.078C179.141 101.83 179.058 101.582 179.058 101.334L179.213 100.187C179.275 99.8564 179.265 99.6808 179.182 99.6601C178.996 99.6188 178.738 99.9804 178.407 100.745C178.097 101.406 177.973 101.944 178.035 102.357V103.442C177.58 104.724 177.115 105.323 176.64 105.24C176.289 105.178 176.206 104.786 176.392 104.062L176.547 101.892C176.547 101.313 176.402 100.817 176.113 100.404C175.658 99.8048 175.369 99.2881 175.245 98.8541C174.79 97.2627 174.604 95.7437 174.687 94.297C174.708 93.8217 174.832 93.212 175.059 92.468C175.348 91.4967 175.059 91.5277 174.191 92.561C173.55 93.4084 173.116 94.3384 172.889 95.351C172.517 97.0871 172.093 98.2444 171.618 98.8231C171.473 98.9884 171.246 99.1538 170.936 99.3191C170.585 99.5051 170.295 99.5878 170.068 99.5671L169.696 99.3191L169.603 98.9781L170.037 95.723C170.099 94.793 170.037 94.328 169.851 94.328C169.748 94.328 169.634 94.5244 169.51 94.917L169.076 96.3121C168.58 97.8828 168.167 98.8644 167.836 99.2571L166.658 100.342L165.48 101.055C165.108 101.2 164.829 101.344 164.643 101.489C164.395 101.696 164.188 102.006 164.023 102.419C163.713 103.122 163.682 103.814 163.93 104.496L164.798 105.922L165.511 107.131C165.656 107.503 165.666 107.896 165.542 108.309C165.459 108.537 165.17 108.847 164.674 109.239L162.597 110.417C161.646 110.769 160.913 111.192 160.396 111.688C159.879 112.226 160.2 113.869 161.357 116.617C161.564 117.031 161.853 117.186 162.225 117.082L163.217 116.617C163.734 116.369 164.178 116.245 164.55 116.245C164.963 116.245 165.666 116.555 166.658 117.175C167.588 117.733 168.198 118.178 168.487 118.508C168.776 118.818 168.983 119.407 169.107 120.275C169.231 121.081 169.231 121.691 169.107 122.104L168.673 122.879C168.549 123.086 168.57 123.262 168.735 123.406L169.355 123.995C169.562 124.181 169.779 124.254 170.006 124.212L170.843 123.933L172.052 123.809L172.734 125.638L172.424 125.576C171.949 125.473 171.349 125.804 170.626 126.568L169.014 128.026C168.373 128.191 167.133 127.664 165.294 126.444C164.963 126.217 164.808 125.917 164.829 125.545C164.87 124.946 164.829 124.481 164.705 124.15C164.519 123.613 164.147 123.2 163.589 122.91C162.866 122.642 162.287 122.383 161.853 122.135L159.497 122.259L157.265 123.158C156.748 123.282 156.201 122.931 155.622 122.104C155.188 121.464 154.826 120.72 154.537 119.872L154.072 118.229C153.989 117.713 154.103 117.206 154.413 116.71C154.702 116.235 154.867 115.088 154.909 113.269L154.847 109.425C154.847 108.743 155.084 108.061 155.56 107.379L156.986 105.116C157.358 104.352 157.461 103.556 157.296 102.729C157.069 101.551 156.965 100.776 156.986 100.404C157.027 99.8461 157.348 98.8128 157.947 97.3041C158.505 95.9194 158.753 94.948 158.691 94.39C158.65 93.832 158.288 92.623 157.606 90.763C156.903 88.7996 156.5 87.5286 156.397 86.9499C156.273 86.1853 156.221 85.3379 156.242 84.4079L156.273 83.2299L156.428 83.8189C156.593 84.3149 156.831 84.8316 157.141 85.3689C157.389 85.8236 157.813 86.2989 158.412 86.7949C159.073 87.3323 159.549 87.8179 159.838 88.252C160.127 88.686 160.324 89.213 160.427 89.833C160.716 88.0969 160.809 86.8053 160.706 85.9579C160.644 85.3999 160.231 84.8212 159.466 84.2219L157.544 82.9509C157.131 82.6615 156.345 82.0002 155.188 80.9668L153.545 79.5098L155.064 80.2538C156.159 80.7912 156.945 81.1218 157.42 81.2458L158.815 81.3388L160.117 81.0908C160.964 80.9668 161.925 81.4422 163 82.5169C163.207 82.7235 163.362 83.1472 163.465 83.7879C163.589 84.4699 163.858 85.1002 164.271 85.6789C165.036 86.7123 165.47 87.5183 165.573 88.0969C164.808 83.1369 164.374 80.0368 164.271 78.7968C164.209 77.9701 164.55 76.6268 165.294 74.7668C165.79 73.4647 166.41 72.0904 167.154 70.6437C167.567 69.817 167.877 68.1947 168.084 65.7766L168.27 62.3666L168.642 63.2656C168.89 64.0096 169.014 64.7123 169.014 65.3736C169.014 65.9316 169.138 66.8616 169.386 68.1637L169.851 71.0777C169.954 72.2144 170.047 72.6897 170.13 72.5037C170.419 72.1317 170.709 71.5117 170.998 70.6437C171.287 69.7963 171.236 68.1327 170.843 65.6526L171.153 66.9236L171.99 69.3727C172.279 70.0134 172.362 70.8504 172.238 71.8837L171.866 74.5187C171.804 75.2214 172.104 76.0791 172.765 77.0918L174.439 79.3858C175.018 80.2332 175.348 81.1838 175.431 82.2379C175.824 81.5765 176.113 80.8118 176.299 79.9438L176.485 77.7738C176.526 76.6991 176.65 75.7588 176.857 74.9528Z" fill="#E50020"/>
<path d="M95.0159 190.709C92.2878 188.725 89.7768 186.617 87.4828 184.384L84.8477 181.594L108.966 175.115C111.239 179.393 114.133 183.227 117.646 186.617C123.164 191.907 129.488 195.255 136.618 196.661C150.155 199.306 163.01 196.351 175.183 187.795C177.725 185.996 180.102 183.764 182.313 181.098C174.687 192.031 165.563 198.831 154.94 201.497C150.455 202.633 145.309 203.16 139.501 203.078L122.792 201.807C113.017 200.691 103.758 196.991 95.0159 190.709Z" fill="#DDD583"/>
<path d="M111.51 174.495L122.453 171.519C125.264 176.624 129.562 180.726 135.349 183.826C141.281 186.989 147.822 188.57 154.972 188.57C161.193 188.57 167.001 187.35 172.395 184.911C177.623 182.535 181.84 179.3 185.043 175.208C182.377 180.044 178.874 183.93 174.534 186.865C162.568 194.945 149.992 197.694 136.806 195.111C130.007 193.767 124.158 190.585 119.26 185.562C116.532 182.752 113.949 179.063 111.51 174.495Z" fill="#D18200"/>
<path d="M172.61 121.051L172.176 118.602L173.447 119.718L174.563 121.299L178.314 126.352C181.559 130.981 184.245 136.396 186.374 142.596C188.42 148.548 189.443 153.705 189.443 158.065C189.443 164.141 187.976 169.856 185.041 175.208C181.838 179.301 177.622 182.535 172.393 184.912C166.999 187.35 161.191 188.57 154.971 188.57C147.82 188.57 141.279 186.989 135.347 183.827C129.561 180.727 125.262 176.624 122.451 171.519L135.192 168.078L135.874 168.729C137.032 169.515 139.346 170.755 142.819 172.449C147.841 174.909 153.111 175.312 158.629 173.658C165.284 171.674 170.884 166.89 175.431 159.305C178.366 154.407 179.482 148.6 178.779 141.883C178.262 137.047 176.867 132.015 174.594 126.786C173.457 124.182 172.486 122.198 171.68 120.834L171.37 119.377L172.61 121.051Z" fill="#F29600"/>
<path d="M117.338 183.424C115.354 181.047 113.411 178.071 111.51 174.495L135.163 168.109L135.256 168.264C135.442 168.471 135.887 168.781 136.589 169.194C137.003 171.013 137.209 172.852 137.209 174.712C137.209 178.205 136.517 181.533 135.132 184.695C133.789 187.753 131.898 190.44 129.459 192.755C124.85 190.667 120.81 187.557 117.338 183.424Z" fill="#D18200"/>
<path d="M90.8933 187.516C89.6533 185.408 88.7233 183.144 88.1033 180.726L108.967 175.115C110.641 178.319 112.749 181.326 115.291 184.136C119.073 188.394 123.371 191.649 128.187 193.902C125.996 195.7 123.599 197.084 120.995 198.056C118.267 199.068 115.446 199.585 112.532 199.606C104.802 197.146 97.5894 193.116 90.8933 187.516Z" fill="#DDD583"/>
<path d="M62.0319 28.0184L53.0108 38.0005C52.6387 38.5172 52.4527 39.9742 52.4527 42.3716C52.4527 45.0583 52.7214 47.8587 53.2588 50.7727C53.5894 52.6741 54.3334 55.1231 55.4908 58.1198C56.6688 61.2198 57.6815 63.2865 58.5288 64.3199L63.1169 69.497L67.364 74.302C68.0046 75.232 68.4593 76.7717 68.728 78.9211C69.3067 82.7032 69.782 85.1419 70.154 86.2372C70.6707 87.7252 71.3113 89.1616 72.076 90.5463C72.634 91.5383 73.471 92.8713 74.5871 94.5453C76.0958 96.7567 77.8421 98.8751 79.8261 100.9L81.1902 100.342L82.8332 100.249C83.3912 100.435 83.7839 100.952 84.0112 101.799L84.4142 103.907L86.3672 105.209C86.7599 105.478 87.0079 105.871 87.1112 106.387C87.1732 106.863 87.0596 107.297 86.7702 107.69L82.2442 113.549L79.3921 120.772C79.1648 121.371 78.7308 121.722 78.0901 121.826C77.8008 121.888 77.3771 121.784 76.8191 121.516L75.7031 120.772C73.5124 118.126 71.2597 115.729 68.945 113.58C65.4729 110.376 62.7036 108.578 60.6369 108.186C59.1282 107.896 57.5782 108.02 55.9868 108.558C55.5115 108.744 54.2714 109.333 52.2667 110.325C51.0267 110.945 50.1277 111.327 49.5697 111.472C48.6397 111.72 47.813 111.658 47.0897 111.286C46.4903 110.976 46.1493 110.449 46.0667 109.705L46.1287 108.279L46.2837 107.597C46.4697 106.398 46.1803 105.085 45.4156 103.659C44.9196 102.791 43.9586 101.913 42.5326 101.024C40.4246 99.6811 38.0582 99.0094 35.4335 99.0094C29.3781 99.0094 22.992 101.531 16.2752 106.573C12.4518 109.426 9.14513 112.536 6.35509 115.905C6.25176 116.773 6.25176 117.837 6.35509 119.098L6.54109 121.113C6.54109 122.146 6.29309 123.055 5.79708 123.841C5.28041 124.647 4.6604 125.05 3.93706 125.05C3.25505 125.05 2.64537 124.791 2.10803 124.275C1.42602 123.634 1.03335 122.704 0.930013 121.485L0.899013 121.299C0.465007 116.38 0.186003 112.495 0.0620009 109.643C-0.020667 107.721 -0.020667 106.563 0.0620009 106.17C0.434006 103.628 1.26068 99.6087 2.54204 94.1113C3.74072 88.9446 4.82574 84.6665 5.79708 81.2771C6.64443 78.3011 8.00845 74.2607 9.88914 69.156C11.6458 64.3819 12.7928 61.5195 13.3302 60.5688C14.0329 59.3081 16.8436 55.8154 21.7623 50.0907C26.619 44.4486 29.6571 41.1316 30.8764 40.1395C31.8891 39.3129 33.5011 38.4035 35.7125 37.4115L37.6965 36.5125C38.5439 36.1198 39.0606 35.8511 39.2466 35.7065L46.9347 29.7544L54.8708 23.7093C56.4208 22.5933 57.8985 21.9216 59.3038 21.6943C60.7712 21.4669 61.8665 21.7666 62.5899 22.5933C63.1272 23.2133 63.3752 24.0193 63.3339 25.0113C63.2719 26.1273 62.8379 27.1297 62.0319 28.0184Z" fill="#0D131A"/>
<path d="M30.6584 53.5937C35.1845 49.7497 37.8298 47.6623 38.5945 47.3316C39.6278 47.187 41.0745 47.3523 42.9346 47.8276C44.8153 48.3237 45.9313 48.8507 46.2826 49.4087C46.5099 49.8427 47.8223 53.8314 50.2197 61.3748L51.9247 66.4589C52.3587 67.5956 55.3864 70.613 61.0078 75.511C61.7312 76.1517 62.6612 78.4147 63.7979 82.3001L64.5419 84.7802L65.9989 90.3913L67.9829 98.5444C68.4169 100.218 68.8096 101.169 69.1609 101.396C70.5456 102.347 72.1163 103.825 73.873 105.829C74.2037 106.222 74.9063 107.731 75.981 110.356L78.8951 117.703L77.8101 120.152C76.1154 118.271 74.152 116.328 71.92 114.324C67.4559 110.335 63.8805 108.093 61.1938 107.596C58.6311 107.121 55.8204 107.576 52.7617 108.961L49.9097 110.294C49.021 110.645 48.3596 110.707 47.9256 110.48C47.6983 110.356 47.5433 109.932 47.4606 109.209L47.3986 108.186C47.5433 107.855 47.6156 107.4 47.6156 106.821C47.6156 105.685 47.2746 104.486 46.5926 103.225C46.0139 102.13 44.8566 101.107 43.1206 100.156C40.8472 98.8957 38.2535 98.2654 35.3395 98.2654C29.47 98.2654 23.4146 100.384 17.1732 104.62C13.3085 107.245 9.71243 110.407 6.38504 114.107C6.61238 105.757 6.86038 101.076 7.12905 100.063C8.01773 96.4467 9.9191 90.5049 12.8331 82.2381C16.7185 71.264 19.8289 64.2992 22.1643 61.3438C23.1563 60.1038 25.9877 57.5204 30.6584 53.5937Z" fill="#008086"/>
<path d="M60.4194 27.2125C55.2113 32.7513 52.1009 36.151 51.0883 37.4117C50.4269 38.259 50.2099 40.2637 50.4372 43.4258C50.5819 45.5338 50.9126 47.9828 51.4293 50.7729C51.7599 52.6536 52.5969 55.1956 53.9403 58.399C55.3043 61.623 56.4823 63.8447 57.4743 65.0641L65.9685 74.9842C66.5471 75.7489 67.0535 77.4436 67.4875 80.0683C68.0248 83.2923 68.4382 85.3177 68.7275 86.1444C69.2648 87.7151 69.8125 89.1101 70.3705 90.3294L72.4476 94.3595C73.2122 95.7855 74.4936 97.5835 76.2916 99.7536C77.9656 101.758 78.968 102.823 79.2986 102.947L80.4147 102.606C80.952 102.337 81.3757 102.254 81.6857 102.358C82.2644 102.544 82.6467 103.401 82.8327 104.931L85.4057 106.636L80.7557 112.712L80.1047 114.324C77.604 108.682 75.9919 105.458 75.2686 104.652C73.0572 102.11 71.2385 100.363 69.8125 99.4126C69.4198 98.9579 68.4175 95.5685 66.8055 89.2444L65.3174 83.5403L64.5734 81.0913L63.4264 77.4643C62.9718 76.3689 62.4447 75.5526 61.8454 75.0152L57.0713 70.3652C54.7566 67.9885 53.4959 66.5211 53.2893 65.9631L51.5843 60.941C48.8562 52.7569 47.3682 48.4788 47.1202 48.1068C46.5829 47.2182 45.1878 46.4948 42.9351 45.9368C40.8891 45.4408 39.2461 45.2858 38.0061 45.4718C37.2414 45.5958 34.3583 47.8485 29.3569 52.2299C24.5209 56.446 21.6585 59.1223 20.7698 60.259C18.2278 63.4831 15.0037 70.9438 11.0977 82.6413C9.13432 88.4901 7.41896 94.0805 5.95161 99.4126C5.62094 100.777 5.34193 106.181 5.1146 115.626L4.83559 121.113C4.83559 121.588 4.74259 122.002 4.55659 122.353C4.37059 122.684 4.16392 122.849 3.93658 122.849C3.64724 122.849 3.44057 122.766 3.31657 122.601C3.08924 122.353 2.94457 121.878 2.88257 121.175L2.47956 114.851L2.13856 108.806C2.15922 106.615 2.75856 102.699 3.93658 97.0565C4.96993 92.0138 5.97228 87.8804 6.94362 84.6564C8.39031 79.8203 10.1263 74.6432 12.1517 69.1251C13.8464 64.5784 14.9211 61.8917 15.3757 61.065C16.0164 59.9077 18.6515 56.5906 23.2809 51.1139C27.9309 45.5958 30.8243 42.3821 31.961 41.4727C32.9117 40.7081 34.7924 39.6954 37.6031 38.4347C39.0084 37.794 40.3208 37.236 41.5401 36.7607L55.2733 25.4455C56.41 24.4948 57.5467 23.8438 58.6834 23.4925C59.8614 23.1411 60.6364 23.2238 61.0084 23.7405C61.7524 24.8152 61.5561 25.9725 60.4194 27.2125Z" fill="#F29600"/>
<path d="M45.6006 56.8798C45.1253 56.6524 44.4226 56.4354 43.4926 56.2288L41.1985 55.8878C39.7518 56.8798 37.1271 58.9981 33.3244 62.2429C29.315 65.6529 26.9177 67.8539 26.1323 68.8459C23.9623 71.5947 20.9552 78.3527 17.1112 89.1202C14.1765 97.263 12.2441 103.143 11.3141 106.759L11.1281 109.364C9.55742 110.79 7.9764 112.371 6.38504 114.107C6.61238 105.757 6.86038 101.076 7.12905 100.063C8.01773 96.4467 9.9191 90.5049 12.8331 82.2381C16.7185 71.264 19.8289 64.2992 22.1643 61.3438C23.1563 60.1038 25.9877 57.5204 30.6584 53.5937C35.1845 49.7497 37.8298 47.6623 38.5945 47.3316C39.6278 47.187 41.0745 47.3523 42.9346 47.8276C44.8153 48.3237 45.9313 48.8507 46.2826 49.4087C46.5099 49.8427 47.8223 53.8314 50.2197 61.3748L51.9247 66.4589C52.3587 67.5956 55.3864 70.613 61.0078 75.511C61.7312 76.1517 62.6612 78.4147 63.7979 82.3001L64.5419 84.7802L65.9989 90.3913L67.9829 98.5444C68.4169 100.218 68.8096 101.169 69.1609 101.396C70.5456 102.347 72.1163 103.825 73.873 105.829C74.2037 106.222 74.9063 107.731 75.981 110.356L78.8951 117.703L77.8101 120.152L75.113 117.362C74.2037 115.088 73.6147 113.755 73.346 113.363C71.734 111.503 70.3803 110.221 69.2849 109.519C68.5616 109.023 68.0036 108.247 67.6109 107.193C67.3216 106.449 66.8566 104.734 66.2159 102.047L64.9449 96.8083L63.5188 91.3833L62.7438 88.7792C62.2478 87.0845 61.7622 85.0075 61.2868 82.5481L60.7288 79.3861L52.0797 71.946C50.6123 70.6026 49.6617 69.2903 49.2276 68.0089L45.6006 56.8798Z" fill="#00666C"/>
<path d="M220.071 82.3931C220.774 84.1911 221.652 88.5415 222.706 95.4443C223.719 102.058 224.225 106.429 224.225 108.557V109.239L224.132 122.787C223.864 125.329 222.789 126.579 220.908 126.538C220.082 126.517 219.493 126.135 219.141 125.391C218.811 124.688 218.645 123.531 218.645 121.919C218.645 120.906 218.542 119.976 218.335 119.129C214.181 115.037 209.821 110.955 205.253 106.883C199.053 101.386 194.899 98.1826 192.791 97.2733C190.249 96.1779 187.097 95.7026 183.336 95.8473C180.256 95.9919 178.066 96.3846 176.764 97.0253C176.164 97.3146 174.697 98.844 172.362 101.613L169.665 104.558C169.045 105.158 168.466 105.488 167.929 105.55L166.751 105.395L164.922 104.62C161.78 103.256 159.486 102.378 158.039 101.985C154.671 101.097 151.819 101.128 149.483 102.078C146.177 103.422 142.488 105.488 138.416 108.278C135.316 110.407 133.239 111.998 132.185 113.053C131.834 113.445 130.769 115.378 128.992 118.85L123.66 129.359C123.391 129.855 122.792 130.123 121.862 130.165C121.201 130.165 120.684 129.886 120.312 129.328L106.269 105.705C105.938 105.168 105.917 104.62 106.207 104.062C106.517 103.484 106.982 103.174 107.602 103.132L113.585 102.977C114.453 100.435 115.197 98.9266 115.817 98.4513C116.168 98.2033 116.84 97.9966 117.832 97.8313L120.715 97.8933L125.675 94.6073L133.208 89.1512C137.321 86.0098 140.834 82.6101 143.748 78.952C144.265 77.7327 145.102 74.9943 146.259 70.7369C147.479 66.2315 148.626 61.5814 149.7 56.7867C150.692 52.3433 151.519 47.8896 152.18 43.4255C152.78 39.3541 153.048 36.7501 152.986 35.6134C152.945 34.9934 152.335 33.7637 151.157 31.9244C149.876 29.899 148.15 27.5223 145.98 24.7943C145.112 23.7196 144.544 22.5829 144.275 21.3842C143.945 19.9375 144.151 18.6768 144.895 17.6022C145.453 16.7961 146.146 16.3208 146.972 16.1761C147.882 16.0315 148.884 16.2175 149.979 16.7341C150.909 17.1681 151.767 17.7468 152.552 18.4702L157.605 23.3372L162.442 28.0183C162.607 28.163 163.33 28.3593 164.612 28.6073L167.154 29.1343C167.753 29.3203 170.161 30.4983 174.377 32.6684L181.259 36.0784C183.284 36.7191 185.351 37.1634 187.459 37.4114L189.939 37.7524C190.89 37.9178 191.489 38.1244 191.737 38.3724C193.184 39.7365 196.077 44.1695 200.417 51.6716L209.469 67.6369C211.329 70.8402 213.623 74.1573 216.351 77.588L220.071 82.3931Z" fill="#0D131A"/>
<path d="M212.757 76.379L215.671 80.3161L218.058 83.9431C218.74 85.6585 219.649 89.7195 220.786 96.1263C221.923 102.471 222.491 106.615 222.491 108.557V115.347L222.398 122.229C222.316 122.952 222.181 123.479 221.995 123.81C221.747 124.244 221.386 124.45 220.91 124.43C220.6 124.409 220.373 123.996 220.228 123.19C220.125 122.632 220.073 122.012 220.073 121.33L220.011 118.571L217.903 95.7233V95.5993C215.857 88.0352 211.589 78.5594 205.1 67.1719C199.21 56.8591 194.508 49.9563 190.995 46.4636C190.023 45.4716 185.673 43.6839 177.944 41.1005C170.793 38.6825 166.99 37.4734 166.535 37.4734C165.254 37.3701 163.952 37.6491 162.629 38.3105C161.307 38.9925 160.294 39.9018 159.591 41.0385C158.889 42.1545 157.008 48.5199 153.949 60.1348C153.04 63.6688 152.058 68.9079 151.004 75.852C150.405 79.7787 150.012 81.9281 149.826 82.3001C149.495 82.9201 146.912 84.9661 142.076 88.4382L138.542 91.0422C137.839 91.6209 137.095 92.5406 136.31 93.8013C135.897 94.4419 135.308 95.4856 134.543 96.9323L133.861 98.2033C133.758 98.3273 133.21 98.503 132.218 98.7303C130.275 99.2057 128.705 99.65 127.506 100.063C125.935 100.601 123.879 103.143 121.337 107.689C119.642 110.727 117.865 114.406 116.005 118.726L107.728 104.837L114.889 104.279L115.602 102.264C116.139 100.88 116.594 100.053 116.966 99.7843C117.482 99.433 118.35 99.2677 119.57 99.2883L121.213 99.4123L127.072 95.4443L134.233 90.5462C135.08 89.9055 137.095 88.0455 140.278 84.9661C143.44 81.8868 145.104 80.1714 145.269 79.8201C146.323 77.5467 148.276 70.1686 151.128 57.6857C154.063 44.7896 155.417 37.1944 155.189 34.9004C155.107 34.0944 153.949 32.131 151.717 29.0103L147.501 23.4922C146.902 22.7482 146.488 21.8906 146.261 20.9192C145.992 19.8859 146.034 19.0592 146.385 18.4392C146.736 17.8398 147.439 17.7468 148.493 18.1602C149.423 18.5115 150.374 19.1315 151.345 20.0202L156.367 25.1353L160.986 29.8163L163.621 30.2503L167.248 31.0254C168.096 31.3147 172.498 33.3711 180.455 37.1944L185.849 38.7135C188.597 39.4161 190.085 39.8708 190.313 40.0775C192.276 41.9582 196.492 48.4166 202.961 59.4528L212.757 76.379Z" fill="#F29600"/>
<path d="M216.849 95.9711L218.771 117.361C214.472 113.311 210.349 109.57 206.402 106.139C200.016 100.6 195.675 97.3351 193.381 96.3431C190.591 95.1444 187.223 94.6794 183.275 94.9481C180.134 95.1547 177.778 95.6507 176.207 96.4361C175.525 96.7668 174.079 98.1514 171.867 100.59C169.821 102.822 168.405 104.011 167.62 104.155C167.145 104.259 166.215 104.031 164.83 103.473L160.521 101.737C156.181 100.208 152.409 100.094 149.206 101.396C145.651 102.864 141.776 104.858 137.581 107.379C134.047 109.508 131.835 110.996 130.947 111.843C130.409 112.381 128.725 115.305 125.893 120.616L121.801 128.429L117.554 121.608C120.572 114.106 122.246 109.983 122.576 109.239C124.56 104.817 126.162 102.399 127.382 101.985C128.25 101.675 129.965 101.251 132.528 100.714L134.078 100.311L135.008 99.6291L135.814 98.1721L137.24 94.8861C137.922 93.4187 138.542 92.4474 139.1 91.972L140.681 90.98L142.913 89.585L148.462 85.4929C149.971 84.3149 150.849 83.4676 151.097 82.9509L151.655 80.7499L152.399 76.0688L153.453 68.6907C153.928 65.5493 154.435 62.9556 154.972 60.9096L158.289 48.2614C159.281 44.5827 159.891 42.5573 160.118 42.1853C160.676 41.3173 161.647 40.625 163.032 40.1083C164.293 39.6123 165.471 39.4159 166.566 39.5193C167.599 39.6846 171.361 40.8833 177.85 43.1153C184.939 45.5334 188.876 47.1351 189.661 47.9204C193.257 51.5371 197.99 58.2745 203.86 68.1327C210.535 79.3342 214.865 88.6136 216.849 95.9711Z" fill="#008086"/>
<path d="M213.718 112.68L212.881 103.411C210.938 96.2811 206.712 87.26 200.202 76.3478C194.497 66.8203 189.951 60.3309 186.561 56.8795C185.549 56.1769 181.994 54.7818 175.897 52.6945C170.441 50.8344 166.814 49.6771 165.016 49.2224C164.396 49.2018 163.714 49.3361 162.97 49.6254C162.226 49.8941 161.72 50.1834 161.451 50.4934C161.141 51.3201 159.86 56.0322 157.607 64.6296L156.615 68.5047C155.954 71.0054 155.282 74.7564 154.6 79.7579L154.104 83.3539L153.205 88.655C152.998 89.771 152.761 90.577 152.492 91.073C152.12 91.8377 151.293 92.7574 150.012 93.8321L143.44 98.7921L140.805 100.435L139.782 101.055C132.383 107.71 128.229 111.192 127.32 111.502C126.162 112.453 123.858 117.341 120.406 126.166V126.197L117.554 121.608C120.572 114.106 122.246 109.983 122.576 109.239C124.56 104.817 126.162 102.399 127.382 101.985C128.25 101.675 129.965 101.251 132.528 100.714L134.078 100.311L135.008 99.6291L135.814 98.1721L137.24 94.8861C137.922 93.4187 138.542 92.4474 139.1 91.972L140.681 90.98L142.913 89.585L148.462 85.4929C149.971 84.3149 150.849 83.4676 151.097 82.9509L151.655 80.7499L152.399 76.0688L153.453 68.6907C153.928 65.5493 154.435 62.9556 154.972 60.9096L158.289 48.2614C159.281 44.5827 159.891 42.5573 160.118 42.1853C160.676 41.3173 161.647 40.625 163.032 40.1083C164.293 39.6123 165.471 39.4159 166.566 39.5193C167.599 39.6846 171.361 40.8833 177.85 43.1153C184.939 45.5334 188.876 47.1351 189.661 47.9204C193.257 51.5371 197.99 58.2745 203.86 68.1327C210.535 79.3342 214.865 88.6137 216.849 95.9711L218.771 117.361L213.718 112.68Z" fill="#00666C"/>
<path d="M24.7381 119.036L24.1181 118.912L23.0331 118.137C22.3098 117.31 21.9997 116.287 22.1031 115.068C22.1651 114.241 22.9194 112.887 24.3661 111.006C25.5648 109.436 26.4638 108.402 27.0632 107.906L27.3112 107.689L26.0711 104.31L25.8851 103.938C25.5958 103.339 25.4305 102.812 25.3891 102.357C25.3478 101.779 25.4615 101.128 25.7301 100.404C26.2261 99.185 27.0735 98.3273 28.2722 97.8313C29.0988 97.5006 30.2769 97.3559 31.8062 97.3973L34.1933 97.6763C34.8959 97.9656 36.0429 99.2366 37.6343 101.489L38.1613 101.706L38.8433 101.892L41.1374 100.807C42.1914 100.022 42.9664 99.5363 43.4624 99.3503C44.1237 99.1023 44.8677 99.092 45.6944 99.3193C46.8311 99.6086 47.8024 100.694 48.6085 102.574C49.3111 104.248 49.5591 105.571 49.3525 106.542C49.2698 106.976 48.9908 107.689 48.5155 108.681L47.1204 111.409L46.7794 112.029L46.8724 112.742C51.0265 116.483 53.7339 118.188 54.9945 117.858L57.4126 117.269C59.0453 116.855 60.5953 116.339 62.0627 115.719C64.4807 114.706 66.5474 113.693 68.2627 112.68C68.7587 111.378 69.1721 110.479 69.5028 109.983C70.3501 108.785 71.5901 107.834 73.2228 107.131C74.6075 106.532 76.8602 106.201 79.9809 106.139C81.8203 106.098 83.453 106.129 84.879 106.232L87.173 106.449L79.2369 123.5L78.0589 123.283L72.6958 121.547L69.1618 123.314L64.2017 125.701L62.0937 126.817L60.2956 127.902C58.3323 128.935 56.7822 129.503 55.6456 129.607C53.0415 129.793 49.8898 128.78 46.1904 126.569C43.8964 125.184 41.5404 123.448 39.1223 121.361C38.3576 121.795 37.6653 122.022 37.0453 122.043C36.1773 122.084 35.2266 121.805 34.1933 121.206C33.5939 120.875 32.9326 120.234 32.2092 119.284L30.8142 117.207L30.0702 118.726L29.5432 119.284L24.7381 119.036Z" fill="#0D131A"/>
<path d="M24.8005 117.423C24.5525 117.423 24.3148 117.33 24.0875 117.144C23.6121 116.772 23.4055 116.152 23.4675 115.284C23.5088 114.664 23.7361 114.024 24.1495 113.362L25.7305 111.347L27.7145 109.456L28.9545 108.34C29.1819 107.989 28.7065 106.439 27.5285 103.69C26.9912 102.45 26.7225 101.624 26.7225 101.21C26.7018 100.239 27.3735 99.4742 28.7375 98.9162L31.5896 98.7612L33.6666 99.1022L34.9686 100.59L36.3326 102.419C36.746 102.998 37.4797 103.329 38.5337 103.411L41.4787 101.985C42.1814 101.448 42.7911 101.128 43.3077 101.024L45.0438 101.179C45.6844 101.345 46.3045 102.151 46.9038 103.597C47.4618 104.961 47.6788 105.943 47.5548 106.542C47.4721 106.997 47.1311 107.824 46.5318 109.022L45.3538 111.347C45.0644 111.926 45.1058 112.691 45.4778 113.641L49.4148 116.772C52.3289 118.798 54.5196 119.614 55.9869 119.222L58.87 118.23L63.21 116.555L69.5961 113.858C69.6995 113.3 69.9785 112.66 70.4331 111.936C71.3631 110.49 72.7685 109.363 74.6492 108.557C75.9099 108.02 77.9766 107.741 80.8493 107.72L84.7553 107.844L78.3073 121.733L73.7502 119.346C69.4928 121.557 66.1034 123.179 63.582 124.213C62.6727 124.605 61.1123 125.37 58.901 126.507C57.4543 127.271 56.3899 127.674 55.7079 127.716C53.3519 127.902 50.3862 126.91 46.8108 124.74C44.6201 123.396 42.3881 121.743 40.1147 119.78C40.032 119.718 40.1354 119.428 40.4247 118.912L40.8897 118.137L39.2467 119.284C38.9574 119.614 38.544 119.862 38.0067 120.028C36.9527 120.379 35.7953 120.203 34.5346 119.501C33.4599 118.881 32.5609 117.992 31.8376 116.834L31.0936 115.284L28.8925 117.64L24.8005 117.423Z" fill="#F29600"/>
<path d="M44.9825 107.1L42.4715 108.619C41.0661 109.301 40.0948 109.652 39.5574 109.673C39.2268 109.673 38.9478 109.58 38.7204 109.394C38.3278 108.981 38.2761 107.927 38.5654 106.232C38.8341 104.661 39.1544 103.566 39.5264 102.946C40.0224 102.181 40.6941 101.623 41.5415 101.272L43.9285 101.179C44.6518 101.448 45.1789 101.944 45.5095 102.667C45.7989 103.287 45.8815 103.959 45.7575 104.682L45.6955 105.116C45.5715 106.046 45.3339 106.707 44.9825 107.1Z" fill="#0D131A"/>
<path d="M43.8347 101.427L41.6336 101.551C40.8483 101.882 40.2283 102.398 39.7736 103.101C39.4223 103.659 39.1123 104.703 38.8436 106.232C38.5749 107.865 38.6059 108.846 38.9366 109.177C39.0813 109.322 39.2776 109.394 39.5256 109.394C40.0216 109.373 40.962 109.032 42.3467 108.371C43.69 107.71 44.496 107.224 44.7647 106.914C45.0954 106.542 45.3124 105.932 45.4157 105.085L45.4777 104.651C45.581 103.969 45.5087 103.339 45.2607 102.76C44.9714 102.119 44.496 101.675 43.8347 101.427ZM39.2776 102.791C39.8149 101.964 40.5383 101.375 41.4476 101.024L44.0207 100.9C44.7027 101.169 45.2297 101.613 45.6017 102.233C45.9324 102.791 46.0977 103.411 46.0977 104.093L45.9737 105.178C45.8497 106.149 45.5914 106.852 45.1987 107.286C44.8887 107.658 44.0207 108.185 42.5947 108.867C41.1273 109.57 40.1146 109.931 39.5566 109.952C39.1433 109.973 38.8023 109.849 38.5336 109.58C38.0583 109.105 37.9756 107.968 38.2856 106.17C38.5543 104.579 38.8849 103.452 39.2776 102.791Z" fill="#0D131A"/>
<path d="M43.4008 105.489C43.0288 105.943 41.6441 107.039 39.2468 108.775C39.0608 108.589 39.0504 107.793 39.2158 106.388C39.4018 104.962 39.6498 103.959 39.9598 103.381C40.3111 102.781 40.8071 102.327 41.4478 102.017C42.1091 101.686 42.7188 101.624 43.2768 101.831C43.8762 102.037 44.2895 102.451 44.5168 103.071C44.4548 103.649 44.3205 104.135 44.1138 104.528L43.4008 105.489Z" fill="white"/>
<path d="M44.1441 106.387C43.9168 106.677 43.1004 107.183 41.6951 107.907C40.2277 108.651 39.4114 108.94 39.246 108.775C41.6434 107.038 43.0281 105.943 43.4001 105.488L44.1131 104.527C44.3198 104.135 44.4541 103.649 44.5161 103.07C44.6608 103.463 44.7124 103.887 44.6711 104.341L44.5161 105.519L44.1441 106.387Z" fill="#DBDCDC"/>
<path d="M24.336 114.943C24.7493 114.592 25.3383 114.344 26.103 114.199C26.909 114.055 27.6117 114.22 28.211 114.695C28.6244 115.026 28.9137 115.439 29.079 115.935L30.6911 118.478C30.9184 118.726 31.3317 118.953 31.9311 119.16L32.8921 119.439L32.4581 120.338C32.0034 121.268 30.6807 121.671 28.49 121.547L25.979 121.206C25.111 120.937 24.4186 120.42 23.902 119.656C23.5506 119.139 23.3336 118.55 23.251 117.888C23.1683 117.248 23.2406 116.69 23.468 116.214L23.561 116.059C23.7676 115.584 24.026 115.212 24.336 114.943Z" fill="#0D131A"/>
<path d="M24.4288 115.068C24.1601 115.295 23.9121 115.636 23.6848 116.091L23.5918 116.277C23.3851 116.731 23.3128 117.269 23.3748 117.889C23.4575 118.529 23.6641 119.098 23.9948 119.594C24.5115 120.317 25.1832 120.803 26.0098 121.051L28.4899 121.392C30.6392 121.516 31.9103 121.144 32.3029 120.276L32.7059 119.532L31.8999 119.284C31.2386 119.056 30.7942 118.819 30.5669 118.571C30.2776 118.24 29.7506 117.413 28.9859 116.091L28.9549 116.06L28.8619 115.905C28.6965 115.429 28.4175 115.037 28.0249 114.726C27.4875 114.313 26.8468 114.179 26.1028 114.323C25.3795 114.468 24.8215 114.716 24.4288 115.068ZM23.7778 119.749C23.3025 119.046 23.0648 118.281 23.0648 117.455C23.0648 116.959 23.1578 116.525 23.3438 116.153L23.4368 115.998C23.6848 115.481 23.9535 115.099 24.2428 114.85C24.6768 114.458 25.2865 114.189 26.0718 114.044C26.8572 113.9 27.5392 114.044 28.1179 114.478C28.5519 114.788 28.8825 115.212 29.1099 115.75L30.7839 118.385C30.9906 118.633 31.3936 118.839 31.9929 119.005L32.9229 119.315L33.0159 119.377L33.0469 119.439L32.5819 120.4C32.1066 121.371 30.7426 121.795 28.4899 121.671L25.9478 121.33C25.0385 121.04 24.3151 120.513 23.7778 119.749Z" fill="#0D131A"/>
<path d="M24.2737 116.586L24.7697 115.811C25.0797 115.522 25.5447 115.326 26.1647 115.222C26.8054 115.098 27.3117 115.264 27.6837 115.718C27.8904 115.925 28.0247 116.152 28.0868 116.4L28.7688 117.547L29.8228 119.097C30.1534 119.469 30.6908 119.769 31.4348 119.996C27.7147 120.534 25.3277 119.397 24.2737 116.586Z" fill="white"/>
<path d="M24.5508 119.222C24.2821 118.829 24.1168 118.385 24.0548 117.889C24.0134 117.434 24.0651 117.052 24.2098 116.742L24.2718 116.587C25.3258 119.397 27.7128 120.534 31.4329 119.997C31.3709 120.141 31.1849 120.276 30.8749 120.4L28.3638 120.679L26.1938 120.431C25.5118 120.224 24.9641 119.821 24.5508 119.222Z" fill="#DBDCDC"/>
<path d="M31.465 101.117C32.1056 101.841 32.3743 102.678 32.271 103.629C32.209 104.476 31.9506 105.075 31.496 105.427L30.1629 106.667L28.8299 108.155C28.5819 108.547 28.4372 109.198 28.3959 110.108L28.1789 110.914L27.2799 110.883C26.7426 110.717 26.2259 110.397 25.7299 109.922C24.7379 108.95 24.2419 107.638 24.2419 105.985C24.2419 104.414 24.9135 102.719 26.2569 100.9C26.4222 100.673 26.7632 100.456 27.2799 100.249C27.7552 100.084 28.1996 99.9911 28.6129 99.9705C29.7703 99.9085 30.7209 100.291 31.465 101.117Z" fill="#0D131A"/>
<path d="M26.0098 100.745C26.2165 100.456 26.6092 100.208 27.1879 100.001L28.5829 99.6911C29.8642 99.6291 30.8976 100.042 31.6829 100.931C32.3443 101.696 32.6439 102.605 32.5819 103.659C32.4786 104.569 32.1789 105.24 31.6829 105.674L30.3809 106.852C29.6782 107.555 29.2442 108.041 29.0789 108.309C28.8516 108.64 28.7172 109.26 28.6759 110.169L28.4589 110.975L28.3659 111.13L27.2809 111.161H27.2189C26.7022 111.058 26.1442 110.707 25.5448 110.107C24.4908 109.095 23.9638 107.72 23.9638 105.984C23.9638 104.393 24.6458 102.646 26.0098 100.745ZM29.9779 106.48L31.3109 105.209C31.7036 104.92 31.9309 104.383 31.9929 103.597L32.0239 103.349C32.0239 102.605 31.7656 101.923 31.2489 101.303C30.6082 100.58 29.7299 100.228 28.6139 100.249L27.4049 100.528L26.4748 101.086C25.1728 102.864 24.5218 104.496 24.5218 105.984C24.5218 107.514 24.9662 108.733 25.8548 109.642C26.3302 110.138 26.8262 110.459 27.3429 110.603L27.9629 110.634L28.1179 110.076C28.1179 109.188 28.2729 108.495 28.5829 107.999C28.7689 107.71 29.2339 107.204 29.9779 106.48Z" fill="#0D131A"/>
<path d="M30.2251 104.341L28.3341 106.046C27.5074 107.1 27.3111 108.351 27.7451 109.797V109.952C27.3524 109.828 26.9494 109.57 26.5361 109.177C25.7301 108.371 25.3271 107.266 25.3271 105.86C25.3271 105.034 25.5441 104.124 25.9781 103.132C26.3087 102.388 26.6807 101.747 27.0941 101.21C27.3628 100.879 27.9414 100.714 28.8301 100.714C29.8221 100.735 30.5558 101.024 31.0311 101.582L31.3411 101.985C31.1345 103.018 30.7625 103.804 30.2251 104.341Z" fill="white"/>
<path d="M31.1859 104.651C29.6979 105.767 28.7369 106.646 28.3029 107.286C28.0135 107.762 27.8275 108.599 27.7448 109.797C27.3108 108.351 27.5072 107.1 28.3339 106.046L30.2249 104.341C30.7622 103.804 31.1342 103.019 31.3409 101.985C31.6302 102.502 31.7232 103.06 31.6199 103.659C31.5372 104.155 31.3926 104.486 31.1859 104.651Z" fill="#DBDCDC"/>
<path d="M31.0936 111.72C31.0936 110.314 31.6206 109.043 32.6746 107.907C33.7493 106.77 34.9686 106.181 36.3326 106.14C34.7826 108.165 34.1626 109.87 34.4726 111.255C34.6793 112.185 35.5163 112.97 36.9836 113.611C38.203 114.148 39.4017 114.437 40.5797 114.479L39.2157 116.029C38.6783 116.483 38.048 116.711 37.3246 116.711C35.816 116.711 34.4209 116.235 33.1396 115.285C31.7756 114.251 31.0936 113.063 31.0936 111.72Z" fill="#D18200"/>
<path d="M35.6506 107.1C36.6426 105.53 37.2213 104.827 37.3866 104.992L36.1156 107.193C35.2683 108.826 34.9479 110.128 35.1546 111.099C35.3406 111.843 36.0846 112.536 37.3866 113.176C38.606 113.776 39.7323 114.075 40.7657 114.075C41.489 114.075 42.264 113.9 43.0907 113.548L44.1137 113.083C43.1837 114.013 42.047 114.478 40.7037 114.478C39.5463 114.478 38.327 114.199 37.0456 113.641C35.537 113.001 34.6793 112.205 34.4726 111.254C34.2246 110.159 34.6173 108.774 35.6506 107.1Z" fill="#0D131A"/>
<path d="M70.1856 139.651L71.8906 138.845L91.9789 184.787L89.4679 185.097C87.9592 185.283 86.6675 185.542 85.5928 185.872C85.1175 186.038 84.2288 186.606 82.9268 187.577L80.9118 188.91C81.5318 189.778 82.0174 190.998 82.3688 192.569C82.6995 194.036 82.7821 195.038 82.6168 195.576C82.4101 196.299 82.0278 196.929 81.4698 197.467C80.9531 197.963 80.3847 198.304 79.7647 198.49C77.4294 198.986 75.5693 199.523 74.1847 200.102C73.296 200.453 71.963 201.218 70.1856 202.396L67.6126 204.225L66.5896 205.217C66.0729 205.568 65.4425 205.806 64.6985 205.93C64.0785 206.033 63.0452 205.857 61.5985 205.403L59.3044 205.93L56.8554 206.55C55.7601 206.922 54.8094 207.294 54.0034 207.666L52.7944 208.255C52.1743 208.544 51.7197 208.658 51.4303 208.596C50.9963 208.492 50.831 208.048 50.9343 207.263C51.0377 206.519 51.3167 205.64 51.7713 204.628L52.4224 203.326L46.7803 203.605C46.0776 203.729 45.4059 203.915 44.7652 204.163L43.4012 204.752L42.2542 204.845C42.0475 204.721 41.9752 204.504 42.0372 204.194C42.1199 203.532 42.3265 202.819 42.6572 202.055C43.2979 200.505 44.3106 199.089 45.6953 197.808L43.2772 197.746C42.1199 197.766 41.1899 197.932 40.4872 198.242C39.4332 198.738 39.1232 198.283 39.5572 196.878C39.9085 195.741 40.9728 194.48 42.7502 193.096C43.7422 192.352 44.8169 191.7 45.9743 191.142C46.9456 190.667 47.7619 190.357 48.4233 190.212L48.7333 190.15L49.4463 190.088L53.2904 187.67C54.365 186.926 55.4087 186.027 56.4214 184.973L57.8474 183.237L58.1574 181.811L56.3284 180.447C55.3571 179.683 54.5924 178.928 54.0344 178.184C51.885 175.291 50.645 172.749 50.3143 170.558C49.715 166.445 51.11 161.496 54.4994 155.709C56.7727 151.803 60.3585 147.794 65.2565 143.681C69.1833 140.705 70.8263 139.361 70.1856 139.651Z" fill="#0D131A"/>
<path d="M65.9066 144.704C67.126 143.691 68.3246 142.833 69.5027 142.131L70.9287 141.356L89.2189 183.237C87.6276 183.423 86.2326 183.702 85.0339 184.074C84.3932 184.281 83.5769 184.808 82.5849 185.655C81.4688 186.606 80.6112 187.226 80.0118 187.515C79.6605 187.701 79.1128 188.042 78.3688 188.538L77.3768 189.22L78.2448 189.344C78.8441 189.427 79.2471 189.53 79.4538 189.654C79.7018 189.82 79.9601 190.357 80.2288 191.266L80.7868 193.839C80.3735 194.501 79.4435 195.131 77.9968 195.73C76.9634 196.144 75.8681 196.485 74.7107 196.753C73.6361 197.001 72.4787 197.363 71.2387 197.838C69.7713 198.376 68.645 198.913 67.8596 199.45L65.5346 200.907C64.7906 201.321 64.1293 201.558 63.5506 201.62L62.0006 203.945C60.1819 203.346 58.1048 202.447 55.7695 201.248C53.2688 199.946 51.3571 198.737 50.0344 197.621C48.5257 196.361 47.6577 195.172 47.4304 194.056L47.5544 192.754L54.5605 188.383C55.7798 187.536 56.8958 186.544 57.9085 185.407C58.6938 184.519 59.1899 183.826 59.3965 183.33L59.5205 182.462L60.7295 182.834L64.0156 183.082L62.3106 182.71L60.9775 182.214C60.6469 182.111 60.2232 181.904 59.7065 181.594L58.9935 181.129C58.2908 180.674 57.2782 179.558 55.9555 177.781C54.3021 175.611 53.2998 173.183 52.9484 170.496C52.3491 166.218 53.4134 161.589 56.1415 156.608C58.7662 151.834 62.0212 147.866 65.9066 144.704Z" fill="#F29600"/>
<path d="M77.996 195.731C79.4426 195.131 80.3727 194.501 80.786 193.84C80.8893 194.708 80.91 195.235 80.848 195.421C80.6 196.061 80.1246 196.578 79.422 196.971L77.6859 197.622L73.9659 198.769C73.5319 198.851 72.4469 199.42 70.7108 200.474L67.5178 202.458L66.2468 203.543C65.7094 203.997 65.0688 204.287 64.3248 204.411C63.9114 204.473 63.1364 204.318 61.9997 203.946L63.5497 201.621C64.1284 201.559 64.7898 201.321 65.5338 200.908L67.8588 199.451C68.6441 198.913 69.7705 198.376 71.2379 197.839C72.4779 197.363 73.6352 197.002 74.7099 196.754C75.8673 196.485 76.9626 196.144 77.996 195.731Z" fill="#D18200"/>
<path d="M61.2883 184.043C60.875 183.775 60.6993 183.599 60.7613 183.516L61.3813 183.702L62.6833 184.136L64.3883 184.291L65.3494 184.415L64.4193 184.663L62.7143 184.601C62.239 184.519 61.7636 184.333 61.2883 184.043Z" fill="#0D131A"/>
<path d="M70.8364 180.23C68.4597 176.738 67.2714 172.842 67.2714 168.543C67.2714 165.175 68.0257 162.012 69.5344 159.057C71.0018 156.205 73.0065 153.849 75.5485 151.989L89.2197 183.237C87.6283 183.423 86.2333 183.702 85.0346 184.074C84.394 184.281 83.5776 184.808 82.5856 185.656C81.4696 186.606 80.6119 187.226 80.0126 187.516L79.9816 187.547C76.2202 186.1 73.1718 183.661 70.8364 180.23Z" fill="#D18200"/>
<path d="M49.3217 191.359C49.611 191.277 49.859 191.401 50.0657 191.731C50.293 192.083 50.448 192.61 50.5307 193.312C50.634 194.325 50.5307 195.524 50.2207 196.908H43.5556C42.8529 196.95 42.0159 197.136 41.0446 197.466L39.8046 197.962C39.7219 197.714 39.7942 197.353 40.0216 196.877C40.4556 195.947 41.4062 194.935 42.8736 193.839C43.8656 193.095 45.1676 192.486 46.7797 192.01L49.3217 191.359Z" fill="white"/>
<path d="M46.347 195.607C48.6411 195.442 49.8811 195.121 50.0671 194.646H50.0981L49.8811 196.475L43.526 196.506C42.8646 196.527 42.1206 196.671 41.2939 196.94C42.596 196.217 44.2803 195.772 46.347 195.607Z" fill="#DBDCDC"/>
<path d="M48.8264 191.05L49.1984 190.957L50.0354 191.081C50.5315 191.411 50.8415 192.145 50.9655 193.282V194.677L50.0975 194.646V193.375C50.0148 192.548 49.8391 192.021 49.5704 191.794C49.1984 191.546 48.2788 191.701 46.8114 192.259C45.3647 192.796 44.135 193.437 43.1224 194.181C41.5723 195.338 40.632 196.371 40.3013 197.281L41.2933 196.94L41.9133 197.653L39.9603 198.366H39.6193C39.4746 198.304 39.392 198.211 39.3713 198.087C39.3093 197.673 39.392 197.229 39.6193 196.754C40.074 195.741 41.0763 194.656 42.6263 193.499C43.9904 192.486 46.0571 191.67 48.8264 191.05Z" fill="#0D131A"/>
<path d="M43.557 197.343L41.914 197.653L41.2939 196.94C42.1206 196.671 42.8646 196.527 43.526 196.506L49.8811 196.475L50.0981 194.646L50.9661 194.677L50.6561 197.002C50.5941 197.229 50.4494 197.343 50.2221 197.343H43.557Z" fill="#0D131A"/>
<path d="M48.9811 201.001C46.6664 201.621 44.8374 202.489 43.494 203.605L44.021 203.791L42.595 204.411C42.5537 203.997 42.657 203.47 42.905 202.83C43.3597 201.528 44.2587 200.277 45.6021 199.079C46.5321 198.273 47.8444 197.343 49.5391 196.289L52.2051 194.739C52.5151 194.553 53.0422 194.811 53.7862 195.514C54.6128 196.258 55.1605 197.095 55.4292 198.025L55.5842 198.614L54.3132 199.637C53.7552 199.967 53.2488 200.174 52.7942 200.257L48.9811 201.001Z" fill="white"/>
<path d="M47.0886 202.768C46.4892 202.871 45.4662 203.212 44.0195 203.791L43.4925 203.605C44.8359 202.489 46.6649 201.621 48.9796 201.001L52.7927 200.257C53.2473 200.174 53.7537 199.967 54.3117 199.637L55.5827 198.614C55.8514 199.833 55.903 200.99 55.7377 202.086L47.0886 202.768Z" fill="#DBDCDC"/>
<path d="M43.1518 203.574L43.4929 203.543C45.1875 202.84 46.3656 202.437 47.0269 202.334L55.335 201.683C55.459 200.401 55.3557 199.223 55.025 198.149C54.7977 197.363 54.343 196.63 53.661 195.948C53.0823 195.39 52.6587 195.111 52.39 195.111L52.235 195.204C49.2589 196.878 47.1406 198.273 45.8799 199.389C44.4952 200.608 43.6065 201.889 43.2138 203.233L43.1518 203.574ZM44.4849 204.07C43.4102 204.504 42.8418 204.752 42.7798 204.814L42.3768 204.783L42.1598 204.442C42.1392 203.966 42.2528 203.377 42.5008 202.675C42.9762 201.311 43.9165 200.009 45.3219 198.769C46.6446 197.57 48.8043 196.134 51.801 194.459L51.987 194.366C52.1936 194.242 52.4933 194.242 52.886 194.366C53.382 194.573 53.9297 195.018 54.529 195.7C55.211 196.444 55.6967 197.229 55.986 198.056C56.3787 199.172 56.5337 200.174 56.451 201.063L56.172 202.148C56.1307 202.354 55.9964 202.478 55.769 202.52L47.1819 203.171C46.6032 203.253 45.7042 203.553 44.4849 204.07Z" fill="#0D131A"/>
<path d="M58.2504 198.831C58.4984 198.624 59.1701 198.79 60.2655 199.327C61.4228 199.885 62.2288 200.495 62.6835 201.156L62.8075 201.373L62.2805 201.094C62.2805 201.838 61.9085 202.386 61.1645 202.737L57.4754 204.287C55.2227 205.3 53.7037 206.188 52.9184 206.953L53.1974 207.201L52.0813 207.697C51.916 207.428 51.8643 207.046 51.9263 206.55C52.009 205.558 52.567 204.535 53.6004 203.481C56.0184 200.939 57.5684 199.389 58.2504 198.831Z" fill="white"/>
<path d="M63.4267 203.698L57.3507 205.651C56.338 205.981 54.9533 206.498 53.1966 207.201L52.9176 206.953C53.7029 206.188 55.222 205.299 57.4747 204.287L61.1637 202.737C61.9077 202.385 62.2797 201.838 62.2797 201.094L62.8067 201.373C63.3441 202.261 63.5507 203.036 63.4267 203.698Z" fill="#DBDCDC"/>
<path d="M62.3101 201.404C61.9381 200.846 61.2561 200.308 60.264 199.792C59.396 199.337 58.7967 199.13 58.466 199.172L53.8779 203.791C52.9273 204.762 52.4106 205.692 52.3279 206.581C52.2866 206.932 52.4623 207.035 52.8549 206.891L57.195 205.248L60.729 204.163L62.8681 203.357C63.0747 202.861 62.8887 202.21 62.3101 201.404ZM57.97 198.49C58.1353 198.366 58.404 198.314 58.776 198.335C59.396 198.417 60.14 198.707 61.008 199.203C61.9381 199.74 62.6097 200.308 63.0231 200.908C63.5811 201.734 63.8911 202.499 63.9531 203.202C64.0151 203.677 63.9531 204.028 63.7671 204.256C63.7051 204.359 63.4778 204.442 63.0851 204.504L60.977 205L57.474 206.054C56.296 206.446 55.0766 206.901 53.8159 207.418L52.2659 208.069C52.0386 208.172 51.8526 208.12 51.7079 207.914C51.5219 207.562 51.4496 207.108 51.4909 206.55C51.5529 205.454 52.1523 204.328 53.2889 203.171C55.893 200.484 57.4533 198.924 57.97 198.49Z" fill="#0D131A"/>
<path d="M105.37 56.0733C105.804 56.1766 106.155 56.4039 106.424 56.7553C106.693 57.1066 106.817 57.5096 106.796 57.9643L106.424 67.9774C106.238 75.0249 106.259 79.6336 106.486 81.8036C106.775 84.4077 107.602 87.8384 108.966 92.0958C110.434 96.6425 112.015 100.445 113.709 103.504C114.577 105.054 116.448 108.051 119.32 112.494L126.729 124.274C129.457 128.842 131.359 132.479 132.434 135.186C135.017 141.738 136.846 147.132 137.921 151.369C139.884 159.015 140.473 165.763 139.688 171.612C138.82 177.977 136.174 182.958 131.752 186.554C127.411 190.109 121.656 192.052 114.484 192.382C105.887 192.775 98.0747 191.483 91.0479 188.507C81.8098 184.622 74.473 178.029 69.0376 168.729C64.0362 160.152 62.6825 150.521 64.9766 139.836C66.6506 132.045 70.3293 123.592 76.0127 114.478C81.0555 106.356 84.1142 95.1752 85.1888 80.9356C85.5195 76.2649 84.9925 70.2405 83.6078 62.8624L81.4068 53.0662C81.3655 52.7975 81.5308 52.5185 81.9028 52.2292L82.8638 51.5472C83.3598 51.0719 83.9488 50.9169 84.6308 51.0822L105.37 56.0733Z" fill="#0D131A"/>
<path d="M72.7574 171.117C80.0322 177.193 87.7513 181.006 95.9147 182.556C104.099 184.106 111.198 183.062 117.212 179.425C118.411 182.855 119.899 185.315 121.676 186.803C122.503 187.526 123.577 188.187 124.9 188.787C121.862 190.048 118.39 190.771 114.484 190.957C106.858 191.288 99.9035 190.275 93.6207 187.919C85.0646 184.695 78.1102 179.094 72.7574 171.117Z" fill="#DDD583"/>
<path d="M67.8282 136.117C69.6882 130.826 72.0546 126.599 74.9273 123.437C78.916 119.056 83.6074 117.062 89.0015 117.454C95.4702 117.95 101.216 122.931 106.238 132.397C110.722 140.849 113.254 149.767 113.833 159.15C114.37 167.83 115.497 174.588 117.212 179.424C111.198 183.062 104.099 184.105 95.9146 182.555C87.7511 181.005 80.032 177.192 72.7572 171.116L71.0212 168.357C65.5445 158.995 64.4801 148.248 67.8282 136.117Z" fill="#FFF697"/>
<path d="M115.26 119.811C115.26 117.393 116.015 115.181 117.523 113.177C123.021 121.691 126.761 127.881 128.745 131.746H128.621C124.922 131.746 121.77 130.578 119.166 128.243C116.562 125.928 115.26 123.117 115.26 119.811Z" fill="#D18200"/>
<path d="M104.905 57.9338L104.874 59.3908L104.75 71.357C104.75 75.4697 104.822 78.6008 104.967 80.7501L105.06 81.8042C105.37 84.7802 106.165 88.4279 107.447 92.7473C108.852 97.5007 110.392 101.386 112.066 104.403L121.366 119.191C126.161 126.755 129.261 132.314 130.666 135.869C133.27 142.482 135.12 147.949 136.215 152.268C138.034 159.481 138.571 165.846 137.827 171.364C137.29 175.353 136.009 178.784 133.983 181.657C132.061 184.405 129.509 186.565 126.326 188.136C124.693 187.516 123.381 186.782 122.389 185.935C120.405 184.24 118.876 181.316 117.801 177.162C116.809 173.214 116.086 167.562 115.631 160.204C115.362 155.699 114.598 150.925 113.337 145.882C111.993 140.509 110.33 135.89 108.346 132.025C106.176 127.788 103.654 124.254 100.782 121.423C97.103 117.806 93.2796 115.853 89.3115 115.564C82.3881 115.047 76.374 118.726 71.2692 126.6C72.9019 122.942 74.8653 119.263 77.1593 115.564C82.4087 107.173 85.5605 95.9197 86.6145 81.8042C86.8005 79.0348 86.6145 75.2837 86.0565 70.551C85.4571 65.5703 84.6614 61.4782 83.6694 58.2748L84.1964 53.0667V52.9427L104.905 57.9338Z" fill="#F29600"/>
<path d="M104.906 57.9338L104.875 59.3908L104.751 71.357C104.751 75.4697 104.823 78.6008 104.968 80.7501L105.061 81.8042L105.681 85.7722C101.92 86.7849 98.2512 86.0409 94.6758 83.5402C91.6998 81.4528 88.9407 78.2494 86.3987 73.93C85.882 67.7093 84.9727 62.4909 83.6706 58.2748L84.1977 53.0667V52.9427L104.906 57.9338Z" fill="#D18200"/>
<path d="M139.254 144.983C142.458 148.641 145.113 152.588 147.221 156.825C150.032 162.426 151.438 168.368 151.438 174.65C151.438 177.895 150.683 181.398 149.174 185.159C148.43 187.061 147.676 188.663 146.911 189.965C146.746 190.957 146.663 191.959 146.663 192.972C149.412 195.08 151.221 196.692 152.089 197.808L153.515 199.544L154.569 200.784C155.519 201.342 156.139 201.941 156.429 202.582C156.697 203.222 156.811 203.987 156.77 204.876L158.723 208.441C159.446 210.053 159.735 211.593 159.591 213.06C159.508 213.845 159.322 214.486 159.033 214.982C158.661 215.809 158.268 216.243 157.855 216.284L157.173 215.788L156.77 215.261C155.736 214.186 155.013 213.546 154.6 213.339L152.616 212.595L150.229 211.758L147.934 211.882V213.308C147.893 214.424 147.738 215.354 147.469 216.098C147.159 216.987 146.767 217.751 146.291 218.392C145.816 219.053 145.434 219.343 145.144 219.26C145 219.239 144.679 218.836 144.183 218.051C143.791 217.431 143.357 216.894 142.881 216.439L140.339 214.765L137.828 213.37L136.495 212.905L134.573 212.936C134.243 214.259 133.571 215.788 132.558 217.524C132.021 218.557 131.628 219.064 131.38 219.043C131.236 219.022 130.977 218.764 130.605 218.268L130.109 217.555C129.427 216.439 128.88 215.664 128.466 215.23L126.606 213.587L124.436 211.696L123.01 211.2L122.018 210.456C121.667 210.146 121.419 209.774 121.274 209.34C121.171 209.03 121.098 208.596 121.057 208.038C120.892 204.524 122.111 200.639 124.715 196.382L124.529 193.964C121.636 192.538 118.887 190.223 116.283 187.02C114.092 184.333 112.708 180.881 112.129 176.665L111.881 171.116C112.005 167.748 113.224 164.4 115.539 161.072C116.903 159.088 118.432 157.383 120.127 155.957L133.24 139.744L132.744 136.675L134.232 139.682L139.254 144.983Z" fill="#0D131A"/>
<path d="M143.129 91.0422L143.253 90.3602C143.397 88.9962 143.935 87.9111 144.865 87.1051L145.051 86.9501C145.629 86.3715 146.373 85.9374 147.283 85.6481C148.544 85.2348 149.66 85.3174 150.631 85.8961C151.85 86.5988 152.811 87.7871 153.514 89.4612C154.279 91.3005 154.279 92.7989 153.514 93.9562L152.646 95.5992C152.295 96.3226 152.098 96.8083 152.057 97.0563C152.119 97.3043 152.388 97.728 152.863 98.3273L153.979 99.6293L156.8 99.1023C157.957 99.0196 158.794 99.371 159.311 100.156C159.58 100.57 159.807 101.882 159.993 104.093C160.179 106.325 160.148 107.689 159.9 108.185C159.735 108.516 159.456 108.826 159.063 109.115L157.606 110.076L156.335 110.572C155.777 110.758 155.446 110.924 155.343 111.068C154.661 111.812 153.659 113.29 152.336 115.502C152.005 116.06 151.427 116.494 150.6 116.804L148.678 117.238C147.107 123.562 145.702 128.067 144.462 130.754C143.49 132.882 142.354 134.37 141.052 135.218C139.894 135.962 138.468 136.354 136.774 136.396C135.265 136.437 134.077 136.22 133.209 135.745C132.94 135.6 131.69 134.35 129.458 131.994L125.521 127.933L123.381 126.383L121.149 124.926C120.302 124.347 119.289 123.789 118.111 123.252L116.592 122.632L115.414 122.539L114.081 122.787L113.368 123.004L114.732 122.043C113.492 121.877 112.862 121.691 112.841 121.485C112.821 121.361 112.976 121.278 113.306 121.237H113.833L104.595 106.976C103.893 107.307 103.49 107.307 103.386 106.976C103.324 106.77 103.335 106.594 103.417 106.449L103.82 106.015C104.048 105.829 104.967 105.292 106.579 104.403C108.047 103.618 109.731 103.029 111.632 102.636C113.699 102.223 115.28 102.213 116.375 102.605C118.359 103.329 119.754 104.352 120.56 105.674C121.325 106.976 121.718 108.919 121.738 111.502L123.319 112.37C124.001 112.763 124.529 113.156 124.901 113.549L125.428 114.138L128.125 117.176C129.406 118.602 130.367 119.542 131.008 119.997C131.876 120.617 132.909 120.947 134.108 120.989L136.526 120.803L137.053 117.3C137.239 115.378 137.259 114.086 137.115 113.425L135.317 111.905C134.387 111.575 133.767 111.275 133.457 111.006C132.837 110.386 132.558 109.384 132.62 107.999L132.651 106.511L132.124 106.046C130.677 104.848 129.706 103.876 129.21 103.132C128.445 102.016 128.228 100.725 128.559 99.2573C128.869 97.914 129.406 97.0769 130.171 96.7463C130.77 96.4983 131.059 96.3949 131.039 96.4363L134.077 94.9172C134.593 94.7312 135.089 94.7726 135.565 95.0412L136.526 95.9093C137.104 96.4879 137.445 96.7876 137.549 96.8083L139.688 97.0873L141.641 93.9252C142.509 92.4165 143.005 91.4555 143.129 91.0422Z" fill="#0D131A"/>
<path d="M144.833 91.3831L145.081 89.6471C145.205 88.9444 145.401 88.4794 145.67 88.2521L147.282 87.043C148.254 86.671 149.401 86.8467 150.723 87.57L151.839 89.6471C152.48 91.1764 152.563 92.3028 152.087 93.0261C151.777 93.4808 151.447 94.2351 151.095 95.2891C150.723 96.3638 150.568 97.0665 150.63 97.3972C150.754 98.1619 151.302 98.9885 152.273 99.8772L153.699 100.962L155.404 100.466C156.624 100.26 157.45 100.477 157.884 101.117C158.339 101.779 158.587 102.946 158.628 104.62C158.67 106.088 158.587 107.018 158.38 107.41L156.613 108.681C155.435 109.384 154.681 109.911 154.35 110.262L152.366 112.618C151.498 113.693 150.992 114.375 150.847 114.664C150.517 115.222 149.814 115.646 148.739 115.935L147.22 116.183L146.755 119.097C146.28 121.516 145.608 123.851 144.74 126.104C143.727 128.708 142.921 130.464 142.322 131.374C141.805 132.138 141.041 132.851 140.028 133.513C139.139 134.091 138.023 134.432 136.68 134.536C135.44 134.639 134.531 134.525 133.952 134.195C133.621 134.029 132.888 133.254 131.751 131.87C130.552 130.402 129.633 129.431 128.992 128.956L125.83 126.383C124.321 125.122 123.091 124.171 122.141 123.531C120.88 122.663 118.524 121.95 115.073 121.392L113.616 121.206H113.058L104.285 107.162L108.594 105.24C111.735 104.062 113.957 103.701 115.259 104.155C116.788 104.713 117.904 105.323 118.607 105.984C119.247 106.563 119.723 107.359 120.033 108.371C120.405 109.632 120.529 110.996 120.405 112.463L121.707 113.207C122.678 113.807 123.422 114.385 123.939 114.943L126.667 117.888C128.031 119.273 129.126 120.265 129.953 120.865C131.751 122.146 133.787 122.694 136.06 122.508C135.895 123.086 135.45 123.603 134.727 124.058L133.177 125.143L131.906 125.887C131.575 126.155 131.4 126.538 131.379 127.034C131.358 127.592 131.586 128.449 132.061 129.607C132.536 130.743 132.857 131.281 133.022 131.219L132.681 130.134C132.309 129.183 132.154 128.212 132.216 127.22C132.216 127.013 132.35 126.806 132.619 126.6C132.784 126.496 133.187 126.259 133.828 125.887L135.192 125.112C135.957 124.616 136.649 123.872 137.269 122.88L137.517 122.322L137.951 120.71L138.726 117.144C138.912 116.028 138.943 114.954 138.819 113.92L138.54 112.711C137.197 111.409 136.308 110.665 135.874 110.479L134.851 109.952C134.5 109.58 134.324 108.929 134.324 107.999L134.355 106.387L134.231 105.705L132.495 104.403C131.317 103.597 130.542 102.936 130.17 102.419C129.261 101.159 129.064 100.022 129.581 99.0092L130.604 97.8622L134.634 96.5292L135.502 97.3042C136.081 97.9242 136.577 98.3065 136.99 98.4512L139.067 98.7922L140.617 98.6372C140.886 98.4925 141.63 97.3765 142.849 95.2891C144.089 93.2018 144.75 91.8998 144.833 91.3831Z" fill="#F29600"/>
<path d="M138.51 102.14C138.427 102.967 137.983 103.504 137.177 103.752C136.432 103.979 135.833 103.897 135.378 103.504C134.51 102.76 133.756 102.254 133.115 101.985L132.123 101.83L131.379 101.737C130.656 101.613 130.15 101.024 129.86 99.97C129.674 99.2467 129.654 98.5233 129.798 97.8C130.005 96.932 130.439 96.1983 131.1 95.5989C131.886 94.8963 132.836 94.5966 133.952 94.6999C134.965 94.8033 135.647 95.1029 135.998 95.5989L136.184 95.7849C137.487 97.087 138.22 98.2443 138.386 99.257C138.572 100.414 138.613 101.375 138.51 102.14Z" fill="#0D131A"/>
<path d="M138.262 101.241L138.107 99.3192C137.942 98.4099 137.239 97.3042 135.999 96.0022L135.782 95.7852C135.451 95.3718 134.831 95.1135 133.922 95.0102C132.93 94.8862 132.051 95.1548 131.287 95.8162C130.419 96.6015 129.985 97.5832 129.985 98.7612L130.14 99.8772C130.408 100.828 130.832 101.355 131.411 101.458L132.155 101.551L133.24 101.706C133.88 101.996 134.562 102.45 135.286 103.07C135.72 103.401 136.278 103.515 136.96 103.411C137.704 103.287 138.117 102.905 138.2 102.264L138.262 101.241ZM138.665 99.2262C138.872 100.466 138.799 101.593 138.448 102.605C138.055 103.639 137.683 104.248 137.332 104.434C136.98 104.62 136.505 104.445 135.906 103.907C135.306 103.37 134.335 102.812 132.992 102.233L131.318 102.016C130.491 101.892 129.912 101.231 129.582 100.032C129.375 99.2676 129.354 98.5029 129.52 97.7382C129.726 96.8289 130.191 96.0538 130.915 95.4132C131.741 94.6485 132.764 94.3178 133.984 94.4212L135.348 94.7932L136.216 95.4132L136.402 95.5992C137.725 96.9219 138.479 98.1309 138.665 99.2262Z" fill="#0D131A"/>
<path d="M133.984 95.5062C134.646 95.6095 135.08 95.7852 135.286 96.0332L136.34 97.2112C136.96 97.9759 137.322 98.6475 137.425 99.2262C137.653 100.632 137.643 101.768 137.395 102.636L136.929 103.535L136.712 103.318C136.382 102.388 135.534 101.427 134.17 100.435L133.302 100.218C132.786 100.136 132.352 99.9805 132 99.7532L130.667 98.3582C130.75 97.4488 131.112 96.7255 131.752 96.1882C132.372 95.6301 133.116 95.4028 133.984 95.5062Z" fill="white"/>
<path d="M131.597 100.683C131.349 100.642 131.121 100.394 130.915 99.9392C130.708 99.4432 130.625 98.9162 130.667 98.3582L132 99.7532C132.351 99.9805 132.785 100.136 133.302 100.218L134.17 100.435C135.534 101.427 136.381 102.388 136.712 103.318C135.492 102.161 134.407 101.376 133.457 100.962L132.558 100.776L131.597 100.683Z" fill="#DBDCDC"/>
<path d="M149.764 85.9273C150.818 86.4026 151.5 87.2086 151.81 88.3453C152.016 89.0687 152.047 89.854 151.903 90.7013C151.799 91.4454 151.624 91.9724 151.376 92.2824C148.544 95.0104 146.684 96.4778 145.796 96.6844C145.382 96.7464 145.083 96.6638 144.897 96.4364C144.442 95.8784 144.122 94.7004 143.936 92.9024C143.729 91.001 143.843 89.606 144.277 88.7173C145.537 85.8033 147.366 84.8733 149.764 85.9273Z" fill="#0D131A"/>
<path d="M149.545 86.3922C148.325 85.8548 147.292 85.9065 146.445 86.5472C145.825 87.0019 145.256 87.7975 144.74 88.9342C144.347 89.7816 144.213 91.1352 144.337 92.9953C144.44 94.7726 144.667 95.8783 145.019 96.3123L145.484 96.3743C145.959 96.271 146.961 95.5683 148.491 94.2663L150.971 91.9723L151.312 91.1042L151.467 89.6782L151.312 88.4692C151.064 87.4979 150.475 86.8055 149.545 86.3922ZM143.996 88.5002C144.512 86.9709 145.308 85.9375 146.383 85.4002C147.437 84.8628 148.625 84.8835 149.948 85.4622C151.229 86.0202 152.025 87.0845 152.335 88.6552C152.624 90.1432 152.366 91.3936 151.56 92.4063C150.774 93.5223 149.648 94.6383 148.181 95.7543C146.631 96.953 145.566 97.4387 144.988 97.2113C144.347 96.9633 143.892 95.868 143.624 93.9253C143.334 91.8793 143.458 90.0709 143.996 88.5002Z" fill="#0D131A"/>
<path d="M145.051 88.7793C145.547 87.6839 146.095 86.9296 146.694 86.5162L149.391 86.4232C149.97 86.6506 150.424 87.0639 150.755 87.6632C150.672 88.8413 150.362 89.8539 149.825 90.7013C148.461 92.7473 146.952 94.5867 145.299 96.2194C144.968 96.2607 144.741 95.2584 144.617 93.2123C144.493 91.125 144.638 89.6473 145.051 88.7793Z" fill="white"/>
<path d="M148.213 93.9561C146.705 95.3614 145.744 96.1158 145.33 96.2191H145.299C146.953 94.5864 148.461 92.747 149.825 90.701C150.363 89.8537 150.673 88.841 150.755 87.663C151.086 88.3036 151.2 89.089 151.096 90.019C151.014 90.7217 150.879 91.2177 150.693 91.507L148.213 93.9561Z" fill="#DBDCDC"/>
<path d="M150.475 104.372L151.963 101.551C152.521 100.91 153.224 100.58 154.071 100.559C154.919 100.559 155.683 100.91 156.365 101.613C157.109 102.357 157.389 103.318 157.203 104.496C157.016 105.426 156.376 106.16 155.28 106.697L152.893 107.534C151.467 107.968 150.496 108.154 149.979 108.092L149.328 108.03C149.163 107.555 149.545 106.336 150.475 104.372Z" fill="#0D131A"/>
<path d="M150.539 104.961C149.733 106.739 149.361 107.71 149.423 107.875L150.384 107.813L152.554 107.441C153.277 107.255 154.155 106.904 155.189 106.387C156.201 105.871 156.78 105.22 156.925 104.434L156.956 103.814C156.956 103.008 156.697 102.347 156.181 101.83C155.519 101.148 154.827 100.828 154.104 100.869C153.318 100.869 152.688 101.148 152.213 101.706L150.539 104.961ZM148.834 108.433C148.606 108.227 148.854 107.204 149.578 105.364C150.322 103.463 151.045 102.12 151.748 101.334C152.388 100.652 153.163 100.301 154.073 100.28C155.003 100.28 155.84 100.663 156.584 101.427C157.41 102.254 157.71 103.287 157.483 104.527C157.379 105.127 157.131 105.685 156.739 106.201L155.53 107.224C154.992 107.514 153.814 107.834 151.996 108.185L148.834 108.433Z" fill="#0D131A"/>
<path d="M156.523 103.008C155.965 103.856 155.169 104.672 154.136 105.457C152.854 106.387 151.376 107.131 149.702 107.689C149.516 107.669 149.919 106.718 150.911 104.837C151.862 103.039 152.472 101.985 152.741 101.675C153.092 101.303 153.505 101.086 153.981 101.024C154.663 100.921 155.303 101.179 155.903 101.799C156.254 102.151 156.461 102.554 156.523 103.008Z" fill="white"/>
<path d="M155.311 106.046L152.583 107.007C151.033 107.503 150.072 107.731 149.7 107.689C151.374 107.131 152.852 106.387 154.133 105.457C155.166 104.672 155.962 103.856 156.52 103.008C156.603 103.628 156.479 104.279 156.148 104.961C155.879 105.519 155.6 105.881 155.311 106.046Z" fill="#DBDCDC"/>
<path d="M144.927 105.055C144.349 105.53 143.791 106.098 143.253 106.76C142.158 108.103 141.683 109.26 141.827 110.232C141.91 110.893 142.137 111.544 142.509 112.185C141.414 111.916 140.505 111.286 139.781 110.294C139.058 109.281 138.696 108.134 138.696 106.853C138.696 105.344 139.172 104.052 140.122 102.978C141.052 101.903 142.189 101.365 143.532 101.365C144.359 101.365 145.134 101.593 145.857 102.047C146.56 102.481 147.139 103.071 147.593 103.815C146.333 104.228 145.444 104.641 144.927 105.055Z" fill="#D18200"/>
<path d="M144.928 105.054C145.279 104.785 145.889 104.475 146.757 104.124C147.604 103.773 148.048 103.638 148.09 103.721L147.005 104.341L145.362 105.271C144.804 105.705 144.194 106.439 143.533 107.472C142.768 108.712 142.437 109.715 142.541 110.479C142.727 111.823 143.502 113.094 144.866 114.292L146.788 115.749C146.684 116.018 145.92 115.574 144.494 114.416C142.944 113.156 142.055 111.761 141.828 110.231C141.683 109.26 142.158 108.103 143.254 106.759C143.791 106.098 144.349 105.529 144.928 105.054Z" fill="#0D131A"/>
<path d="M131.164 137.109L131.691 138.38C132.125 139.351 132.569 140.136 133.024 140.736L137.023 144.766C139.606 147.68 142.014 151.379 144.246 155.864C146.726 160.824 148.276 165.402 148.896 169.597C149.351 172.801 149.278 176.056 148.679 179.362C148.286 181.636 147.666 183.95 146.819 186.306L145.579 189.717C145.434 190.44 145.352 191.236 145.331 192.104C145.29 192.992 145.341 193.499 145.486 193.623L147.532 195.266C148.999 196.506 150.002 197.487 150.539 198.211L153.515 201.962L154.228 202.334C154.745 202.623 155.045 202.881 155.127 203.109C155.417 203.811 155.375 204.721 155.003 205.837C154.549 207.139 153.763 208.089 152.647 208.689L150.074 210.053C149.95 208.813 149.723 208.286 149.392 208.472C148.297 209.133 147.243 209.278 146.23 208.906V211.2L141.859 211.634L139.658 211.727C138.79 209.743 138.077 208.988 137.519 209.464C136.982 209.939 136.279 210.084 135.411 209.898C134.646 209.732 134.057 209.402 133.644 208.906L133.551 211.696C130.596 211.593 128.198 211.282 126.359 210.766L125.491 208.317C124.871 207.986 124.333 207.459 123.879 206.736C123.424 205.992 123.124 205.175 122.98 204.287C123.414 201.889 124.406 199.482 125.956 197.064C126.08 196.836 126.121 195.927 126.08 194.336L127.32 194.584L130.141 194.708L131.598 194.491L130.172 194.243L127.568 193.809L126.049 193.375V193.344C125.573 193.24 124.891 192.889 124.003 192.29C122.205 191.07 120.272 189.19 118.206 186.647C116.077 184.023 114.703 181.016 114.083 177.626C113.752 175.828 113.638 173.462 113.742 170.527C113.866 167.076 114.951 163.531 116.997 159.894L120.035 155.461L131.164 137.109Z" fill="#F29600"/>
<path d="M149.39 208.472C149.72 208.286 149.948 208.813 150.072 210.053C149.059 210.549 147.778 210.931 146.228 211.2V208.906C147.24 209.278 148.294 209.133 149.39 208.472Z" fill="#D18200"/>
<path d="M137.519 209.464C138.077 208.988 138.79 209.743 139.658 211.727C137.55 211.789 135.514 211.778 133.551 211.696L133.644 208.906C134.057 209.402 134.646 209.732 135.411 209.898C136.279 210.084 136.981 209.939 137.519 209.464Z" fill="#D18200"/>
<path d="M122.979 204.287C123.124 205.175 123.423 205.992 123.878 206.736C124.333 207.459 124.87 207.986 125.49 208.317L126.358 210.766C123.981 210.146 122.762 209.226 122.7 208.007C122.638 206.829 122.731 205.589 122.979 204.287Z" fill="#D18200"/>
<path d="M150.103 208.038L149.979 208.1C150.475 206.86 151.106 205.899 151.87 205.217C152.697 204.493 153.296 204.039 153.668 203.853C154.082 203.625 154.402 203.656 154.629 203.946L155.993 206.085L157.574 208.999C158.215 210.445 158.473 211.799 158.349 213.06C158.287 213.7 158.163 214.186 157.977 214.517C157.853 213.649 157.233 212.719 156.117 211.727C155.208 210.921 154.443 210.404 153.823 210.177C153.059 209.929 152.346 209.65 151.684 209.34C150.692 208.844 150.165 208.41 150.103 208.038Z" fill="white"/>
<path d="M149.67 209.96C149.402 209.857 149.505 209.237 149.98 208.1L150.104 208.038C150.166 208.41 150.693 208.844 151.685 209.34C152.347 209.65 153.06 209.929 153.825 210.177C154.445 210.404 155.209 210.921 156.119 211.727C157.235 212.719 157.855 213.649 157.979 214.517C156.78 213.277 155.902 212.512 155.344 212.223L152.367 211.014L149.67 209.96Z" fill="#DBDCDC"/>
<path d="M143.037 204.597L145.052 207.387C146.251 209.247 146.85 210.724 146.85 211.82C146.85 213.783 146.633 215.344 146.199 216.501L145.548 217.617L145.269 217.214C145.331 215.995 144.68 214.765 143.316 213.525C142.366 212.636 141.436 212.006 140.526 211.634C139.1 211.014 138.294 210.228 138.108 209.278C138.604 207.872 139.162 206.829 139.782 206.147C140.444 205.444 141.136 204.948 141.859 204.659L143.037 204.597Z" fill="white"/>
<path d="M140.525 211.634C141.434 212.006 142.364 212.636 143.315 213.525C144.679 214.765 145.33 215.995 145.268 217.214L143.935 215.633C143.522 215.24 142.437 214.507 140.68 213.432C139.006 212.398 138.024 211.84 137.735 211.758C137.611 211.737 137.59 211.479 137.673 210.983C137.735 210.487 137.879 209.918 138.107 209.278C138.293 210.228 139.099 211.014 140.525 211.634Z" fill="#DBDCDC"/>
<path d="M127.07 205.774C127.525 205.216 128 204.772 128.496 204.441C129.075 204.09 129.467 204.038 129.674 204.286L131.658 206.673C132.774 208.079 133.394 208.999 133.518 209.433C133.849 210.549 133.601 212.161 132.774 214.269C132.361 215.323 131.906 216.263 131.41 217.09L131.224 216.78V216.625C131.162 215.591 130.79 214.599 130.108 213.649L128.372 211.634L126.915 210.146L125.675 208.751C126.171 207.283 126.636 206.291 127.07 205.774Z" fill="white"/>
<path d="M128.373 211.634L130.109 213.649C130.791 214.599 131.163 215.591 131.225 216.625V216.78C130.44 215.602 129.872 214.827 129.52 214.455L125.428 210.487C125.263 210.363 125.346 209.784 125.676 208.751L126.916 210.146L128.373 211.634Z" fill="#DBDCDC"/>
<path d="M150.353 207.697C149.898 208.668 149.702 209.35 149.764 209.743L149.888 209.929L150.632 210.208L155.282 212.068C155.798 212.357 156.635 213.091 157.793 214.269C157.979 213.979 158.103 213.494 158.165 212.812C158.289 211.634 158.041 210.373 157.421 209.03L155.933 206.24L154.6 204.194C154.496 204.049 154.372 203.977 154.228 203.977C153.876 203.935 153.122 204.411 151.965 205.403C151.386 205.919 150.849 206.684 150.353 207.697ZM150.229 211.293L149.454 210.983C149.02 210.838 148.751 210.497 148.648 209.96C148.544 209.319 148.772 208.41 149.33 207.232C149.888 206.054 150.518 205.155 151.221 204.535L152.895 203.233C153.432 202.922 153.918 202.788 154.352 202.829C154.806 202.891 155.199 203.119 155.53 203.512L156.894 205.651L158.444 208.565C159.167 210.135 159.446 211.634 159.281 213.06C159.198 213.783 159.033 214.372 158.785 214.827L158.413 215.509L157.979 215.788C157.793 215.829 157.638 215.767 157.514 215.602L156.987 215.075C155.829 213.917 155.075 213.256 154.724 213.091C154.228 212.801 152.729 212.202 150.229 211.293Z" fill="#0D131A"/>
<path d="M137.857 211.603L137.981 211.758C138.291 211.861 139.232 212.399 140.802 213.37C142.456 214.362 143.479 215.044 143.871 215.416L145.39 217.307C145.618 217.121 145.824 216.76 146.01 216.222C146.424 215.127 146.63 213.649 146.63 211.789C146.63 210.26 145.463 208.028 143.127 205.093L143.003 204.907L142.693 204.783C142.383 204.762 142.001 204.876 141.546 205.124C140.968 205.413 140.42 205.837 139.903 206.395C139.345 206.994 138.839 207.924 138.384 209.185C137.93 210.384 137.754 211.19 137.857 211.603ZM137.609 212.843C137.196 212.719 136.917 212.409 136.772 211.913C136.586 211.272 136.752 210.239 137.268 208.813C137.806 207.408 138.405 206.343 139.066 205.62C139.645 204.979 140.275 204.483 140.957 204.132C141.619 203.781 142.218 203.615 142.755 203.636C143.251 203.677 143.644 203.874 143.933 204.225L144.026 204.38C146.527 207.521 147.777 209.991 147.777 211.789C147.777 213.815 147.54 215.447 147.064 216.687C146.796 217.39 146.486 217.896 146.134 218.206L145.638 218.609L145.173 218.764L144.77 218.485L144.429 217.927C144.016 217.266 143.572 216.708 143.096 216.253C142.766 215.943 141.825 215.313 140.275 214.362C138.767 213.432 137.878 212.926 137.609 212.843Z" fill="#0D131A"/>
<path d="M129.954 204.938L129.675 204.597C129.572 204.493 129.458 204.442 129.334 204.442C129.045 204.442 128.694 204.607 128.28 204.938C127.867 205.248 127.505 205.609 127.195 206.023C126.865 206.415 126.482 207.18 126.048 208.317C125.594 209.515 125.449 210.249 125.614 210.518L127.443 212.223L129.52 214.269C129.954 214.744 130.554 215.581 131.318 216.78C131.98 215.664 132.517 214.496 132.93 213.277C133.468 211.644 133.602 210.384 133.333 209.495C133.168 208.916 132.042 207.397 129.954 204.938ZM126.296 205.31C126.565 204.938 126.937 204.555 127.412 204.163C128.115 203.584 128.756 203.295 129.334 203.295C129.81 203.295 130.213 203.481 130.543 203.853L130.822 204.194C133.013 206.756 134.212 208.41 134.418 209.154C134.79 210.394 134.594 212.068 133.829 214.176C133.395 215.313 132.889 216.377 132.31 217.369L131.845 218.175L131.349 218.485L130.884 218.206L130.357 217.4L128.683 215.044L124.87 211.355C124.271 210.838 124.302 209.712 124.963 207.976C125.459 206.715 125.904 205.826 126.296 205.31Z" fill="#0D131A"/>
<path d="M129.706 196.071L127.97 195.699C127.371 195.493 127.092 195.338 127.133 195.234L127.908 195.327L129.489 195.544L132.031 195.482C133.147 195.42 133.705 195.42 133.705 195.482L132.124 195.854L129.706 196.071Z" fill="#0D131A"/>
<path d="M101.123 1.04806C102.611 0.944723 103.851 1.99874 104.843 4.2101C105.112 4.78878 105.432 6.0598 105.804 8.02316L106.579 12.3632C106.724 13.2106 107.437 16.3519 108.718 21.7874C109.173 23.7714 110.63 26.7061 113.089 30.5915L114.856 33.6915L115.383 35.3965C115.466 36.0579 115.125 37.5769 114.36 39.9536C114.753 41.2556 114.897 43.1156 114.794 45.5337L116.809 51.2688L117.894 54.0588L119.165 56.5698C119.33 56.8385 119.63 56.9832 120.064 57.0038C120.436 57.0452 120.798 57.3965 121.149 58.0579C121.831 59.3599 121.139 61.7882 119.072 65.343L115.786 70.303C116.055 72.0597 115.228 73.2171 113.306 73.7751L108.935 74.3021C108.46 74.3641 107.767 74.6431 106.858 75.1391C106.031 75.5731 105.081 75.7901 104.006 75.7901C102.724 75.7901 101.236 75.3148 99.5418 74.3641C98.0744 73.5787 97.1754 72.9174 96.8447 72.3801L94.8917 69.962L92.1947 66.707L88.5676 62.7389L85.2506 59.2669C84.8166 58.7709 84.2896 58.4299 83.6696 58.2439L82.8945 58.1199C81.4892 56.8798 80.2905 55.2678 79.2985 53.2838C78.5132 51.6924 78.1205 50.5661 78.1205 49.9047C78.1205 49.4294 78.2342 48.4684 78.4615 47.0217C78.7095 45.4717 78.9678 44.2213 79.2365 43.2707C79.8565 41.08 80.1665 39.2613 80.1665 37.8146C80.1665 36.5539 79.6188 34.3632 78.5235 31.2425C78.0481 29.8371 76.5291 27.0264 73.9664 22.8104L71.2694 19.4933L68.1073 15.8043C67.446 14.9983 67.1463 13.9856 67.2083 12.7662C67.2703 11.7122 67.5183 11.0302 67.9523 10.7202C68.3863 10.4102 69.12 10.2449 70.1534 10.2242C71.1247 10.2242 71.8894 10.3379 72.4474 10.5652C72.9227 10.7512 73.8631 11.5262 75.2684 12.8902L79.3915 17.0133C82.8016 20.4233 85.7363 22.9757 88.1956 24.6704C89.229 25.3937 90.686 25.5487 92.5667 25.1354C94.0754 24.8254 95.5737 24.2364 97.0618 23.3684C98.1158 22.7484 98.7874 21.5703 99.0768 19.8343C99.2008 19.049 99.2628 17.561 99.2628 15.3703L98.9218 9.54218C98.7151 6.75214 98.6221 5.11945 98.6428 4.64411C98.6841 3.73476 98.8701 2.98042 99.2008 2.38108C99.6141 1.5544 100.255 1.11006 101.123 1.04806Z" fill="#F29600"/>
<path d="M107.974 62.6146L109.431 63.1726L110.671 63.3276L111.756 63.2966L112.345 63.1416L112.686 63.2036C112.748 63.3689 112.582 63.5239 112.19 63.6686L110.702 63.9166C109.751 63.9166 108.78 63.6686 107.788 63.1726C107.54 63.0486 107.116 62.9556 106.517 62.8936L105.339 62.8626C105.091 62.9039 104.398 63.4929 103.262 64.6296C102.848 65.0429 102.538 65.1049 102.332 64.8156C102.187 64.6296 102.383 64.3196 102.921 63.8856L104.223 62.9246C104.946 62.4492 105.566 62.2115 106.083 62.2115C106.62 62.2115 107.25 62.3459 107.974 62.6146Z" fill="#0D131A"/>
<path d="M108.037 67.5747L106.673 67.2027L105.588 67.5127C105.133 67.5747 104.823 67.4921 104.658 67.2647C104.575 67.1407 104.73 66.9341 105.123 66.6447C105.515 66.376 105.836 66.2314 106.084 66.2107C106.311 66.19 106.704 66.314 107.262 66.5827L108.285 67.1717C108.429 67.2957 108.471 67.4094 108.409 67.5127L108.037 67.5747Z" fill="#0D131A"/>
<path d="M119.074 61.9948C119.177 62.1188 119.115 62.3255 118.888 62.6148L118.33 63.2348L117.276 64.8468C117.111 65.1362 116.925 65.2602 116.718 65.2188C116.491 65.1568 116.439 65.0122 116.563 64.7848C116.708 64.4955 117.08 63.9375 117.679 63.1108C117.824 62.8628 118.082 62.6045 118.454 62.3358C118.826 62.0465 119.033 61.9328 119.074 61.9948Z" fill="#0D131A"/>
<path d="M102.611 43.2396L102.518 42.8986C102.518 42.754 102.57 42.661 102.673 42.6196L103.2 42.8676L103.603 43.9836L104.006 44.5417L104.223 45.0377L103.975 45.6267C103.789 45.792 103.634 45.854 103.51 45.8127C103.366 45.7507 103.293 45.3683 103.293 44.6657L103.014 43.9526L102.611 43.2396Z" fill="#0D131A"/>
<path d="M103.51 46.1537C103.696 46.2363 103.634 46.877 103.324 48.0757L101.898 52.1368L101.092 53.2218C100.637 53.6764 100.348 53.8624 100.224 53.7798C100.017 53.6351 100.131 53.2321 100.565 52.5708L100.968 52.0438L101.371 51.4237L102.146 49.5637L102.89 47.6107C103.2 46.5567 103.407 46.071 103.51 46.1537Z" fill="#0D131A"/>
<path d="M110.733 43.1462L110.888 43.6422L110.919 44.5103L110.733 45.9983C110.733 46.9903 110.568 47.4553 110.237 47.3933C110.031 47.352 109.927 47.197 109.927 46.9283L109.989 46.2463L110.33 44.8513C110.475 43.7352 110.609 43.1669 110.733 43.1462Z" fill="#0D131A"/>
<path d="M96.5658 66.7066L96.6588 68.3806C96.6381 68.732 96.7931 68.9696 97.1238 69.0936C97.4545 69.2176 97.7645 69.0833 98.0538 68.6906L98.4258 69.2486C97.9505 69.848 97.4338 70.1476 96.8758 70.1476C96.5038 70.1476 96.2248 69.7033 96.0388 68.8146C95.8528 67.9466 95.7908 66.8823 95.8528 65.6216L96.5658 66.7066Z" fill="#0D131A"/>
<path d="M97.0014 69.2181C96.6294 69.0527 96.4847 68.2157 96.5674 66.707L98.0554 68.6911L97.4354 69.1871L97.0014 69.2181Z" fill="white"/>
<path d="M114.328 41.7206L114.452 42.5266C114.576 43.4979 114.587 44.5313 114.483 45.6266C114.463 46.0606 114.246 46.6496 113.832 47.3937C113.316 48.303 112.706 48.923 112.003 49.2537C112.045 48.0137 112.251 46.815 112.623 45.6576C113.057 44.335 113.626 43.0226 114.328 41.7206Z" fill="white"/>
<path d="M162.318 44.6655C162.463 44.6035 162.68 44.6964 162.969 44.9445L163.527 45.5335C165.739 48.4682 167.847 53.3146 169.851 60.0727C171.939 67.0581 173.386 74.3432 174.192 81.928C174.274 82.5893 174.264 83.1783 174.161 83.695C174.078 84.1703 173.944 84.4183 173.758 84.439C173.386 84.4804 173.127 83.6743 172.982 82.021C172.3 75.1596 170.936 68.2361 168.89 61.2507C166.989 54.7406 164.943 49.6462 162.752 45.9675C162.277 45.1821 162.132 44.7481 162.318 44.6655Z" fill="#0D131A"/>
<path d="M171.185 50.2453C171.33 50.1833 171.64 50.4726 172.115 51.1133L172.89 52.2913C177.726 65.6422 179.545 78.3627 178.346 90.4528L178.222 92.0029C178.119 92.8709 177.995 93.3049 177.85 93.3049C177.726 93.3049 177.592 92.9225 177.447 92.1579L177.261 90.7318C177.757 74.9423 175.876 62.1598 171.619 52.3843C171.04 51.0823 170.896 50.3693 171.185 50.2453Z" fill="#0D131A"/>
<path d="M41.4786 52.5087L41.8816 51.8887C42.0676 51.62 42.2226 51.5064 42.3466 51.5477C42.4913 51.589 42.5636 51.7957 42.5636 52.1677L42.4396 52.9737C41.2409 56.2804 40.3316 60.8065 39.7115 66.5519C39.0295 72.69 38.8952 78.3631 39.3085 83.5712V84.7182C39.2672 85.2968 39.1742 85.5862 39.0295 85.5862C38.8849 85.5862 38.7402 85.2968 38.5955 84.7182L38.4095 83.6022C37.7689 78.2287 37.7895 72.2353 38.4715 65.6219C39.1329 59.0911 40.1352 54.7201 41.4786 52.5087Z" fill="#0D131A"/>
<path d="M37.1999 59.7319C37.3859 59.1119 37.5822 58.8329 37.7889 58.8949C37.9336 58.9156 38.0266 59.0809 38.0679 59.3909V60.0729C36.6419 65.6324 35.5672 71.3261 34.8439 77.1542C34.0792 83.3543 33.7898 89.1824 33.9759 94.6384C33.9759 95.8371 33.8725 96.4468 33.6658 96.4675C33.5212 96.4675 33.4178 96.2091 33.3558 95.6925L33.2938 94.6384C32.5705 89.2857 32.6222 83.4163 33.4488 77.0302C34.1515 71.4501 35.4019 65.684 37.1999 59.7319Z" fill="#0D131A"/>
<path d="M88.8782 42.8364C89.1469 42.7123 89.4466 42.7537 89.7773 42.9604L96.1323 47.6724L96.5664 48.0444C96.9384 48.2718 97.207 48.6128 97.3724 49.0674L97.8064 49.9665L98.4574 51.4855L98.3334 51.9195L96.9694 51.9815L93.0943 51.2375L92.7533 51.1445L89.4673 50.2765C88.6199 49.9665 88.1446 49.6048 88.0412 49.1914C87.9379 48.7161 87.9276 47.8378 88.0102 46.5564L88.3202 43.7044C88.4029 43.2497 88.5889 42.9604 88.8782 42.8364Z" fill="white"/>
<path d="M88.8782 42.8364C89.1469 42.7123 89.4466 42.7537 89.7773 42.9604L96.1323 47.6724L96.5664 48.0444C96.9384 48.2718 97.207 48.6128 97.3724 49.0674L97.8064 49.9665L98.4574 51.4855L98.3334 51.9195L96.9694 51.9815L93.0943 51.2375L92.7533 51.1445L89.4673 50.2765C88.6199 49.9665 88.1446 49.6048 88.0412 49.1914C87.9379 48.7161 87.9276 47.8378 88.0102 46.5564L88.3202 43.7044C88.4029 43.2497 88.5889 42.9604 88.8782 42.8364Z" fill="white"/>
<path d="M92.2259 44.6965L92.2879 44.7585L96.566 48.0446C96.938 48.2719 97.2067 48.6129 97.372 49.0676L97.806 49.9666L98.457 51.4856L98.333 51.9196L96.969 51.9816L93.3729 51.2996C92.4843 49.8943 92.0399 48.3133 92.0399 46.5566C92.0399 45.9159 92.1019 45.2959 92.2259 44.6965Z" fill="#008086"/>
<path d="M112.439 49.3777L111.664 49.7807L111.695 49.2227C111.716 47.9414 111.922 46.722 112.315 45.5647L113.214 43.2396C113.504 44.0043 113.648 44.8 113.648 45.6267C113.648 47.0527 113.245 48.303 112.439 49.3777Z" fill="#008086"/>
<path d="M112.377 48.1996C112.19 48.1996 112.004 48.0756 111.818 47.8276L112.314 45.5646C112.542 44.8412 112.831 44.0972 113.183 43.3325C113.472 43.9112 113.617 44.6139 113.617 45.4406C113.617 46.2052 113.493 46.8562 113.245 47.3936C113.017 47.9309 112.728 48.1996 112.377 48.1996Z" fill="#00666C"/>
<path d="M112.811 47.5181C112.666 48.0969 112.366 48.345 111.912 48.2623C111.953 47.8282 112.118 47.177 112.408 46.3087C112.801 46.6395 112.935 47.0426 112.811 47.5181Z" fill="#0D131A"/>
<path d="M92.2259 44.6965L92.2879 44.7585L96.566 48.0446C96.938 48.2719 97.2067 48.6129 97.372 49.0676L98.054 50.4936L95.264 50.6796C94.148 50.4729 93.2179 50.0079 92.4739 49.2846C92.1846 48.4166 92.0399 47.5072 92.0399 46.5566C92.0399 45.9159 92.1019 45.2959 92.2259 44.6965Z" fill="#00666C"/>
<path d="M93.6214 51.0823L92.8774 51.0513C92.0921 49.708 91.6994 48.2096 91.6994 46.5563C91.6994 45.9776 91.7718 45.2853 91.9164 44.4792L91.9474 44.4482C91.9681 44.7376 92.1541 44.8823 92.5054 44.8823L92.3504 46.5563C92.3504 48.189 92.7741 49.6977 93.6214 51.0823Z" fill="#0D131A"/>
<path d="M95.3577 50.4933C95.0064 50.4933 94.717 50.3693 94.4897 50.1213C94.283 49.8733 94.1797 49.584 94.1797 49.2533C94.1797 48.9227 94.283 48.6333 94.4897 48.3853C94.717 48.158 94.9754 48.0443 95.2647 48.0443C95.5334 48.0443 95.7711 48.1683 95.9777 48.4163C96.1844 48.6643 96.2877 48.9537 96.2877 49.2843L96.0707 50.0903L95.3577 50.4933Z" fill="#0D131A"/>
<path d="M94.1493 48.8508C93.8392 48.8508 93.5911 48.7371 93.405 48.5097C93.2397 48.303 93.157 48.0653 93.157 47.7965C93.157 47.4864 93.25 47.228 93.436 47.0213C93.6428 46.7939 93.8805 46.6802 94.1493 46.6802C94.3973 46.6802 94.6247 46.8042 94.8315 47.0523C95.0175 47.2797 95.1105 47.5484 95.1105 47.8585L94.8315 48.5407C94.6247 48.7475 94.3973 48.8508 94.1493 48.8508Z" fill="white"/>
<path d="M112.625 46.805L112.252 46.5259L112.128 45.9678C112.128 45.699 112.18 45.4819 112.283 45.3166C112.366 45.1305 112.48 45.0375 112.625 45.0375L112.966 45.3476L113.09 45.9988L112.966 46.5569L112.625 46.805Z" fill="white"/>
<path d="M89.5903 43.2395C89.0737 42.9295 88.7533 43.1052 88.6293 43.7665L88.3193 46.5876C88.2367 47.8276 88.247 48.6646 88.3503 49.0986C88.4537 49.512 89.1873 49.9046 90.5514 50.2766L93.1864 50.8966L97.0305 51.6717L97.9295 51.7647C98.0948 51.744 98.1671 51.6613 98.1465 51.5167L97.0925 49.1916C96.9685 48.8816 96.7308 48.5819 96.3794 48.2926C94.9741 47.1559 93.9407 46.3396 93.2794 45.8436L89.5903 43.2395ZM88.9393 42.1545C90.324 42.9399 91.7707 43.8905 93.2794 45.0066L96.3794 47.5796L97.1235 48.2306C97.4541 48.5199 97.6608 48.7783 97.7435 49.0056L99.3555 52.3847L99.5725 52.9427C99.6138 53.1493 99.5415 53.2837 99.3555 53.3457L99.1075 53.1597L98.9525 52.7567C98.9112 52.6533 98.7562 52.55 98.4875 52.4467L97.7125 52.2917C97.0718 52.2917 95.8008 52.085 93.8994 51.6717L89.0633 50.4936C88.6087 50.3076 88.2367 49.977 87.9473 49.5016C87.6167 48.985 87.4513 48.3753 87.4513 47.6726C87.4513 47.0939 87.5133 46.2776 87.6373 45.2236L87.7923 43.5805L87.8543 42.9295L87.7923 42.3715C87.2137 41.7515 86.9553 41.3898 87.0173 41.2865C87.1 41.1832 87.7407 41.4725 88.9393 42.1545Z" fill="#0D131A"/>
<path d="M113.772 45.5334C113.772 47.414 113.183 48.9227 112.005 50.0594L111.54 49.9044C112.078 49.4291 112.501 48.8194 112.811 48.0754C113.142 47.3107 113.307 46.4944 113.307 45.6264C113.307 44.8617 113.183 44.1487 112.935 43.4873L113.276 42.8983C113.607 43.7663 113.772 44.6447 113.772 45.5334Z" fill="#0D131A"/>
<path d="M114.454 42.5264L114.33 41.7204C113.627 43.0224 113.059 44.3348 112.625 45.6574C112.253 46.8148 112.046 48.0135 112.005 49.2535C112.707 48.9228 113.317 48.3028 113.834 47.3935C114.247 46.6495 114.464 46.0605 114.485 45.6264C114.588 44.5311 114.578 43.4978 114.454 42.5264ZM104.813 5.26387C104.027 2.74251 102.901 1.48182 101.434 1.48182C100.462 1.48182 99.7698 2.03983 99.3565 3.15584C99.0465 4.02386 98.9431 5.00554 99.0465 6.10089L99.4495 11.123L99.6975 17.354C99.6562 19.5034 99.3565 21.0844 98.7985 22.0971C98.3851 22.8205 97.6205 23.5231 96.5044 24.2051C95.6158 24.7425 94.5514 25.1248 93.3114 25.3522L90.4594 25.5382L91.6684 26.0652L93.1254 26.8402L94.2724 27.7392L95.7604 29.0102C96.2358 29.5476 96.4734 29.8886 96.4734 30.0332C96.4528 30.1986 96.1118 30.0436 95.4504 29.5682L94.1794 28.7312L93.1874 27.9872C92.6501 27.4499 92.0921 27.1089 91.5134 26.9642C91.1207 26.9022 90.604 26.6955 89.9634 26.3442C89.1987 25.9515 88.5063 25.4762 87.8863 24.9182C85.1583 22.6655 82.7092 20.5058 80.5392 18.4391L73.3471 11.526C72.7684 10.9886 71.9004 10.6683 70.7431 10.5649C69.5857 10.4409 68.7487 10.6063 68.232 11.061C67.7567 11.4743 67.55 12.1666 67.612 13.138C67.674 14.006 67.8807 14.6777 68.232 15.153L71.1461 18.5941L74.4011 22.7171C78.5139 29.2892 80.5702 34.2183 80.5702 37.5043C80.5702 39.013 80.4359 40.4287 80.1672 41.7514L79.4542 44.4174L78.8342 47.1145C78.6275 48.2305 78.5242 49.0365 78.5242 49.5325C78.5242 50.1318 78.6689 50.8449 78.9582 51.6715C79.2682 52.6222 79.7125 53.5109 80.2912 54.3376C81.6139 56.2803 82.4406 57.3963 82.7712 57.6856L83.3603 57.7786C83.7116 57.7786 83.9803 57.8406 84.1663 57.9646L86.3673 59.7007C87.7107 60.8993 88.8473 62.067 89.7774 63.2037L94.0244 68.0708C95.5331 69.8275 96.4528 71.0158 96.7835 71.6358C97.0935 72.1525 97.9305 72.8552 99.2945 73.7438C101.01 74.8599 102.55 75.4179 103.914 75.4179C104.616 75.4179 105.288 75.2835 105.929 75.0149L107.107 74.4259C108.119 73.9712 109.163 73.7335 110.238 73.7128C112.366 73.6095 113.72 73.3512 114.299 72.9378C114.671 72.6692 114.981 72.1628 115.229 71.4188C114.464 72.1628 113.73 72.5968 113.028 72.7208C112.077 72.9275 110.847 72.6692 109.339 71.9458L107.789 71.4188L105.96 71.1708L103.79 71.6048C102.715 71.8115 101.826 71.8012 101.124 71.5738C100.359 71.3258 99.7595 70.9745 99.3255 70.5198L98.2715 69.0008C97.4655 67.7608 96.3391 66.3451 94.8924 64.7537C92.2677 61.9223 90.5524 60.1863 89.7463 59.5456C89.4157 59.277 88.7337 58.967 87.7003 58.6156L85.7783 57.8716C85.4476 57.665 85.1996 57.2929 85.0343 56.7556C84.9309 56.4043 84.8173 55.8049 84.6933 54.9576C84.6106 54.3582 84.6209 53.8209 84.7243 53.3456C84.8069 52.9529 84.9103 52.7565 85.0343 52.7565C85.2203 52.7979 85.3236 53.0872 85.3443 53.6246C85.5716 55.4846 85.799 56.6109 86.0263 57.0036C86.171 57.2516 86.6876 57.5099 87.5763 57.7786C88.6303 58.1093 89.364 58.4296 89.7774 58.7396L93.0324 61.4987C94.6031 62.966 95.7811 64.1854 96.5664 65.1567C97.6825 66.5621 98.7261 68.0604 99.6975 69.6518L100.845 70.4268C101.444 70.6748 102.116 70.7988 102.86 70.7988L104.441 70.5818L106.084 70.3648L107.913 70.5818L109.68 71.0468C111.25 71.7288 112.18 72.0698 112.47 72.0698C113.069 72.0698 113.854 71.5635 114.826 70.5508C116.004 69.3315 117.192 67.6368 118.391 65.4667C119.073 64.2267 119.641 63.0177 120.096 61.8397C120.612 60.517 120.871 59.525 120.871 58.8636C120.871 58.3263 120.654 57.9233 120.22 57.6546L118.825 56.6316C118.37 56.0943 117.843 55.1126 117.244 53.6866C116.706 52.4465 116.314 51.3615 116.066 50.4315C115.714 49.1502 115.28 47.8068 114.764 46.4015C114.35 47.6208 113.875 48.5508 113.338 49.1915L112.439 49.9975C112.087 50.2455 111.912 50.5039 111.912 50.7725L111.757 51.0825L111.478 51.0205C111.292 50.6485 111.199 50.1938 111.199 49.6565L111.478 47.6415C111.684 46.5048 111.881 45.7298 112.067 45.3164L114.206 39.7984C114.743 38.1863 115.012 36.8017 115.012 35.6443C115.012 34.859 114.857 34.1356 114.547 33.4743C114.299 32.9783 113.885 32.3686 113.307 31.6453C112.749 30.9632 112.098 29.9712 111.354 28.6692C110.506 27.2019 109.814 25.7965 109.277 24.4531C108.119 21.4978 107.127 17.5814 106.301 12.704C105.557 8.52925 105.061 6.04922 104.813 5.26387ZM105.557 3.80685L107.231 11.65L108.905 19.3071C109.504 21.4771 110.455 23.8228 111.757 26.3442L114.02 30.4982C114.95 32.2136 115.487 33.4226 115.632 34.1253C115.797 34.9106 115.859 35.603 115.818 36.2023L115.446 37.8453L114.857 39.9534L115.074 41.4414C115.218 42.7021 115.249 44.0144 115.167 45.3784L117.523 52.0435L118.639 54.6166C119.093 55.4639 119.465 56.0116 119.755 56.2596L121.026 57.1586C121.604 57.6133 121.894 58.1506 121.894 58.7706C121.894 60.0313 121.336 61.8293 120.22 64.1647C119.124 66.5001 117.874 68.4944 116.469 70.1478C116.386 71.2225 115.911 72.2868 115.043 73.3408C114.588 73.8575 113.699 74.2295 112.377 74.4569L108.936 74.8599C108.336 74.9425 107.479 75.2525 106.363 75.7899C105.412 76.2652 104.523 76.5029 103.697 76.5029C102.663 76.5029 101.413 76.1515 99.9455 75.4489C98.7261 74.8495 97.8168 74.2709 97.2175 73.7128L95.1714 71.3568L92.1334 67.6058L85.5303 60.2587C84.9516 59.6593 84.3006 59.2873 83.5773 59.1426L82.4922 58.9256L80.8182 57.0036L79.1442 54.8336L77.8422 52.4465C77.3255 51.3925 77.0672 50.6279 77.0672 50.1525C77.0672 49.4912 77.4495 47.6105 78.2142 44.5104C78.8962 41.5964 79.2372 39.2507 79.2372 37.4733C79.2372 36.2747 78.7412 34.394 77.7492 31.8313C76.8812 29.5579 75.9202 27.4912 74.8661 25.6312C74.0808 24.2465 72.6651 22.4278 70.6191 20.1751L66.992 16.207C66.186 15.1943 65.8347 14.006 65.938 12.642C66.0207 11.402 66.4237 10.4926 67.147 9.91394C67.8084 9.35593 68.8107 9.05626 70.1541 9.01493C71.7248 8.95293 73.0061 9.39727 73.9981 10.3479L79.5782 15.897L84.7863 21.0741C86.853 22.9135 88.31 24.0191 89.1573 24.3911C89.6947 24.6392 90.5937 24.7425 91.8544 24.7012C93.1564 24.6392 94.1794 24.4428 94.9234 24.1121C95.9981 23.6575 96.7938 23.1615 97.3105 22.6241C98.1165 21.7561 98.5195 20.5988 98.5195 19.1521L98.5505 14.936L98.4265 11.247L97.9305 4.67487C97.8891 3.72419 98.1578 2.77351 98.7365 1.82283C99.3772 0.768811 100.193 0.169469 101.186 0.0248004C102.178 -0.0992014 103.108 0.241804 103.976 1.04781C104.782 1.81249 105.309 2.73217 105.557 3.80685Z" fill="#0D131A"/>
</svg>
